<svg xmlns="http://www.w3.org/2000/svg" width="99" height="59"><path fill-rule="evenodd" opacity=".639" fill="#FFF" d="M98.302 31.057c-.691 1.14-17.314 27.911-48.226 27.911-25.832 0-47.18-26.567-48.08-27.702L.971 29.971l1.025-1.295C2.896 27.541 24.244.974 50.076.974c30.912 0 47.535 26.771 48.226 27.911l.659 1.086-.659 1.086zM50.076 5.154c-20.684 0-39.107 19.54-43.7 24.817 4.593 5.277 23.016 24.817 43.7 24.817 25.172 0 40.519-19.895 43.925-24.817C90.584 25.06 75.196 5.154 50.076 5.154zM53 45c-8.284 0-15-6.716-15-15 0-8.285 6.716-15 15-15 1.804 0 3.525.335 5.127.918A4.987 4.987 0 0 0 56 20a4.998 4.998 0 1 0 9.618 1.91A14.913 14.913 0 0 1 68 30c0 8.284-6.716 15-15 15z"/></svg>