<svg xmlns="http://www.w3.org/2000/svg" width="45" height="49"><path fill-rule="evenodd" fill="#FFF" d="M44.479 43.002c-.11.288-.318.532-.57.699-.329.21-8.206 5.298-21.387 5.298-13.181 0-21.059-5.076-21.387-5.298a1.422 1.422 0 0 1-.57-.699c-.581-1.486-.57-4.446-.559-5.022v-.033c.011-.089.011-.178.011-.277.066-2.185.208-7.318 4.963-8.969.033-.012.066-.023.11-.034 4.299-1.105 7.935-3.411 8.861-4.031-3.488-4.873-2.864-12.274-2.791-13.017.274-5.954 3.079-8.78 5.379-10.101C18.829.2 21.218 0 22.434 0h.186c2.214.044 4.197.577 5.895 1.563 2.279 1.319 5.04 4.146 5.314 10.056.072.743.697 8.141-2.789 13.014.901.602 4.573 2.935 8.881 4.045l.11.034c4.755 1.64 4.897 6.773 4.963 8.968 0 .101.011.19.011.278v.033c.011.577.022 3.537-.526 5.011zm-15.35-16.065c-.062-.043-.096-.107-.149-.158-.039.03-.075.065-.115.095.182.052.284.078.264.063zm-13.031-.079c-.029-.022-.056-.048-.085-.071-.047.044-.077.101-.131.14-.018.011.063-.015.216-.069z"/></svg>