<svg xmlns="http://www.w3.org/2000/svg" width="70" height="54"><path fill-rule="evenodd" fill="#FFF" d="M44.479 43.002c-.11.288-.318.532-.57.699-.329.21-8.206 5.299-21.387 5.299-13.181 0-21.059-5.077-21.387-5.299a1.422 1.422 0 0 1-.57-.699c-.581-1.486-.57-4.446-.559-5.022v-.034c.011-.089.011-.177.011-.276.066-2.184.208-7.318 4.963-8.969.033-.012.066-.022.11-.034 4.298-1.104 7.934-3.411 8.861-4.032-3.488-4.873-2.864-12.272-2.791-13.016.274-5.953 3.079-8.781 5.379-10.101C18.829.2 21.218 0 22.434 0h.186c2.214.044 4.197.576 5.895 1.563 2.279 1.319 5.04 4.147 5.314 10.056.072.743.697 8.141-2.789 13.014.901.602 4.573 2.934 8.881 4.046.033.01.077.022.11.033 4.755 1.64 4.897 6.774 4.963 8.969 0 .099.011.188.011.277v.032c.011.577.022 3.538-.526 5.012zm-15.35-16.064c-.062-.044-.096-.108-.149-.159-.039.03-.075.065-.115.095.182.052.284.078.264.064zm-13.031-.08c-.029-.022-.056-.048-.085-.071-.047.044-.077.101-.131.14-.018.012.063-.014.216-.069z"/><path fill-rule="evenodd" stroke-width="2" stroke="#32C6FF" fill="#FFF" d="M63.548 43.736a1.304 1.304 0 0 1-.493.614c-.285.184-7.113 4.65-18.536 4.65-11.423 0-18.251-4.455-18.536-4.65a1.242 1.242 0 0 1-.493-.614c-.504-1.304-.494-3.902-.485-4.406v-.03c.01-.078.01-.156.01-.243.057-1.917.18-6.422 4.301-7.871l.095-.03c3.726-.969 6.877-2.993 7.68-3.537-3.023-4.276-2.482-10.77-2.419-11.423.237-5.224 2.668-7.705 4.662-8.864C41.319 6.175 43.389 6 44.443 6h.161c1.918.039 3.637.507 5.109 1.372 1.975 1.157 4.368 3.639 4.605 8.824.063.653.604 7.144-2.417 11.421.781.529 3.964 2.575 7.697 3.55.029.009.067.019.095.029 4.121 1.439 4.245 5.944 4.302 7.87 0 .088.009.166.009.243v.03c.01.506.019 3.104-.456 4.397zM50.116 29.5c-.034.026-.065.057-.099.082.15.044.245.069.228.057-.053-.038-.083-.094-.129-.139zm-11.164.069c-.025-.019-.049-.042-.074-.062-.041.039-.067.089-.114.123-.015.01.055-.013.188-.061z"/></svg>