<svg xmlns="http://www.w3.org/2000/svg" viewBox="0 0 547.97 290.51"><defs><style>.cls-1,.cls-5{fill:#b9cadb;}.cls-1{opacity:0.3;}.cls-2{fill:#e39679;}.cls-3{fill:#f8e5dd;}.cls-4{fill:#3d1525;}.cls-6{fill:#6975bb;}.cls-7{fill:#edc478;}.cls-8{fill:#fff;}.cls-9{fill:#e2e2e2;}.cls-10{fill:#b54142;}.cls-11{fill:#e08766;}.cls-12{fill:#742509;}</style></defs><title>Asset 1</title><g id="Layer_2" data-name="Layer 2"><g id="OBJECTS"><path class="cls-1" d="M548,274.67c0,4.11-55.53,8.5-140,8.82-27.61.1-58.5-3.68-91.32-3.5-12.48.06-29.67,5.5-42.63,5.5-9.69,0-19.67-3.92-29.5-2.75-13,1.53-25.77,8.21-37.11,7.75-18.52-.77-32.89-8.16-50.48-8.5-14.51-.29-31.63,5.62-44.55,5.25-15.38-.45-35.4-9.17-48.09-9.73C21,275.6,0,277.43,0,274.67c0-6,122.67-10.82,274-10.82S548,268.69,548,274.67Z"/><path class="cls-2" d="M241.84,165.38C230.58,155,204.85,133,177,120.87c0,0-10.38,8.68-13.92,20.82a18.59,18.59,0,0,0,10.16,22.1,204.54,204.54,0,0,0,31.66,11.46c1.52.4,3.05.78,4.6,1.14a48.72,48.72,0,0,1,8.37,2.94c.39.19,1.91.73,1.62,1.42-3,7.13-24,46.88-26,50.58l0,0a17.82,17.82,0,0,0-5.66,5.1,2.22,2.22,0,0,0,.32,2.88l21.47,20a1.11,1.11,0,0,0,.91.3,1.6,1.6,0,0,0,1.53-1.42,1.14,1.14,0,0,0-.5-1c-5.71-4.08-8.89-13-8.43-15.14,4.35-6,29.09-40.43,41.05-63.28A11.09,11.09,0,0,0,241.84,165.38Z"/><path class="cls-3" d="M212.36,260.23a1,1,0,0,1-1.42.1l-24.29-20.6a2.73,2.73,0,0,1-.88-2.77,2.76,2.76,0,0,1,.36-.85,2.94,2.94,0,0,1,.7-.71l7.87-6.33,10.4,11.61-1.29,1.76s-2,3.83,4.82,9.2c4.06,3.24,4.43,6,4.08,7.73a3.09,3.09,0,0,1-.12.46A.88.88,0,0,1,212.36,260.23Z"/><path class="cls-4" d="M212.36,260.23,185.77,237a2.76,2.76,0,0,1,.36-.85l26.58,23.26a3.09,3.09,0,0,1-.12.46A.88.88,0,0,1,212.36,260.23Z"/><polygon class="cls-4" points="199.36 220.21 197.62 223.53 211.72 229.82 199.36 220.21"/><path class="cls-5" d="M167.43,161.34,212,183.53,198,219.13l15.83,12.31L245,178.89a15.82,15.82,0,0,0-5.31-21.54l-48.11-29.63Z"/><polygon class="cls-4" points="175.15 164.65 179.87 152.09 187.75 171.45 175.15 164.65"/><path class="cls-4" d="M204.44,217.13l-.81-.33,1.66-4.07.81.33Zm3.32-8.14-.81-.33,1.65-4.07.82.33Zm3.32-8.14-.82-.33,1.66-4.07.82.33Zm3.31-8.14-.81-.33,1.66-4.07.81.33Zm3.32-8.14-.81-.33,1.66-4.07.81.33Zm3.32-8.14-.81-.33,1.66-4.07.81.33Zm-1.81-6.31-3.86-2.1.42-.77,3.86,2.1Zm-7.72-4.2-3.86-2.1.42-.77,3.86,2.1Zm-7.73-4.2-3.86-2.1.42-.77,3.86,2.1Zm-7.72-4.2-3.86-2.1.42-.77,3.86,2.1Zm-7.72-4.2-3.86-2.1.42-.77,3.86,2.1Z"/><path class="cls-2" d="M164.72,119.71l-12.19,3.7L111.1,270c-1.72,1-10.2,5.32-17,4.25a1.19,1.19,0,0,0-1.13.41,1.65,1.65,0,0,0,.1,2.16,1.15,1.15,0,0,0,.89.44l30.33.82a2.3,2.3,0,0,0,2.32-1.89c.22-1.32-1.45-5-2.15-7.8,1.39-3.62,38.56-95.06,47.62-114.83S164.72,119.71,164.72,119.71Z"/><path class="cls-3" d="M91.47,276.17a1,1,0,0,0,1,1.05l31.8,1.75a2.73,2.73,0,0,0,2.85-3.27l-1.41-10.35L110.18,267l-.28,2.16s-1.2,4.13-9.82,3.37c-5.18-.44-7.36,1.33-8.28,2.81a3.46,3.46,0,0,0-.23.41A.92.92,0,0,0,91.47,276.17Z"/><path class="cls-4" d="M91.47,276.17l35.31,1.39a2.74,2.74,0,0,0,.32-.87l-35.3-1.38a3.46,3.46,0,0,0-.23.41A.92.92,0,0,0,91.47,276.17Z"/><polygon class="cls-4" points="115.64 253.9 114.38 258.37 129.1 256.87 115.64 253.9"/><polygon class="cls-5" points="149.76 128.21 191.56 127.72 133.71 257.88 112.41 253.19 149.76 128.21"/><rect class="cls-4" x="76.1" y="192.12" width="116.3" height="0.88" transform="translate(-89.19 264.5) rotate(-72.96)"/><path class="cls-2" d="M196.71,38.15c-1.48-5.91-11.53-9.4-19.52-4-3.71,2.49-5.08,7.67-5.49,12.51a2.46,2.46,0,0,0-.41-.24,3,3,0,0,0-3.64,1.7,4,4,0,0,0,.1,3.36,5,5,0,0,0,2,2.18,6,6,0,0,0,1.93.44,14.62,14.62,0,0,0,3.76,8.77,13.24,13.24,0,0,0,10.82,4.24c3.2-.25,8.06-1.67,9.62-4.76a8.52,8.52,0,0,0,.67-2.6C197.52,52.89,198.4,44.91,196.71,38.15Z"/><path class="cls-4" d="M192.59,49.12c-.13,1,.18,1.94.69,2s1-.73,1.16-1.77-.18-1.94-.69-2S192.72,48.07,192.59,49.12Z"/><path class="cls-4" d="M186.44,48.34c-.14,1-.66,1.84-1.17,1.77s-.81-1-.68-2,.65-1.84,1.16-1.78S186.57,47.29,186.44,48.34Z"/><path class="cls-4" d="M192.26,54.89a4.61,4.61,0,0,1-1.59,1.41,3.44,3.44,0,0,1-4.13-.55,6.78,6.78,0,0,1-.7-.81c-.19-.31-.36-.61-.52-.93.26.25.49.5.73.75s.5.47.77.65a3.9,3.9,0,0,0,1.77.75,3.77,3.77,0,0,0,1.89-.26A7.9,7.9,0,0,0,192.26,54.89Z"/><path class="cls-4" d="M189.34,57.93a1.48,1.48,0,0,1-1,.2,1.57,1.57,0,0,1-.94-.45,4.45,4.45,0,0,0,1,.23A4.08,4.08,0,0,0,189.34,57.93Z"/><path class="cls-4" d="M188,41.88a2.2,2.2,0,0,0-1.36-.72,4.55,4.55,0,0,0-1.56,0,4,4,0,0,0-2.5,1.66.44.44,0,0,0,.62.62l0,0a5.88,5.88,0,0,1,1-.6,3.1,3.1,0,0,1,1.06-.29,3.77,3.77,0,0,1,1.11,0,4.1,4.1,0,0,0,1.17.08h.12a.46.46,0,0,0,.41-.52A.41.41,0,0,0,188,41.88Z"/><path class="cls-4" d="M192.65,42.46a2.21,2.21,0,0,1,1.5-.35,4.47,4.47,0,0,1,1.5.41,3.58,3.58,0,0,1,1.24.94,3.79,3.79,0,0,1,.77,1.29.45.45,0,0,1-.25.58.45.45,0,0,1-.5-.13l0,0a5.45,5.45,0,0,0-.82-.84,3.11,3.11,0,0,0-1-.54,3.54,3.54,0,0,0-1.08-.24,4.47,4.47,0,0,1-1.16-.22l-.11,0a.47.47,0,0,1-.27-.6A.38.38,0,0,1,192.65,42.46Z"/><path class="cls-4" d="M191.74,46.07c.08.74.11,1.46.15,2.18a21.13,21.13,0,0,0,.21,2.12,4,4,0,0,0,.09.5,1.66,1.66,0,0,1,.08.63,1.22,1.22,0,0,1-.8,1,1.49,1.49,0,0,1-1.21-.09,2.88,2.88,0,0,1-.89-.69c.63.34,1.38.63,1.9.33a.74.74,0,0,0,.41-.63,1.61,1.61,0,0,0-.09-.44,5.41,5.41,0,0,1-.12-.55,10.35,10.35,0,0,1-.07-2.22A12.36,12.36,0,0,1,191.74,46.07Z"/><path class="cls-4" d="M168.72,48.08a7.54,7.54,0,0,1,2.08.83,6,6,0,0,1,1.66,1.38l.38-.46a7,7,0,0,0-1.78-.69,2.7,2.7,0,0,0-1,0,1.14,1.14,0,0,0-.88.72,1.73,1.73,0,0,0,.5,1.91,2.52,2.52,0,0,0,1.72.7,2.77,2.77,0,0,1-1.46-1,1.36,1.36,0,0,1-.26-1.44c.17-.42.72-.41,1.27-.28a8.24,8.24,0,0,1,1.63.61h0a.3.3,0,0,0,.36-.47A5.45,5.45,0,0,0,171,48.53,5.61,5.61,0,0,0,168.72,48.08Z"/><path class="cls-4" d="M180.41,37.91a2.88,2.88,0,0,0-1.94,2.47c-.26,2.77-1.06,8.84-3.08,10.14-2.63,1.71-2.63-5.38-6.39-3.9a5.69,5.69,0,0,0-1.45,1.71s-3.68-8.3-.23-12.48,6.21-1.7,6.21-1.7,9.13-10.49,21.54-7.58c0,0,3.56,1.13.7,4.33,0,0,6.38.81,3.3,7.52,0,0,.52,3-1.55,4.85,0,0-.08-2.4-1-3.13S185.45,36.23,180.41,37.91Z"/><path class="cls-2" d="M231.84,65c-1-2.85-2-5.75-3.22-8.68a100.33,100.33,0,0,0-17.34-28.62,16,16,0,0,0,4.26-11.36,1.31,1.31,0,0,0-2.26-.89,21,21,0,0,0-4.93,8.27s.62-5.23-.35-6.43-6.07,9-2,14.2l.16-.07c1.25,4.37,5.12,17.93,9,32.06-10.12,5.32-19.66,10.2-24.81,12.48a26.56,26.56,0,0,0-5.63,3.25,6.81,6.81,0,0,0,2.77,12A15.39,15.39,0,0,0,196.36,90a205.73,205.73,0,0,0,23-10.73c3.1-1.72,6.31-3.63,9.53-5.74A7.38,7.38,0,0,0,231.84,65Z"/><polygon class="cls-4" points="211.09 48.81 221.35 41.59 222.87 44.24 211.09 48.81"/><path class="cls-6" d="M231.39,75.07,191.92,93a8.07,8.07,0,0,1-3.36.73A8.13,8.13,0,0,1,180.45,85l.07-1.19a8.16,8.16,0,0,1,4.35-6.65l27.61-14.49.3-.16.45-.24-.09-.36.36.07-.64-1-3.17-11.59,14.5-5.63L234.73,66A6.78,6.78,0,0,1,231.39,75.07Z"/><polygon class="cls-4" points="216.08 62.52 215.91 63.38 214.1 63.02 212.93 62.79 212.48 62.69 212.78 62.53 213.23 62.3 213.14 61.92 213.5 62 216.08 62.52"/><polygon class="cls-4" points="214.76 64.12 214.01 64.57 212.93 62.79 212.78 62.53 213.23 62.3 213.14 61.92 213.5 62 214.1 63.02 214.76 64.12"/><path class="cls-6" d="M185.32,70.94l5.51,1.28-.49,3.71,7.7,6.5a4.44,4.44,0,0,1,1.54,3.93l-5.27,41.85-15.38-2.77Z"/><path class="cls-2" d="M193.84,82.77c-3.32-2.61-5.7-3.72-7.18-6.07-.11-.72-.34-2.5-.44-4.48a20.62,20.62,0,0,1,.29-5.18h0a4.43,4.43,0,0,1,.74-1.78L171.66,53.7c0,.06,0,.11,0,.17.06,1.59.54,14.06-2.35,20.28a12.39,12.39,0,0,1-4.87.47,8.65,8.65,0,0,0-5.89,1.52c-2.36,1.71-4.64,5.21-4.33,12.3.63,14.2,0,30.92-2,39.28l38.18-.21s-.53-13,1.79-23C194.35,95.43,198.9,86.75,193.84,82.77Z"/><path class="cls-4" d="M186.22,72.22c-9.26,0-12.51-11.47-12.62-11.9a10.83,10.83,0,0,0,5.92,5.49A17.85,17.85,0,0,0,186.45,67h.06A20.62,20.62,0,0,0,186.22,72.22Z"/><path class="cls-7" d="M169.33,74.15,176,84.31l10.66-7.61s.87.86,3,2.53,9.37,4,6.52,12.66-5.56,32.53-5.56,32.53H151.24l3-36.88S153,74.44,169.33,74.15Z"/><polygon class="cls-4" points="175.21 87.14 173.22 83.88 173.97 83.42 175.47 85.88 186.25 78.35 186.76 79.07 175.21 87.14"/><rect class="cls-4" x="177.41" y="104.36" width="7.84" height="0.88" transform="translate(-28.06 109.17) rotate(-31.22)"/><rect class="cls-4" x="176.78" y="107.27" width="12.17" height="0.88" transform="translate(-28.19 130.06) rotate(-36.54)"/><path class="cls-2" d="M164.89,75a26.45,26.45,0,0,0-6.46-.73c-5.63,0-16.32-.69-27.73-1.52-2.55-17.63-4.77-34.49-4.77-34.49h-.11c.07-6.33-8.94-11.89-9.13-10.42s3,5.67,3,5.67A20.74,20.74,0,0,0,111.22,29a1.31,1.31,0,0,0-1.47,1.93,16,16,0,0,0,10.14,7.63,100.55,100.55,0,0,0-4.4,33c.07,3.17.25,6.26.51,9.25a7.39,7.39,0,0,0,6.1,6.66c3.8.65,7.5,1.12,11,1.45a206.83,206.83,0,0,0,25.4.64,15.53,15.53,0,0,0,8.63-2.4A6.81,6.81,0,0,0,164.89,75Z"/><polygon class="cls-4" points="128.48 56.99 115.85 59.25 116.47 53.7 128.48 56.99"/><path class="cls-6" d="M174.88,71.59l-.16,1-.16,1L166,126l-.14.87-.63,3.82-17.12-3.45.26-1.93.12-.87L153,91s-21.81-1.35-32.46-2.39a6.12,6.12,0,0,1-5.5-5.64L113.37,59.7l16.48-3,1.64,13.64.16,1.34.06.49h.8l34.81.54.43-4.28.11-1,.12-1.21Z"/><polygon class="cls-4" points="153.03 90.96 159.19 89.66 151.61 101.44 153.03 90.96"/><polygon class="cls-4" points="132.51 72.23 132.24 72.39 131.32 72.95 128.71 74.53 128.25 73.78 131.4 71.89 131.65 71.73 131.71 72.22 132.26 72.23 132.51 72.23"/><polygon class="cls-4" points="132.26 72.23 132.24 72.39 132.05 75.33 131.17 75.27 131.32 72.95 131.4 71.89 131.49 70.39 131.65 71.73 131.71 72.22 132.26 72.23"/><polygon class="cls-4" points="174.72 72.58 174.56 73.56 167.75 68.49 167.86 67.48 174.72 72.58"/><polygon class="cls-4" points="165.98 126.03 165.84 126.9 148.35 125.34 148.47 124.47 165.98 126.03"/><path class="cls-2" d="M332,14.22c-2.21-5.67-12.62-7.88-19.87-1.57-3.37,2.93-4.08,8.24-3.88,13.09a2.55,2.55,0,0,0-.44-.18,3,3,0,0,0-3.4,2.13A4,4,0,0,0,305,31a5,5,0,0,0,2.29,1.91,6.29,6.29,0,0,0,2,.2,14.66,14.66,0,0,0,4.84,8.22,13.22,13.22,0,0,0,11.26,2.85c3.15-.65,7.79-2.66,8.95-5.92a8.53,8.53,0,0,0,.34-2.66C334.69,28.75,334.56,20.71,332,14.22Z"/><path class="cls-4" d="M329.33,25.61c0,1.06.41,1.91.93,1.91s.93-.85.93-1.91-.42-1.9-.93-1.9S329.33,24.56,329.33,25.61Z"/><path class="cls-4" d="M323.12,25.61c0,1.06-.41,1.91-.93,1.91s-.93-.85-.93-1.91.42-1.9.93-1.9S323.12,24.56,323.12,25.61Z"/><path class="cls-4" d="M327.21,34.76a1.58,1.58,0,0,1-1,.34,1.65,1.65,0,0,1-1-.34,4.29,4.29,0,0,0,1,.11A3.73,3.73,0,0,0,327.21,34.76Z"/><path class="cls-8" d="M329.6,31.25a4.16,4.16,0,0,1-.41,1,3.07,3.07,0,0,1-.49.7,3.19,3.19,0,0,1-3.15,1.18A3.1,3.1,0,0,1,323.34,32a4.82,4.82,0,0,1-.27-.76,9.33,9.33,0,0,1-.22-1.08S325.25,31.9,329.6,31.25Z"/><path class="cls-9" d="M323.61,31.88l-.27.16a4.82,4.82,0,0,1-.27-.76A2.8,2.8,0,0,0,323.61,31.88Z"/><path class="cls-9" d="M329.19,32.21a3.07,3.07,0,0,1-.49.7c-.09-.12-.23-.27-.23-.27A3.75,3.75,0,0,0,329.19,32.21Z"/><path class="cls-4" d="M323.9,19a2.24,2.24,0,0,0-1.45-.53,4.71,4.71,0,0,0-1.53.21,3.84,3.84,0,0,0-1.36.78,4.14,4.14,0,0,0-.92,1.18.45.45,0,0,0,.17.61.44.44,0,0,0,.52-.06l0,0a5.67,5.67,0,0,1,.92-.73,3.16,3.16,0,0,1,1-.41,4.11,4.11,0,0,1,1.11-.11,4.28,4.28,0,0,0,1.17-.07l.12,0a.46.46,0,0,0,.34-.56A.42.42,0,0,0,323.9,19Z"/><path class="cls-4" d="M328.55,19a2.24,2.24,0,0,1,1.45-.53,4.71,4.71,0,0,1,1.53.21,3.84,3.84,0,0,1,1.36.78,4.14,4.14,0,0,1,.92,1.18.45.45,0,0,1-.17.61.44.44,0,0,1-.52-.06l0,0a5.67,5.67,0,0,0-.92-.73,3.16,3.16,0,0,0-1-.41,4.07,4.07,0,0,0-1.1-.11,4.33,4.33,0,0,1-1.18-.07l-.12,0a.46.46,0,0,1-.34-.56A.42.42,0,0,1,328.55,19Z"/><path class="cls-4" d="M328.11,22.7c.16.72.28,1.43.41,2.14s.27,1.41.47,2.08c.05.16.1.33.16.49a1.59,1.59,0,0,1,.16.61,1.21,1.21,0,0,1-.67,1.13,1.47,1.47,0,0,1-1.21.07,2.74,2.74,0,0,1-1-.58c.66.25,1.45.45,1.92.09a.73.73,0,0,0,.33-.67,1.9,1.9,0,0,0-.14-.43,3.86,3.86,0,0,1-.19-.54A9.71,9.71,0,0,1,328,24.9,11.57,11.57,0,0,1,328.11,22.7Z"/><path class="cls-4" d="M306,27.15a7.54,7.54,0,0,1,2.08.83,6,6,0,0,1,1.66,1.38l.38-.46a7,7,0,0,0-1.78-.7,2.52,2.52,0,0,0-1,0,1.18,1.18,0,0,0-.89.71,1.73,1.73,0,0,0,.51,1.91,2.53,2.53,0,0,0,1.72.71,2.74,2.74,0,0,1-1.46-.95A1.36,1.36,0,0,1,307,29.1c.16-.42.72-.41,1.27-.28a7.38,7.38,0,0,1,1.62.61h0a.31.31,0,0,0,.41-.13.3.3,0,0,0,0-.34,5.42,5.42,0,0,0-1.93-1.37A5.61,5.61,0,0,0,306,27.15Z"/><path class="cls-4" d="M314.21,17.63s-.9,9.24-3.16,9.72c0,0-3.08-3.1-5.59-1.15,0,0-2.22-11,3.28-12a8.84,8.84,0,0,1,6.37-6.9c5.75-1.75,18.39,3.8,20.7-.91,0,0,2.33,4.59-1.29,7.83,0,0,.85,3.91-.86,5.84,0,0-.91-3.88-1.23-4.77,0,0-3.11,1.21-9.85.26S314.21,17.63,314.21,17.63Z"/><path class="cls-2" d="M283.36,255.53a130.46,130.46,0,0,1,12.74-5.68,15.19,15.19,0,0,0-2.45-1.6l0-.45-6.7-64.51,29-54.16s-1.82-14.42-6.82-17.38a77,77,0,0,0-8.74-4.47c-3.1,4.32-6.54,9.63-10.29,15.74a155.11,155.11,0,0,0-7.77,15.78c-.76,1.72-1.55,3.53-2.35,5.41-4.11,9.57-8.74,21-13.27,32.52a17.33,17.33,0,0,0-.76,10.22c1.55,6.65,4.19,18.05,5.72,24.47C275.51,227.62,281,247,283.36,255.53Z"/><polygon class="cls-4" points="276.99 232.44 291.67 229.16 291.2 224.68 276.99 232.44"/><polygon class="cls-10" points="294.09 251.69 284.86 260.37 276.1 234.81 275.81 233.97 275.41 232.79 292.66 228.94 292.74 230.18 292.79 231.07 294.09 251.69"/><polygon class="cls-4" points="292.79 231.07 276.1 234.81 275.81 233.97 292.74 230.18 292.79 231.07"/><path class="cls-6" d="M298.41,105.59H335s3.3,12,0,18.53-46.15,59.33-46.15,59.33l1.86,24.62-21.41,2.85-6.48-26.4a16.22,16.22,0,0,1,1.29-11.22Z"/><polygon class="cls-4" points="312.45 153.99 311.21 127.12 305.01 163.34 312.45 153.99"/><path class="cls-4" d="M284.72,200.77l-.55-4.36.87-.11.55,4.36Zm-1.11-8.72-.55-4.36.87-.11.55,4.36Zm-1.11-8.72-.37-2.94,1.05-1.44.71.52-.84,1.16.33,2.59Zm4-7.41-.71-.52,2.59-3.55.71.52Zm5.18-7.1-.71-.52,2.6-3.54.7.51Zm5.19-7.1-.71-.51,2.59-3.55.71.52Zm5.18-7.09-.71-.52,2.6-3.55.71.52Z"/><path class="cls-3" d="M299.82,256.39l-22.75,22.29a1,1,0,0,1-1.16.18.62.62,0,0,1-.26-.17.94.94,0,0,1-.27-.38.56.56,0,0,0,0-.12c0-.11-.07-.22-.11-.34-.47-1.68-.3-4.47,3.53-8,6.36-5.85,4.14-9.52,4.14-9.52l-1.41-1.67,12.6-11.26,5.25,4.69a2.44,2.44,0,0,1,.73.66,1.51,1.51,0,0,1,.18.26,3.06,3.06,0,0,1,.26.55,1.45,1.45,0,0,1,.08.36A2.71,2.71,0,0,1,299.82,256.39Z"/><path class="cls-4" d="M300.59,253.92l-24.68,24.94a.62.62,0,0,1-.26-.17.94.94,0,0,1-.27-.38.56.56,0,0,0,0-.12L300.25,253a3.06,3.06,0,0,1,.26.55A1.45,1.45,0,0,1,300.59,253.92Z"/><path class="cls-2" d="M368.1,250.46a32.21,32.21,0,0,1,11.49-9.61l-41.48-52.64-1.35-61.43s-8.67-11.66-14.48-11.78a77.81,77.81,0,0,0-9.81.4c-.58,5.28-1,11.6-1.23,18.76a153.83,153.83,0,0,0,1,17.56c.17,1.88.38,3.84.6,5.87,1.12,10.36,2.71,22.61,4.42,34.84a17.3,17.3,0,0,0,4.36,9.28c4.61,5,12.51,13.66,17,18.5C348.69,231,361.05,243.44,368.1,250.46Z"/><polygon class="cls-4" points="352 234.21 364.33 221.48 361.06 217.33 352 234.21"/><polygon class="cls-10" points="380.95 242.07 372.09 255.31 353.36 238.67 352.71 238.09 350.3 235.96 365.62 220.15 366.82 221.86 367.34 222.6 380.95 242.07"/><polygon class="cls-4" points="367.34 222.6 353.36 238.67 352.71 238.09 366.82 221.86 367.34 222.6"/><path class="cls-3" d="M387.47,247.89l-17.85,26.38a1,1,0,0,1-1.39.29.34.34,0,0,1-.09-.08.72.72,0,0,1-.24-.25,2.33,2.33,0,0,1-.24-.41c-.8-1.55-1.18-4.33,1.85-8.55,5.08-7,2.16-10.15,2.16-10.15L370,253.77l10.1-13.56,6.07,3.54a2.92,2.92,0,0,1,.86.51,1.25,1.25,0,0,1,.23.23,2.32,2.32,0,0,1,.35.49,2.06,2.06,0,0,1,.17.33A2.78,2.78,0,0,1,387.47,247.89Z"/><path class="cls-4" d="M387.74,245.31l-18.69,29.37a1,1,0,0,1-.82-.12.34.34,0,0,1-.09-.08l19.08-30a2.32,2.32,0,0,1,.35.49A2.06,2.06,0,0,1,387.74,245.31Z"/><path class="cls-6" d="M335.89,110.05l4.57,76,11,15.16L331,216.64l-9.64-10.79a24.36,24.36,0,0,1-6.11-14.33l-6.19-79.77Z"/><polygon class="cls-4" points="345.05 201.22 331.39 182.89 325.33 116.17 326.2 116.09 332.24 182.56 345.76 200.7 345.05 201.22"/><path class="cls-2" d="M308.21,54.11a26.16,26.16,0,0,0-6.29-1.65c-5.57-.83-16.06-3-27.23-5.46,0-14.66.13-28.75.18-33.3l.17,0C277.58,7.59,270-.85,269.35.56s1.37,6.29,1.37,6.29a20.8,20.8,0,0,0-7-6.66,1.31,1.31,0,0,0-1.94,1.45A16,16,0,0,0,269,11.47a100.27,100.27,0,0,0-9.14,32.19c-.39,3.14-.65,6.23-.81,9.22a7.39,7.39,0,0,0,5.07,7.47c3.67,1.18,7.27,2.17,10.72,3a207,207,0,0,0,25,4.26,15.52,15.52,0,0,0,8.89-1.14A6.81,6.81,0,0,0,308.21,54.11Z"/><path class="cls-3" d="M279.57,47.29l-4.32,17L302.84,69a8.43,8.43,0,0,0,8.88-4.18,9.89,9.89,0,0,0,1-2.71c1-5-2.14-7.45-5.8-8.73S279.57,47.29,279.57,47.29Z"/><polygon class="cls-4" points="279.38 48.02 275.44 63.51 271.75 62.59 279.38 48.02"/><path class="cls-2" d="M334.78,58.85c-3.62-2.18-6.12-3-7.88-5.12-.2-.71-.66-2.44-1-4.4a20.79,20.79,0,0,1-.37-5.17h0a4.4,4.4,0,0,1,.52-1.86l-16.91-9.5,0,.16c.27,1.57,2.31,13.88.22,20.42a12.28,12.28,0,0,1-4.78,1.06A8.71,8.71,0,0,0,299,56.68c-2.13,2-4,5.75-2.76,12.75,2.4,14,4.57,26.72,3.65,35.26h34.64s.37-13.81,1.42-24C336.87,71.35,340.29,62.16,334.78,58.85Z"/><path class="cls-4" d="M325.9,49.33c-9.19,1.16-13.85-9.81-14-10.22a10.86,10.86,0,0,0,6.56,4.7,17.92,17.92,0,0,0,7,.36h0A20.79,20.79,0,0,0,325.9,49.33Z"/><path class="cls-3" d="M299.29,105.59S292.5,65,295.82,59s13.57-5.63,13.57-5.63,9.07,10.18,17.51.36c0,0,9.5,3.65,10.94,7.9s-3.45,43.87-3.45,43.87Z"/><path class="cls-4" d="M318.76,60.55c-6,0-10.72-5.25-10.92-5.47l.66-.59c.05.06,4.87,5.38,10.62,5.17,3.12-.12,6-1.85,8.47-5.14l.7.53c-2.67,3.51-5.74,5.36-9.14,5.49Z"/><polygon class="cls-4" points="321.03 91.96 320.66 96.89 313.85 97.85 319.45 71.16 320.11 91.89 321.03 91.96"/><path class="cls-2" d="M337.53,69.1a15.52,15.52,0,0,0-2.38-8.64A6.81,6.81,0,0,0,323,62.71a25.85,25.85,0,0,0-.75,6.46c0,5.63-.72,16.32-1.58,27.73-14.5,2.07-33,4.34-33,4.34-6.43-1.65-13.71,7.07-12.23,7.48s6-2.24,6-2.24a20.79,20.79,0,0,0-5.62,7.82,1.31,1.31,0,0,0,1.71,1.72,16,16,0,0,0,8.73-8.44,100.11,100.11,0,0,0,33.15,4.52c3.17-.06,6.26-.23,9.25-.49a7.4,7.4,0,0,0,6.68-6.08c.65-3.8,1.12-7.5,1.46-11A207,207,0,0,0,337.53,69.1Z"/><path class="cls-3" d="M320.11,91.89l18.15,1.49.16-28a8.44,8.44,0,0,0-5.78-8.07,10.51,10.51,0,0,0-2.94-.52c-5.26-.14-7.28,3.33-8,7.15S320.11,91.89,320.11,91.89Z"/><path class="cls-2" d="M460.57,45.11a3,3,0,0,0-3.48-2,5.12,5.12,0,0,0-1.56,1c-.69-4.92-2.38-10.24-6.36-12.54-8.32-4.81-18.12-.66-19.21,5.33a45.39,45.39,0,0,0,.3,14.73c.33,2.11.72,4.17,1.13,6.15,0,.21.09.41.13.61a8.06,8.06,0,0,0,.84,2.55c1.75,3,6.69,4.07,9.9,4.11a13.22,13.22,0,0,0,10.52-4.94,14.74,14.74,0,0,0,3.2-9.35v0a6.32,6.32,0,0,0,2-.26,5,5,0,0,0,2.22-2A4,4,0,0,0,460.57,45.11Z"/><path class="cls-11" d="M431.39,57.75a3.32,3.32,0,0,0,.83-.06A3.22,3.22,0,0,0,431,51.36a3.56,3.56,0,0,0-.74.24C430.59,53.71,431,55.77,431.39,57.75Z"/><path class="cls-11" d="M450.53,50.86a3.22,3.22,0,1,1-3.78-2.55A3.22,3.22,0,0,1,450.53,50.86Z"/><path class="cls-4" d="M435.25,47.45c.2,1-.05,1.95-.55,2s-1.08-.66-1.28-1.7.05-1.95.55-2S435.05,46.42,435.25,47.45Z"/><path class="cls-4" d="M432,45.53a2.8,2.8,0,0,0,.78.67,2.15,2.15,0,0,0,1.05.31h0a.35.35,0,0,0,.36-.33.33.33,0,0,0-.33-.35h-.09a2,2,0,0,1-1.61-.45h0a.11.11,0,0,0-.16,0A.12.12,0,0,0,432,45.53Z"/><path class="cls-4" d="M441.34,46.27c.2,1,.77,1.79,1.28,1.69s.75-1,.55-2.05-.77-1.79-1.28-1.69S441.14,45.23,441.34,46.27Z"/><path class="cls-4" d="M443.43,43.19a2,2,0,0,1-1.32,1,.34.34,0,0,0-.29.39.35.35,0,0,0,.4.29l.08,0h0a2.07,2.07,0,0,0,.86-.68,2.53,2.53,0,0,0,.46-.91.1.1,0,0,0-.07-.14.11.11,0,0,0-.13,0Z"/><path class="cls-4" d="M436,53.19a4.7,4.7,0,0,0,1.68,1.3,3.61,3.61,0,0,0,2.18.28,3.52,3.52,0,0,0,1.9-1.1,7.73,7.73,0,0,0,.66-.85q.24-.48.45-1c-.25.26-.46.53-.68.79s-.47.5-.73.7a3.63,3.63,0,0,1-3.62.73A8.2,8.2,0,0,1,436,53.19Z"/><path class="cls-4" d="M439.07,56a1.61,1.61,0,0,0,1.93-.38,5.11,5.11,0,0,1-.94.3A4.57,4.57,0,0,1,439.07,56Z"/><path class="cls-12" d="M439.32,39.92a2.24,2.24,0,0,1,1.32-.8,4.46,4.46,0,0,1,1.55-.07,3.62,3.62,0,0,1,1.47.5,3.88,3.88,0,0,1,1.14,1,.44.44,0,0,1-.06.62.44.44,0,0,1-.52,0l0,0a5.56,5.56,0,0,0-1.05-.55,3.28,3.28,0,0,0-1.07-.21,3.73,3.73,0,0,0-1.1.1,4,4,0,0,1-1.17.16h-.12a.45.45,0,0,1-.44-.48A.51.51,0,0,1,439.32,39.92Z"/><path class="cls-12" d="M434.75,40.81a2.17,2.17,0,0,0-1.52-.25,4.54,4.54,0,0,0-1.46.51,3.65,3.65,0,0,0-1.19,1,3.91,3.91,0,0,0-.68,1.33.45.45,0,0,0,.79.41l0,0a5.64,5.64,0,0,1,.76-.9,3.47,3.47,0,0,1,.92-.6,3.72,3.72,0,0,1,1.06-.31,4.55,4.55,0,0,0,1.14-.29l.11,0a.47.47,0,0,0,.23-.62A.48.48,0,0,0,434.75,40.81Z"/><path class="cls-4" d="M437.53,44c0,.74,0,1.46,0,2.18s0,1.43-.06,2.13a4.43,4.43,0,0,1-.06.51,1.81,1.81,0,0,0,0,.64,1.22,1.22,0,0,0,.87,1,1.5,1.5,0,0,0,1.2-.17,2.9,2.9,0,0,0,.84-.75c-.61.38-1.34.72-1.87.46a.74.74,0,0,1-.45-.61A1.36,1.36,0,0,1,438,49c0-.19.06-.38.08-.56a10.22,10.22,0,0,0-.08-2.22A11.33,11.33,0,0,0,437.53,44Z"/><path class="cls-4" d="M458.93,45.12a7.87,7.87,0,0,0-2.08.83,6.18,6.18,0,0,0-1.66,1.38l-.38-.46a7,7,0,0,1,1.78-.69,2.7,2.7,0,0,1,1,0,1.17,1.17,0,0,1,.89.72,1.75,1.75,0,0,1-.51,1.91,2.52,2.52,0,0,1-1.72.7,2.78,2.78,0,0,0,1.46-.94,1.38,1.38,0,0,0,.26-1.45c-.17-.42-.72-.4-1.27-.28a8.24,8.24,0,0,0-1.63.61h0a.3.3,0,0,1-.41-.13.3.3,0,0,1,.05-.34,5.54,5.54,0,0,1,1.93-1.37A5.78,5.78,0,0,1,458.93,45.12Z"/><path class="cls-12" d="M445.59,34.55s2.84,11.63,8.3,10.92c0,0,3.63-4.1,6-1.43,0,0,3.29,4.73-3.94,6.69,0,0-4.92,4.56-.64,10.76a8.26,8.26,0,0,1,.28,5.28c-.72,3.4,1.74,4.56,3.31,4.09s7.78-1.35,10.63-.69c0,0,2.52-7.09-2.88-11.57s-1.18-9.48-3.05-13.25-2.24-8.8-9.85-10.8c0,0,.63-8.39-8.88-8s-21.21,2.41-18.16,13.11c0,0,.45,7.54-.49,10.33s-5.24,7.21-3.19,9.89,2.28,4.71,1.34,7.46,10.86,7.69,18.43,2.58a43.07,43.07,0,0,0-.78-4.88,18.93,18.93,0,0,1-5.84-1.18,7.61,7.61,0,0,1-4.48-5.06,75.08,75.08,0,0,1-1.81-9.63s-.48-7.6-.35-9c0,0,8.18,3,16.26-5.59"/><path class="cls-2" d="M489.31,263.57c-.33-1.36-3.59-5.33-5.57-7.64h0l-29.05-58,10.57-76.77-9.34-10.57c-2.37-.2-7.26-3-9.59-3.2-3.65,4.52-6.79,16.4-10,33A152.75,152.75,0,0,0,434.66,158c-.53,9.24-.87,20.63-1.1,32.45A44.21,44.21,0,0,0,441,215.78c3.27,4.9,6.89,10.3,9.32,13.87,12.05,17.75,22.08,32.09,22.93,33.3l-.17.13s-6.22,9.29-13.44,11.11a1.12,1.12,0,0,0-.84.79,1.58,1.58,0,0,0,.9,1.88,1.12,1.12,0,0,0,1,.06L488,266.14A2.22,2.22,0,0,0,489.31,263.57Z"/><path class="cls-7" d="M489.7,263.28a4.11,4.11,0,0,1,0,.71,2.5,2.5,0,0,1-.05.29,4.17,4.17,0,0,1-.29.84,3.56,3.56,0,0,1-1.86,1.74l-27,11a2.73,2.73,0,0,1-2.17-.05,2,2,0,0,1-.5-.27,2.17,2.17,0,0,1-.37-.31,2.38,2.38,0,0,1-.32-.38,2.83,2.83,0,0,1-.42-1,1.53,1.53,0,0,1,0-.76c.25-.87,15.6-6,22.38-8.25a7.56,7.56,0,0,0,4.57-4.19l2.54-5.74c1.6.78,2.7,3.21,3.39,5.32A3.87,3.87,0,0,1,489.7,263.28Z"/><path class="cls-4" d="M489.7,263.28a4.11,4.11,0,0,1,0,.71,2.5,2.5,0,0,1-.05.29l-31.34,13.5a2,2,0,0,1-.5-.27,2.17,2.17,0,0,1-.37-.31Z"/><polygon class="cls-4" points="446.35 223.76 455.68 199.92 449.52 228.47 446.35 223.76"/><path class="cls-2" d="M467.14,120,455,123.69,413.49,269.6c-1.72,1-10.18,6-17,4.91a1.16,1.16,0,0,0-1.12.41,1.63,1.63,0,0,0,.09,2.15,1.12,1.12,0,0,0,.89.44l30.33.83a2.29,2.29,0,0,0,2.32-1.9,19,19,0,0,0-.27-7.11c1.38-3.62,36.68-95.75,45.74-115.51S467.14,120,467.14,120Z"/><path class="cls-7" d="M430.08,275.48a3.73,3.73,0,0,1-.26,1.07,2.7,2.7,0,0,1-.29.62,2.33,2.33,0,0,1-.17.26,4.35,4.35,0,0,1-.57.64,3.56,3.56,0,0,1-2.39.9l-29.16-.27a2.79,2.79,0,0,1-2.31-1.27l0-.05a2.51,2.51,0,0,1-.34-.83.64.64,0,0,1,0-.07,2.69,2.69,0,0,1,0-1.06,1.36,1.36,0,0,1,.28-.7c.55-.72,16.7.45,23.83,1a7.67,7.67,0,0,0,5.82-2.12l4.55-4.32C430.17,270.6,430.25,273.28,430.08,275.48Z"/><path class="cls-4" d="M429.82,276.55a2.7,2.7,0,0,1-.29.62,2.33,2.33,0,0,1-.17.26H394.93l0-.05a2.51,2.51,0,0,1-.34-.83Z"/><polygon class="cls-4" points="437.23 186.05 459.83 189.44 436.12 189.94 437.23 186.05"/><path class="cls-7" d="M436.86,124.61,472.42,123s14.41,12.36,4.79,33-15.78,33.4-15.78,33.4l-34.25-4.79S433.83,139.12,436.86,124.61Z"/><rect class="cls-4" x="439.5" y="160.38" width="12.55" height="0.88" transform="translate(-6.68 301.74) rotate(-37.14)"/><rect class="cls-4" x="438.96" y="163.57" width="18.13" height="0.88" transform="translate(-8.9 301.27) rotate(-36.83)"/><path class="cls-2" d="M470.3,73.88a8.7,8.7,0,0,0-5.73-2,12.26,12.26,0,0,1-5-1c-3.24-6.05-3.58-18.39-3.61-20v-.17L441.19,63.29a4.47,4.47,0,0,1,.86,1.72h0a20.65,20.65,0,0,1,.62,5.15c0,.4,0,.79,0,1.16-1.7,2.65-4.27,3.48-8.1,6-5.4,3.51-5.63,13-3.17,22.37S438.9,123,438.9,123l28.39-1.37c-1.22-8.5,4.31-21,6.21-35.12C474.45,79.49,472.5,75.81,470.3,73.88Z"/><path class="cls-4" d="M442.67,70.17c9.25-.61,11.73-12.27,11.82-12.71a10.87,10.87,0,0,1-5.55,5.87A17.8,17.8,0,0,1,442.11,65h-.06A20.65,20.65,0,0,1,442.67,70.17Z"/><path class="cls-6" d="M442.05,72.19s5.45,6.62,17.54-1.32c0,0,13.43-.7,14.16,8.28s-6.9,30.81-5.43,42.39c0,0-18.82,5.42-31.46,3.07,0,0-8.56-30-7.38-38.82S436.63,75.74,442.05,72.19Z"/><path class="cls-2" d="M444.31,81.86c-1.17-5.63-7.29-8-10.08-4a20.89,20.89,0,0,0-2.46,5.06c-2,5.73-6.93,17.26-11.85,28.45A328.92,328.92,0,0,1,389,97.22a15.33,15.33,0,0,1-1.63-5.91c0-3.64-2.71.37-3,3.08,0,0-9.92-5.42-10.6-4.76s5.45,4.8,6.28,5.41c0,0-2.08,2.12-2,4.18.07,1.63,2.58,2.91,5.67,3.27h0c9,9.38,20.87,16.79,30.52,21.6,1,.49,2,1,2.92,1.41,5.15,2.4,10.46.8,13.21-3.89,1-1.72,1.95-3.45,2.84-5.17a165.55,165.55,0,0,0,10.41-26.16A16.32,16.32,0,0,0,444.31,81.86Z"/><path class="cls-6" d="M432.69,78.33c-3.62,4.11-8,12-12.21,27,0,0-11.36-2.46-16.8-6.72,0,0-12,18-11.94,22,0,0,28.67,8.65,34.39,6.51s21-39.29,20.37-42.35C446.33,84,446.21,83,446,82A7.66,7.66,0,0,0,432.69,78.33Z"/><path class="cls-4" d="M430.26,88.17s-.29,22.28,3.57,28.26l.57-1S430.59,96.86,430.26,88.17Z"/><polygon class="cls-4" points="395.18 112.44 400.81 103.07 396.99 101.23 395.18 112.44"/><path class="cls-2" d="M482.11,114.39c-.19-2-.43-4-.71-5.86a165.1,165.1,0,0,0-6.86-27.31A16.38,16.38,0,0,0,470.15,74c-4.25-3.88-10.61-2.23-10.53,2.64a21.32,21.32,0,0,0,1,5.54c1.71,5.83,4.47,18.06,7,30a325.28,325.28,0,0,1-33.31,6.59,15.55,15.55,0,0,1-4.78-3.84c-2.11-3-2,1.88-.64,4.26,0,0-11.22,1.4-11.38,2.34s7.23.71,8.26.72c0,0-.45,2.93.83,4.54,1,1.28,3.8.85,6.52-.66h0c12.78,2.35,26.75,1.41,37.38-.32,1.09-.18,2.15-.37,3.2-.57C479.25,124.2,482.63,119.8,482.11,114.39Z"/><path class="cls-6" d="M457.39,79.3c-.21,5.47,1.44,14.34,7.64,28.66,0,0-10.36,5.28-17.27,5.42,0,0,2,21.54,4.67,24.62,0,0,27.69-11.43,30.77-16.7s-8.57-43.72-11-45.69c-.67-.55-1.37-1.22-2.15-1.88A7.66,7.66,0,0,0,457.39,79.3Z"/><path class="cls-4" d="M448,116.52l-.72-3.44,17.16-5.38c-1.25-2.48-6.79-13.93-6.79-20.82h.88c0,7.38,6.85,20.75,6.92,20.88l.24.47-17.38,5.45.55,2.66Z"/></g></g></svg>