<svg xmlns="http://www.w3.org/2000/svg" viewBox="0 0 699.3 290.51"><defs><style>.cls-1,.cls-5{fill:#b9cadb;}.cls-1{opacity:0.3;}.cls-2{fill:#e39679;}.cls-3{fill:#f8e5dd;}.cls-4{fill:#3d1525;}.cls-6{fill:#6975bb;}.cls-7{fill:#edc478;}.cls-8{fill:#fff;}.cls-9{fill:#e2e2e2;}.cls-10{fill:#b54142;}.cls-11{fill:#e08766;}.cls-12{fill:#742509;}</style></defs><title>Asset 7</title><g id="Layer_2" data-name="Layer 2"><g id="OBJECTS"><path class="cls-1" d="M678,274.67c0,4.11-68.71,8.5-173.27,8.82-34.17.1-72.39-3.68-113-3.5-15.44.06-36.71,5.5-52.74,5.5-12,0-24.34-3.92-36.51-2.75-16.1,1.53-31.88,8.21-45.91,7.75-22.92-.77-40.7-8.16-62.46-8.5-18-.29-39.14,5.62-55.13,5.25-19-.45-43.8-9.17-59.5-9.73C26,275.6,0,277.43,0,274.67c0-6,151.78-10.82,339-10.82S678,268.69,678,274.67Z"/><path class="cls-2" d="M306.87,165.38C295.6,155,269.88,133,242,120.87c0,0-10.39,8.68-13.93,20.82a18.6,18.6,0,0,0,10.17,22.1,204,204,0,0,0,31.65,11.46c1.52.4,3.05.78,4.6,1.14a48.53,48.53,0,0,1,8.38,2.94c.39.19,1.9.73,1.61,1.42-3,7.13-24,46.88-25.95,50.58l-.06,0a17.88,17.88,0,0,0-5.65,5.1,2.22,2.22,0,0,0,.31,2.88l21.48,20a1.1,1.1,0,0,0,.91.3,1.6,1.6,0,0,0,1.53-1.42,1.16,1.16,0,0,0-.5-1c-5.71-4.08-8.89-13-8.44-15.14,4.36-6,29.1-40.43,41.06-63.28A11.1,11.1,0,0,0,306.87,165.38Z"/><path class="cls-3" d="M277.39,260.23a1,1,0,0,1-1.42.1l-24.29-20.6a2.75,2.75,0,0,1-.89-2.77,3,3,0,0,1,.37-.85,2.9,2.9,0,0,1,.69-.71l7.88-6.33,10.39,11.61-1.28,1.76s-2,3.83,4.81,9.2c4.07,3.24,4.44,6,4.09,7.73a3.09,3.09,0,0,1-.12.46A.88.88,0,0,1,277.39,260.23Z"/><path class="cls-4" d="M277.39,260.23,250.79,237a3,3,0,0,1,.37-.85l26.58,23.26a3.09,3.09,0,0,1-.12.46A.88.88,0,0,1,277.39,260.23Z"/><polygon class="cls-4" points="264.39 220.21 262.65 223.53 276.75 229.82 264.39 220.21"/><path class="cls-5" d="M232.45,161.34l44.61,22.19L263,219.13l15.82,12.31L310,178.89a15.82,15.82,0,0,0-5.3-21.54l-48.11-29.63Z"/><polygon class="cls-4" points="240.17 164.65 244.9 152.09 252.78 171.45 240.17 164.65"/><path class="cls-4" d="M269.47,217.13l-.82-.33,1.66-4.07.82.33Zm3.32-8.14-.82-.33,1.66-4.07.81.33Zm3.31-8.14-.81-.33,1.66-4.07.81.33Zm3.32-8.14-.81-.33,1.66-4.07.81.33Zm3.32-8.14-.81-.33,1.65-4.07.82.33Zm3.32-8.14-.82-.33L286.9,172l.82.33Zm-1.81-6.31-3.87-2.1.42-.77,3.87,2.1Zm-7.73-4.2-3.86-2.1.42-.77,3.86,2.1Zm-7.72-4.2-3.86-2.1.42-.77,3.86,2.1Zm-7.72-4.2-3.86-2.1.42-.77,3.86,2.1Zm-7.72-4.2-3.87-2.1.42-.77,3.86,2.1Z"/><path class="cls-2" d="M229.75,119.71l-12.19,3.7L176.12,270c-1.71,1-10.2,5.32-17,4.25a1.19,1.19,0,0,0-1.13.41,1.65,1.65,0,0,0,.09,2.16,1.18,1.18,0,0,0,.89.44l30.33.82a2.28,2.28,0,0,0,2.32-1.89c.23-1.32-1.44-5-2.14-7.8,1.39-3.62,38.55-95.06,47.62-114.83S229.75,119.71,229.75,119.71Z"/><path class="cls-3" d="M156.49,276.17a1,1,0,0,0,1,1.05l31.8,1.75a2.8,2.8,0,0,0,2.87-2.28,3,3,0,0,0,0-1l-1.42-10.35L175.21,267l-.28,2.16s-1.21,4.13-9.82,3.37c-5.18-.44-7.37,1.33-8.28,2.81-.09.14-.17.28-.24.41A.92.92,0,0,0,156.49,276.17Z"/><path class="cls-4" d="M156.49,276.17l35.31,1.39a2.74,2.74,0,0,0,.32-.87l-35.29-1.38c-.09.14-.17.28-.24.41A.92.92,0,0,0,156.49,276.17Z"/><polygon class="cls-4" points="180.66 253.9 179.4 258.37 194.13 256.87 180.66 253.9"/><polygon class="cls-5" points="214.79 128.21 256.58 127.72 198.73 257.88 177.44 253.19 214.79 128.21"/><rect class="cls-4" x="141.12" y="192.12" width="116.3" height="0.88" transform="translate(-43.21 326.68) rotate(-72.96)"/><path class="cls-2" d="M261.73,38.15c-1.48-5.91-11.53-9.4-19.51-4-3.72,2.49-5.08,7.67-5.49,12.51a2.46,2.46,0,0,0-.41-.24,3,3,0,0,0-3.64,1.7,4,4,0,0,0,.09,3.36,5,5,0,0,0,2,2.18,6.11,6.11,0,0,0,1.93.44,14.63,14.63,0,0,0,3.77,8.77,13.23,13.23,0,0,0,10.82,4.24c3.2-.25,8.06-1.67,9.61-4.76a8,8,0,0,0,.67-2.6C262.54,52.89,263.42,44.91,261.73,38.15Z"/><path class="cls-4" d="M257.62,49.12c-.14,1,.17,1.94.68,2s1-.73,1.16-1.77-.17-1.94-.68-2S257.75,48.07,257.62,49.12Z"/><path class="cls-4" d="M251.46,48.34c-.13,1-.65,1.84-1.16,1.77s-.82-1-.69-2,.66-1.84,1.17-1.78S251.59,47.29,251.46,48.34Z"/><path class="cls-4" d="M257.29,54.89a4.64,4.64,0,0,1-1.6,1.41,3.43,3.43,0,0,1-4.12-.55,6.06,6.06,0,0,1-.71-.81c-.18-.31-.36-.61-.51-.93.26.25.49.5.72.75a9.26,9.26,0,0,0,.78.65,3.87,3.87,0,0,0,1.76.75,3.79,3.79,0,0,0,1.9-.26A8.12,8.12,0,0,0,257.29,54.89Z"/><path class="cls-4" d="M254.37,57.93a1.52,1.52,0,0,1-1,.2,1.55,1.55,0,0,1-.93-.45,4.45,4.45,0,0,0,1,.23A4.07,4.07,0,0,0,254.37,57.93Z"/><path class="cls-4" d="M253.06,41.88a2.22,2.22,0,0,0-1.37-.72,4.49,4.49,0,0,0-1.55,0,3.74,3.74,0,0,0-1.44.6,3.69,3.69,0,0,0-1.06,1.06.44.44,0,0,0,.61.62l.05,0a5.2,5.2,0,0,1,1-.6,3.1,3.1,0,0,1,1.06-.29,3.7,3.7,0,0,1,1.1,0,4.14,4.14,0,0,0,1.18.08h.12a.46.46,0,0,0,.41-.52A.41.41,0,0,0,253.06,41.88Z"/><path class="cls-4" d="M257.68,42.46a2.21,2.21,0,0,1,1.5-.35,4.42,4.42,0,0,1,1.49.41,3.62,3.62,0,0,1,1.25.94,3.79,3.79,0,0,1,.77,1.29.45.45,0,0,1-.25.58.46.46,0,0,1-.51-.13l0,0a6,6,0,0,0-.82-.84,3.16,3.16,0,0,0-1-.54,3.54,3.54,0,0,0-1.08-.24,4.4,4.4,0,0,1-1.15-.22l-.12,0a.47.47,0,0,1-.27-.6A.44.44,0,0,1,257.68,42.46Z"/><path class="cls-4" d="M256.77,46.07c.07.74.1,1.46.15,2.18s.09,1.43.2,2.12c0,.17.06.34.1.5a1.89,1.89,0,0,1,.08.63,1.26,1.26,0,0,1-.8,1,1.51,1.51,0,0,1-1.22-.09,2.73,2.73,0,0,1-.88-.69c.63.34,1.38.63,1.89.33a.7.7,0,0,0,.41-.63,1.24,1.24,0,0,0-.08-.44,5.41,5.41,0,0,1-.12-.55,10.35,10.35,0,0,1-.07-2.22A11.5,11.5,0,0,1,256.77,46.07Z"/><path class="cls-4" d="M233.75,48.08a7.54,7.54,0,0,1,2.08.83,6,6,0,0,1,1.66,1.38l.37-.46a6.79,6.79,0,0,0-1.77-.69,2.7,2.7,0,0,0-1,0,1.15,1.15,0,0,0-.89.72,1.75,1.75,0,0,0,.5,1.91,2.55,2.55,0,0,0,1.72.7,2.75,2.75,0,0,1-1.45-1,1.36,1.36,0,0,1-.26-1.44c.16-.42.72-.41,1.27-.28a8.15,8.15,0,0,1,1.62.61h0a.29.29,0,0,0,.4-.13.3.3,0,0,0,0-.34,5.63,5.63,0,0,0-4.2-1.82Z"/><path class="cls-4" d="M245.44,37.91a2.89,2.89,0,0,0-1.95,2.47c-.26,2.77-1.05,8.84-3.07,10.14-2.64,1.71-2.63-5.38-6.4-3.9a5.85,5.85,0,0,0-1.45,1.71s-3.68-8.3-.22-12.48,6.2-1.7,6.2-1.7,9.14-10.49,21.55-7.58c0,0,3.56,1.13.7,4.33,0,0,6.37.81,3.3,7.52,0,0,.52,3-1.55,4.85,0,0-.08-2.4-1-3.13S250.48,36.23,245.44,37.91Z"/><path class="cls-2" d="M296.87,65c-.95-2.85-2-5.75-3.23-8.68a100.29,100.29,0,0,0-17.33-28.62,16,16,0,0,0,4.26-11.36,1.31,1.31,0,0,0-2.26-.89,21,21,0,0,0-4.94,8.27s.63-5.23-.34-6.43-6.08,9-2,14.2l.15-.07c1.25,4.37,5.12,17.93,9,32.06-10.12,5.32-19.65,10.2-24.8,12.48a26.06,26.06,0,0,0-5.63,3.25,6.81,6.81,0,0,0,2.77,12A15.35,15.35,0,0,0,261.38,90a204.91,204.91,0,0,0,23-10.73c3.11-1.72,6.31-3.63,9.54-5.74A7.38,7.38,0,0,0,296.87,65Z"/><polygon class="cls-4" points="276.12 48.81 286.38 41.59 287.89 44.24 276.12 48.81"/><path class="cls-6" d="M296.42,75.07,256.94,93a8,8,0,0,1-3.36.73A8.13,8.13,0,0,1,245.47,85l.08-1.19a8.15,8.15,0,0,1,4.34-6.65L277.5,62.69l.31-.16.45-.24-.1-.36.36.07-.63-1-3.17-11.59,14.5-5.63L299.75,66A6.78,6.78,0,0,1,296.42,75.07Z"/><polygon class="cls-4" points="281.11 62.52 280.93 63.38 279.13 63.02 277.96 62.79 277.5 62.69 277.81 62.53 278.26 62.3 278.16 61.92 278.52 62 281.11 62.52"/><polygon class="cls-4" points="279.79 64.12 279.03 64.57 277.96 62.79 277.81 62.53 278.26 62.3 278.16 61.92 278.52 62 279.13 63.02 279.79 64.12"/><path class="cls-6" d="M250.35,70.94l5.5,1.28-.48,3.71,7.7,6.5a4.43,4.43,0,0,1,1.53,3.93l-5.26,41.85L244,125.44Z"/><path class="cls-2" d="M258.86,82.77c-3.32-2.61-5.69-3.72-7.18-6.07-.1-.72-.34-2.5-.43-4.48a20.64,20.64,0,0,1,.28-5.18h0a4.43,4.43,0,0,1,.74-1.78L236.69,53.7a1,1,0,0,1,0,.17c.07,1.59.55,14.06-2.34,20.28a12.43,12.43,0,0,1-4.87.47,8.65,8.65,0,0,0-5.89,1.52c-2.37,1.71-4.65,5.21-4.33,12.3.62,14.2,0,30.92-2,39.28l38.17-.21s-.53-13,1.8-23C259.38,95.43,263.92,86.75,258.86,82.77Z"/><path class="cls-4" d="M251.25,72.22c-9.27,0-12.51-11.47-12.63-11.9a10.9,10.9,0,0,0,5.92,5.49A17.91,17.91,0,0,0,251.47,67h.06A20.64,20.64,0,0,0,251.25,72.22Z"/><path class="cls-7" d="M234.36,74.15,241,84.31l10.66-7.61s.88.86,3,2.53,9.37,4,6.52,12.66-5.56,32.53-5.56,32.53H216.26l3-36.88S218,74.44,234.36,74.15Z"/><polygon class="cls-4" points="240.23 87.14 238.25 83.88 239 83.42 240.5 85.88 251.28 78.35 251.78 79.07 240.23 87.14"/><rect class="cls-4" x="242.43" y="104.36" width="7.84" height="0.88" transform="translate(-18.65 142.87) rotate(-31.22)"/><rect class="cls-4" x="241.8" y="107.27" width="12.17" height="0.88" transform="translate(-15.4 168.78) rotate(-36.54)"/><path class="cls-2" d="M229.92,75a26.45,26.45,0,0,0-6.46-.73c-5.64,0-16.33-.69-27.73-1.52C193.18,55.09,191,38.23,191,38.23h-.11c.07-6.33-8.94-11.89-9.14-10.42s3,5.67,3,5.67A20.72,20.72,0,0,0,176.25,29a1.32,1.32,0,0,0-1.48,1.93,16,16,0,0,0,10.15,7.63,100.28,100.28,0,0,0-4.4,33c.06,3.17.25,6.26.51,9.25a7.39,7.39,0,0,0,6.09,6.66c3.8.65,7.51,1.12,11,1.45a206.83,206.83,0,0,0,25.4.64,15.53,15.53,0,0,0,8.63-2.4A6.82,6.82,0,0,0,229.92,75Z"/><polygon class="cls-4" points="193.5 56.99 180.87 59.25 181.5 53.7 193.5 56.99"/><path class="cls-6" d="M239.91,71.59l-.16,1-.16,1L231,126l-.14.87-.62,3.82-17.13-3.45.27-1.93.12-.87L218.06,91s-21.81-1.35-32.45-2.39a6.12,6.12,0,0,1-5.5-5.64L178.39,59.7l16.48-3,1.65,13.64.16,1.34.06.49h.8l34.81.54.43-4.28.1-1,.13-1.21Z"/><polygon class="cls-4" points="218.06 90.96 224.21 89.66 216.63 101.44 218.06 90.96"/><polygon class="cls-4" points="197.54 72.23 197.26 72.39 196.35 72.95 193.73 74.53 193.27 73.78 196.42 71.89 196.68 71.73 196.74 72.22 197.28 72.23 197.54 72.23"/><polygon class="cls-4" points="197.28 72.23 197.26 72.39 197.07 75.33 196.19 75.27 196.35 72.95 196.42 71.89 196.52 70.39 196.68 71.73 196.74 72.22 197.28 72.23"/><polygon class="cls-4" points="239.75 72.58 239.59 73.56 232.78 68.49 232.88 67.48 239.75 72.58"/><polygon class="cls-4" points="231 126.03 230.86 126.9 213.38 125.34 213.5 124.47 231 126.03"/><path class="cls-2" d="M641.75,73.35c-2.81-5-9.37-5.46-10.83-.8a21.45,21.45,0,0,0-.83,5.56c-.21,6.07-1.44,18.54-2.77,30.69-12.75-.84-26-1.89-32-2.37a21.3,21.3,0,0,0-6.35-5.7c-1-.61-1.59-.2-1.88.17a.42.42,0,0,0,.1.59c.93.65,2.5,2.21,2.34,3.05s-8.2-2.29-8.78-1.14c-.23.46,5.42,2.93,5.42,2.93s-6.48-1.42-6.31-.51,5.75,3,5.75,3-6.59-.58-6.06.28,5.58,2.1,5.58,2.1c-2.41.07-3.38.47-3.77.78a.29.29,0,0,0,.09.5c2.78,1,9.51.15,12-.22a105.93,105.93,0,0,0,32.31,10.42c1.09.17,2.16.33,3.21.47,5.63.75,10.22-2.37,11.44-7.67q.66-2.92,1.16-5.79a165,165,0,0,0,2.09-28.07A16.4,16.4,0,0,0,641.75,73.35Z"/><path class="cls-7" d="M644.12,100.61l-17.53-.14,2.5-27.88a8.43,8.43,0,0,1,6.31-7.52,9.88,9.88,0,0,1,2.86-.25c5,.33,6.66,4,7,7.84S644.12,100.61,644.12,100.61Z"/><polygon class="cls-4" points="637.54 100.61 639.37 105.75 628.41 100.61 637.54 100.61"/><path class="cls-2" d="M652.66,32a3,3,0,0,0-3.82-1.24,2.52,2.52,0,0,0-.38.28c-1-4.75-3-9.74-6.94-11.76-8.57-4.36-18.13.31-18.89,6.35-.87,6.91,1,14.74,2.7,21.38a8.2,8.2,0,0,0,1,2.5c1.91,2.89,6.91,3.71,10.11,3.58a13.25,13.25,0,0,0,10.24-5.5,14.63,14.63,0,0,0,2.69-9.16,6.25,6.25,0,0,0,1.86-.66A5,5,0,0,0,653,35.31,4,4,0,0,0,652.66,32Z"/><path class="cls-4" d="M628,36c.25,1,.05,2-.44,2.07s-1.12-.6-1.37-1.62-.06-2,.44-2.08S627.77,35,628,36Z"/><path class="cls-4" d="M634,34.47c.26,1,.87,1.75,1.37,1.62s.7-1.05.44-2.07-.87-1.75-1.37-1.63S633.79,33.45,634,34.47Z"/><path class="cls-4" d="M632.31,44.34a1.51,1.51,0,0,0,1,.08,1.59,1.59,0,0,0,.87-.56,5,5,0,0,1-.93.35A4.36,4.36,0,0,1,632.31,44.34Z"/><path class="cls-8" d="M635.23,39.43a4.33,4.33,0,0,1-.09,1,3,3,0,0,1-.24.82,3.22,3.22,0,0,1-2.64,2.1,3.07,3.07,0,0,1-2.73-1.26,4.91,4.91,0,0,1-.5-.64,9.15,9.15,0,0,1-.54-1S631.3,41.4,635.23,39.43Z"/><path class="cls-9" d="M629.74,41.89l-.21.24a4.91,4.91,0,0,1-.5-.64A2.76,2.76,0,0,0,629.74,41.89Z"/><path class="cls-9" d="M635.14,40.47a3,3,0,0,1-.24.82,2.2,2.2,0,0,0-.31-.18A3.37,3.37,0,0,0,635.14,40.47Z"/><path class="cls-4" d="M631.69,28.24a2.21,2.21,0,0,1,1.27-.87,4.67,4.67,0,0,1,1.54-.16,3.71,3.71,0,0,1,1.5.43,4.17,4.17,0,0,1,1.19.92.45.45,0,0,1,0,.63.44.44,0,0,1-.52.07l0,0a5.33,5.33,0,0,0-1.07-.48,3.08,3.08,0,0,0-1.08-.16,4.12,4.12,0,0,0-1.1.16,3.79,3.79,0,0,1-1.15.22h-.12a.45.45,0,0,1-.47-.46A.5.5,0,0,1,631.69,28.24Z"/><path class="cls-4" d="M627.17,29.37a2.21,2.21,0,0,0-1.53-.16,4.36,4.36,0,0,0-1.44.58,3.72,3.72,0,0,0-1.12,1.08,4.09,4.09,0,0,0-.61,1.37.45.45,0,0,0,.32.55.44.44,0,0,0,.48-.18l0,0a5.73,5.73,0,0,1,.72-.93,3.09,3.09,0,0,1,.88-.65,3.68,3.68,0,0,1,1-.37,4.58,4.58,0,0,0,1.13-.35l.1-.06a.47.47,0,0,0,.2-.63A.55.55,0,0,0,627.17,29.37Z"/><path class="cls-4" d="M628.5,32.85c0,.74.07,1.46.12,2.18s.08,1.43,0,2.13c0,.17,0,.34,0,.51a1.94,1.94,0,0,0,0,.64,1.22,1.22,0,0,0,.92.93,1.48,1.48,0,0,0,1.19-.23,2.87,2.87,0,0,0,.8-.79c-.59.41-1.3.79-1.84.56a.73.73,0,0,1-.49-.58,1.5,1.5,0,0,1,0-.45,5.51,5.51,0,0,0,.06-.57,10.16,10.16,0,0,0-.2-2.21A11.35,11.35,0,0,0,628.5,32.85Z"/><path class="cls-4" d="M651.81,32.59a7.87,7.87,0,0,0-2.08.83,6,6,0,0,0-1.66,1.39l-.38-.47a7,7,0,0,1,1.78-.69,2.7,2.7,0,0,1,1,0,1.19,1.19,0,0,1,.89.72,1.73,1.73,0,0,1-.51,1.91,2.52,2.52,0,0,1-1.72.7,2.72,2.72,0,0,0,1.46-.94,1.37,1.37,0,0,0,.26-1.45c-.17-.41-.72-.4-1.27-.28a7.93,7.93,0,0,0-1.62.61h0a.3.3,0,0,1-.41-.13.3.3,0,0,1,.05-.34A5.54,5.54,0,0,1,649.54,33,5.78,5.78,0,0,1,651.81,32.59Z"/><path class="cls-4" d="M639,22.35s-1.95,5.33,3.18,7.55c0,0,1,5.36,3.58,4.34A4,4,0,0,0,648.46,31a3,3,0,0,1,4.2,1s4.22-5.48-2-10.21c0,0,.91-6.94-6.13-5.43,0,0-5.67-7.92-12-4.51a1.71,1.71,0,0,0,0,2s-9.21-4.38-11.68,2a1.92,1.92,0,0,0,1,1.94s-6.44,5.26-2.9,8.88c0,0-.81,5.42,3.73,6.6l-.09-5.42a24.35,24.35,0,0,0,7.5-3.32S632.61,28.55,639,22.35Z"/><path class="cls-2" d="M655.73,250.36h0L649,185.85l29-54.16s-1.82-14.42-6.82-17.38a77.88,77.88,0,0,0-8.74-4.47c-3.11,4.31-6.54,9.63-10.29,15.74a153,153,0,0,0-7.77,15.78c-.76,1.72-1.55,3.53-2.36,5.41-4.11,9.57-8.74,21-13.26,32.52a17.33,17.33,0,0,0-.76,10.22c1.54,6.65,4.19,18.05,5.72,24.47,4.73,19.66,11.75,44,12.83,47.94-1.36,3.21-4.57,9.65-9.36,12.33a1.14,1.14,0,0,0-.61,1,1.59,1.59,0,0,0,1.36,1.58,1.1,1.1,0,0,0,.94-.19l23.56-17.49a2.22,2.22,0,0,0,.63-2.83C662.42,255.06,658.24,252.08,655.73,250.36Z"/><path class="cls-5" d="M636,278.59a1,1,0,0,0,1.41.17l25.37-19.25a2.73,2.73,0,0,0,1-2.72,2.54,2.54,0,0,0-.32-.87,2.7,2.7,0,0,0-.65-.75l-7-6.74-11.54,11,1.19,1.83s1.75,3.93-5.31,8.93c-4.23,3-4.76,5.77-4.5,7.5,0,.16.06.32.1.46A1,1,0,0,0,636,278.59Z"/><path class="cls-4" d="M636,278.59l27.81-21.8a2.54,2.54,0,0,0-.32-.87l-27.8,21.79c0,.16.06.32.1.46A1,1,0,0,0,636,278.59Z"/><path class="cls-10" d="M678.08,135.67l-27.29,50.4,5.41,54.6.08.91.45,4.48-14.5,7.69-1.48-5.94-.21-.86-13.69-55.06a31.21,31.21,0,0,1,1.33-19.12l6.05-15.07,18.57-46.23,5.72-1.49h0l18.13-4.71,3.49,13.48A23.22,23.22,0,0,1,678.08,135.67Z"/><polygon class="cls-4" points="652.37 240.21 641.99 185.18 642.06 185.05 674.14 123.03 674.92 123.43 642.91 185.32 653.23 240.05 652.37 240.21"/><polygon class="cls-4" points="656.28 241.58 640.75 247.81 640.54 246.95 656.2 240.68 656.28 241.58"/><path class="cls-2" d="M662.35,132.3a41.6,41.6,0,0,0-9.24-20.5c-29.26,8.21-59.46,24.47-72,33.23A11.08,11.08,0,0,0,577,157.89c7.3,20.3,31.39,67.45,31.39,67.45s-4.67,10.15-11.51,13.1a1.13,1.13,0,0,0-.71.92,1.6,1.6,0,0,0,1.19,1.71,1.12,1.12,0,0,0,1-.1l25.23-15a2.21,2.21,0,0,0,.92-2.75,18.05,18.05,0,0,0-4.43-6.18c-1.11-3-16.84-46.21-18.87-53.76-.19-.73,1.38-1.06,1.79-1.19a48.44,48.44,0,0,1,8.7-1.78c1.58-.14,3.15-.31,4.71-.5a203.52,203.52,0,0,0,32.92-7A18.59,18.59,0,0,0,662.35,132.3Z"/><path class="cls-5" d="M595.47,242.16a1,1,0,0,0,1.39.32l27.3-16.4a2.73,2.73,0,0,0,1.32-2.59,3,3,0,0,0-.22-.9,3.14,3.14,0,0,0-.57-.81l-5.25-7.22L605.8,224l1,1.94s1.32,4.09-6.23,8.31c-4.54,2.54-5.36,5.22-5.29,7a3.54,3.54,0,0,0,0,.48A.9.9,0,0,0,595.47,242.16Z"/><path class="cls-4" d="M595.47,242.16l30-18.67a3,3,0,0,0-.22-.9l-30,18.66a3.54,3.54,0,0,0,0,.48A.9.9,0,0,0,595.47,242.16Z"/><path class="cls-10" d="M667,137.27a27,27,0,0,1-20.74,18.21l-12,2.22-30.9,5.73,14.59,43.4.28.85,1.23,3.66L604,220.79l-2.69-5.45-.4-.8-25.22-51.08A16.82,16.82,0,0,1,583,141.09l60.69-28.91c6.22-1.66,11.09-2.33,14.87-2.2h0C674.59,110.5,670.93,125.19,667,137.27Z"/><polygon class="cls-4" points="634.01 157.75 647.55 134.46 623.33 150.14 634.01 157.75"/><path class="cls-4" d="M612.8,206.86l-.35-1.13.84-.26.35,1.13Zm-1.66-5.32-1.31-4.2.83-.26,1.32,4.2Zm-2.63-8.39L607.2,189l.84-.26,1.31,4.2Zm-2.62-8.39-1.31-4.2.84-.26,1.31,4.2Zm-2.62-8.39-1.32-4.2.84-.26,1.32,4.2ZM600.64,168l-1.31-4.2.84-.26,1.31,4.2ZM598,159.59l-1.15-3.69,1.14-.57.39.78-.47.24.93,3Zm4.3-5.46-.39-.79,3.92-2,.4.78Zm7.85-4-.4-.78,3.92-2,.4.79Zm7.84-4-.39-.78,3.92-2,.4.78Zm7.85-4-.4-.79,3.92-2,.4.78Zm7.84-4-.4-.79,3.93-2,.39.79Zm7.85-4-.4-.78,3.92-2,.4.79Z"/><polygon class="cls-4" points="618.2 207.68 601.3 215.34 600.9 214.54 617.92 206.83 618.2 207.68"/><path class="cls-2" d="M670.8,70.44c-.54-7.08-3.22-10.28-5.77-11.7a8.69,8.69,0,0,0-6-.81,12.39,12.39,0,0,1-4.89.13c-3.62-5.83-4.63-18.27-4.75-19.86,0-.06,0-.11,0-.17L635.26,51.36a4.47,4.47,0,0,1,1,1.68h0a20.77,20.77,0,0,1,.9,5.11c.14,2,.12,3.77.1,4.51-1.19,2.51-3.42,3.89-6.4,6.88-4.55,4.55,1,12.63,4.2,21.44,3.5,9.65,7.21,23,7.21,23l33.6-8.41C672.86,97.47,671.88,84.61,670.8,70.44Z"/><path class="cls-4" d="M637.11,58.15c9.2-1.1,11-12.88,11.11-13.32A10.85,10.85,0,0,1,643,51a17.94,17.94,0,0,1-6.73,2h-.06A20.77,20.77,0,0,1,637.11,58.15Z"/><path class="cls-5" d="M654.26,57.82s7.8-2.51,13.17,1.6S672.7,83,672.7,83l4,22.27-34.44,8.67s-8.19-24-10.68-28.49-5.13-13.87-.89-17.54,6.56-5.25,6.56-5.25S647.52,69.31,654.26,57.82Z"/><rect class="cls-4" x="645.45" y="88.06" width="13.35" height="0.88" transform="translate(138.52 499.98) rotate(-46.43)"/><rect class="cls-4" x="643.04" y="92.23" width="22.57" height="0.88" transform="translate(186.3 559.24) rotate(-52.97)"/><path class="cls-2" d="M696.43,82.35q-2.08-2.16-4.2-4.15A165.23,165.23,0,0,0,669.9,61.05,16.4,16.4,0,0,0,662,58.11c-5.74-.4-9.71,4.84-6.62,8.61a21.42,21.42,0,0,0,4.19,3.75c5,3.51,14.72,11.38,24.14,19.17C676.05,99.74,668,110.17,664.23,115a21.2,21.2,0,0,0-9.08,1.65c-1.1.45-1.11,1.16-1,1.61a.4.4,0,0,0,.53.27c1.07-.35,3.26-.68,3.84-.05s-6.74,5.2-6.17,6.35c.23.47,5.59-2.58,5.59-2.58s-5,4.34-4.17,4.75,5.81-2.84,5.81-2.84-4.41,4.94-3.4,5,5-3.22,5-3.22c-1.39,2-1.64,3-1.63,3.48a.29.29,0,0,0,.46.24c2.26-1.5,5.26-6.61,6.67-9.16a104.8,104.8,0,0,0,27.68-22c.74-.81,1.46-1.62,2.16-2.42C700.28,91.82,700.19,86.28,696.43,82.35Z"/><path class="cls-7" d="M680.47,87l9.86-14.49L666,58.72a8.44,8.44,0,0,0-9.77.9,9.83,9.83,0,0,0-1.84,2.21c-2.6,4.34-.53,7.74,2.47,10.19S680.47,87,680.47,87Z"/><polygon class="cls-4" points="680.47 87.04 688.67 75 692.23 78.2 680.47 87.04"/><path class="cls-2" d="M171.49,19.05c.66-6-6.61-12.69-7.07-11.33s1.91,6.15,1.91,6.15a20.92,20.92,0,0,0-7.5-6A1.31,1.31,0,0,0,157,9.45a16,16,0,0,0,8.32,9.36c-2.16,4.4-9.26,18.83-16.45,33-14.62,3.71-30.45,7.6-37.78,8.89a25.57,25.57,0,0,0-6.24,1.82,6.8,6.8,0,0,0-.19,12.36,15.53,15.53,0,0,0,8.92.91,206.14,206.14,0,0,0,25.51-5.09c3.62-1,7.4-2.17,11.25-3.57A25.07,25.07,0,0,0,165.42,52c.57-1.6,1.12-3.23,1.63-4.89a96.42,96.42,0,0,0,4.6-28Z"/><path class="cls-10" d="M143.7,52.3S99,55.05,99.56,67.16s18.07,8.92,22.83,8.23,26-6.16,26-6.16Z"/><path class="cls-3" d="M137.74,52.61a.23.23,0,0,1,.18-.28c1.07-.15,5.36-.75,6.22-.48s4.46,15.71,4.89,17.6a.22.22,0,0,1-.15.25,32.5,32.5,0,0,1-5.64,1.47.22.22,0,0,1-.19-.35l2.24-3.45a.22.22,0,0,0-.15-.34l-3.65-.59a.21.21,0,0,1-.17-.16Z"/><path class="cls-4" d="M144.7,52.86l3.93,14.87a41.6,41.6,0,0,0,4.11-1.62Z"/><path class="cls-4" d="M123,75.29s-.37-5.85-1.48-8.86c0,0,4.64,4.9,5,8.15Z"/><path class="cls-2" d="M118.05,61.06c-3.56-2.28-6-3.14-7.74-5.34-.17-.71-.58-2.46-.87-4.42a21,21,0,0,1-.22-5.18h0a4.54,4.54,0,0,1,.56-1.84l-16.62-10c0,.06,0,.11,0,.16.23,1.58,1.91,13.95-.36,20.42a12.23,12.23,0,0,1-4.8.93,8.64,8.64,0,0,0-5.72,2.09c-2.18,1.94-4.12,5.63-3.11,12.67,2,14.07,7.61,26.57,6.45,35.07L114,106.81s5-14.06,7.34-23.4S123.47,64.53,118.05,61.06Z"/><path class="cls-4" d="M109.44,51.3c-9.22.9-13.56-10.2-13.72-10.62a10.86,10.86,0,0,0,6.42,4.89,18.08,18.08,0,0,0,7,.56h.06A21,21,0,0,0,109.44,51.3Z"/><path class="cls-10" d="M92.82,54.87s12.56,9.89,17.49.85c0,0,11,5.25,12.49,9.65s0,19.12-6.81,38.89H86S76,66.68,80.59,58.77c0,0,2.25-3.37,5.64-3.22A25.23,25.23,0,0,0,92.82,54.87Z"/><path class="cls-3" d="M96.28,57.11s-3.66,7.14-.52,8.88c3.95,2.2,9.07-4.43,9.24-6.52C105,59.47,101.34,60,96.28,57.11Z"/><path class="cls-3" d="M105,59.47s3.21,6.78,5.63,5.6,2.51-6.54-.32-9.35C110.31,55.72,108.41,59.18,105,59.47Z"/><path class="cls-4" d="M105,59.47s-3,7.72-8.56,6.81c0,0,6.26,1,8.56-4.51,0,0,2.42,5.7,5.63,3.3C110.63,65.07,107.81,65.61,105,59.47Z"/><rect class="cls-4" x="98.35" y="86.04" width="13.49" height="0.88" transform="translate(-30.57 75.5) rotate(-34.82)"/><rect class="cls-4" x="98.24" y="87.51" width="19.06" height="0.88" transform="translate(-30.74 75.15) rotate(-33.94)"/><path class="cls-2" d="M92,62.42a6.8,6.8,0,0,0-12.29-1.27,25.73,25.73,0,0,0-2.55,6C75,74.25,69.24,89.51,63.82,103.59c-16.81,6.15-34,12.15-35.95,12.85a16,16,0,0,0-8.36-9.54,1.31,1.31,0,0,0-1.82,1.61,20.89,20.89,0,0,0,5.1,8.16s-4.36-2.94-5.87-2.62,5.19,9.49,11.72,8.25v0A96.18,96.18,0,0,0,57,121.06c1.7-.31,3.39-.66,5.05-1a25.05,25.05,0,0,0,16.79-13.15c1.85-3.66,3.47-7.28,4.89-10.75a208.75,208.75,0,0,0,8.08-24.73C92.85,67.5,92.69,64.59,92,62.42Z"/><path class="cls-10" d="M65.06,96.94S74.89,53.2,86.75,55.72,92.68,75,91.25,79.57,81,104.26,81,104.26Z"/><path class="cls-3" d="M66.31,91.1a.22.22,0,0,0-.3.14c-.32,1-1.59,5.17-1.46,6.06s14.81,6.9,16.6,7.62a.21.21,0,0,0,.27-.1,33.25,33.25,0,0,0,2.35-5.34.22.22,0,0,0-.31-.24l-3.77,1.66a.22.22,0,0,1-.31-.2V97a.22.22,0,0,0-.14-.2Z"/><path class="cls-4" d="M83.9,95.72S89,77,89.38,69.54l.05,19.78Z"/><polygon class="cls-4" points="65.87 98.24 65.13 100.17 80.03 104.47 65.87 98.24"/><path class="cls-2" d="M116.57,16.38c-2-5.74-12.39-8.24-19.82-2.14-3.45,2.83-4.31,8.13-4.25,13a2.72,2.72,0,0,0-.43-.19,3,3,0,0,0-3.46,2A4,4,0,0,0,89,32.41a5.09,5.09,0,0,0,2.24,2,6.27,6.27,0,0,0,2,.25A14.65,14.65,0,0,0,97.82,43,13.29,13.29,0,0,0,109,46.16c3.16-.56,7.86-2.44,9.1-5.67a8.21,8.21,0,0,0,.42-2.65c0-.21,0-.42,0-.63.08-2,.14-4.12.12-6.25A45.46,45.46,0,0,0,116.57,16.38Z"/><path class="cls-11" d="M118.55,37.21a3.22,3.22,0,1,1-.64-6.36,3.24,3.24,0,0,1,.76.11C118.69,33.09,118.63,35.2,118.55,37.21Z"/><path class="cls-11" d="M98.55,33.53a3.23,3.23,0,1,0,3.31-3.14A3.22,3.22,0,0,0,98.55,33.53Z"/><path class="cls-4" d="M113.07,27.68c0,1.05.36,1.91.88,1.93s1-.83,1-1.88-.36-1.92-.87-1.93S113.1,26.62,113.07,27.68Z"/><path class="cls-4" d="M116,25.25a2.59,2.59,0,0,1-.65.79,2.24,2.24,0,0,1-1,.48h0a.34.34,0,0,1-.41-.27.33.33,0,0,1,.27-.4h.09a2,2,0,0,0,1.52-.71h0a.11.11,0,0,1,.16,0A.11.11,0,0,1,116,25.25Z"/><path class="cls-4" d="M106.87,27.5c0,1.05-.47,1.9-1,1.88s-.91-.88-.88-1.93.47-1.9,1-1.88S106.9,26.45,106.87,27.5Z"/><path class="cls-4" d="M104.3,24.8a2,2,0,0,0,1.48.8.35.35,0,0,1,0,.69h-.1a2.11,2.11,0,0,1-1-.54,2.63,2.63,0,0,1-.61-.83.12.12,0,0,1,0-.15.14.14,0,0,1,.14,0Z"/><path class="cls-4" d="M113.3,33.45A4.5,4.5,0,0,1,111.85,35a3.52,3.52,0,0,1-2.1.63,3.56,3.56,0,0,1-2-.77,6.92,6.92,0,0,1-.79-.74q-.31-.43-.6-.87c.28.22.54.45.8.67s.54.41.83.57a3.86,3.86,0,0,0,1.83.58,3.76,3.76,0,0,0,1.86-.45A8.18,8.18,0,0,0,113.3,33.45Z"/><path class="cls-4" d="M110.69,36.76a1.52,1.52,0,0,1-1,.31,1.63,1.63,0,0,1-1-.36,4.89,4.89,0,0,0,1,.13A3.67,3.67,0,0,0,110.69,36.76Z"/><path class="cls-12" d="M107.83,20.91a2.25,2.25,0,0,0-1.43-.57,4.48,4.48,0,0,0-1.54.17,3.65,3.65,0,0,0-1.37.74,3.8,3.8,0,0,0-1,1.16.44.44,0,0,0,.16.61.45.45,0,0,0,.52-.05l0,0a5.53,5.53,0,0,1,.94-.71,3.29,3.29,0,0,1,1-.38,3.69,3.69,0,0,1,1.1-.08,4.71,4.71,0,0,0,1.18,0l.12,0a.47.47,0,0,0,.36-.55A.48.48,0,0,0,107.83,20.91Z"/><path class="cls-12" d="M112.48,21a2.26,2.26,0,0,1,1.46-.49,4.47,4.47,0,0,1,1.53.26,3.72,3.72,0,0,1,1.33.82,3.62,3.62,0,0,1,.89,1.21.44.44,0,0,1-.7.52l0,0a5.26,5.26,0,0,0-.9-.76,3.11,3.11,0,0,0-1-.45A4,4,0,0,0,114,22a4,4,0,0,1-1.17-.11l-.12,0a.47.47,0,0,1-.33-.57A.49.49,0,0,1,112.48,21Z"/><path class="cls-4" d="M110.27,24.68c.14.73.24,1.44.36,2.15s.23,1.42.41,2.09c0,.17.09.34.14.5a1.61,1.61,0,0,1,.15.62,1.26,1.26,0,0,1-.7,1.11,1.53,1.53,0,0,1-1.22,0,3,3,0,0,1-1-.6c.66.27,1.44.48,1.92.14a.75.75,0,0,0,.35-.67,1.37,1.37,0,0,0-.13-.42c-.07-.18-.12-.37-.17-.55a9.77,9.77,0,0,1-.29-2.2A11.56,11.56,0,0,1,110.27,24.68Z"/><path class="cls-4" d="M89.74,28.91a7.89,7.89,0,0,1,2.08.84,6,6,0,0,1,1.66,1.38l.38-.46a7,7,0,0,0-1.78-.7,2.52,2.52,0,0,0-1,0,1.14,1.14,0,0,0-.88.71,1.74,1.74,0,0,0,.5,1.91,2.53,2.53,0,0,0,1.72.71,2.71,2.71,0,0,1-1.45-.95,1.34,1.34,0,0,1-.27-1.44c.17-.42.72-.41,1.27-.29a7.49,7.49,0,0,1,1.63.62h0a.32.32,0,0,0,.41-.13.3.3,0,0,0,0-.35A5.43,5.43,0,0,0,92,29.37,5.62,5.62,0,0,0,89.74,28.91Z"/><path class="cls-12" d="M92.5,27.22s3.78,1.22,6-1.41-2.65-8.19.83-9.15,1,7.38,17.8,1.67c0,0,1.72,6.84,1.46,11.28l-.12,8.4a6.92,6.92,0,0,1-4.1,6.23,22.36,22.36,0,0,1-5.26,1.89,30.16,30.16,0,0,0,1.15,9.59l2.79,1.46s13.53-3,17.43-3.51c0,0-1.19-4.11-3.66-6.3s0-5.25.71-7.2-8.66-9.63-7.93-23.59-21.27-13-28.73-1.5c0,0-7.09-2.22-8.33,11.45s-12.3,10-8.08,19.84S66,54.19,76.68,63.79a25.37,25.37,0,0,1,3.65-4.95,10.56,10.56,0,0,1,7.5-3.19,14.26,14.26,0,0,0,5-.78s3-8.41.41-20.24c0,0-3.7-.33-4.57-3.3a3.45,3.45,0,0,1,.94-3.54A2.89,2.89,0,0,1,92.5,27.22Z"/><path class="cls-2" d="M149,178.71c-4.53-11.5-9.16-22.94-13.27-32.52-.81-1.88-1.59-3.69-2.36-5.41A153,153,0,0,0,125.61,125c-3.74-6.11-7.18-11.42-10.28-15.73a76.26,76.26,0,0,0-8.75,4.47c-5,3-6.82,17.37-6.82,17.37l29,54.16-6.7,64.51h0c-2.51,1.72-6.69,4.7-7.36,5.94a2.21,2.21,0,0,0,.64,2.83L138.88,276a1.15,1.15,0,0,0,1,.2,1.6,1.6,0,0,0,1.36-1.58,1.16,1.16,0,0,0-.62-1c-4.78-2.67-10.46-7.7-9.35-12.33,1.08-3.9,8.09-28.28,12.82-47.94,1.54-6.42,4.18-17.82,5.72-24.47A17.25,17.25,0,0,0,149,178.71Z"/><path class="cls-4" d="M128.57,184.92l.17.55-.23,2.23,19.87-10.58S144.68,177.45,128.57,184.92Z"/><path class="cls-10" d="M141.46,278.56a1,1,0,0,1-1.4.22l-25.9-18.54a2.72,2.72,0,0,1-1.11-2.69,2.85,2.85,0,0,1,.29-.88,3.09,3.09,0,0,1,.64-.77l7.58-7.18,11.06,11-1.13,1.86s-1.64,4,5.55,8.78c4.31,2.9,4.91,5.64,4.7,7.37a3.55,3.55,0,0,1-.08.47A.83.83,0,0,1,141.46,278.56Z"/><path class="cls-4" d="M141.46,278.56l-28.41-21a2.85,2.85,0,0,1,.29-.88l28.4,21a3.55,3.55,0,0,1-.08.47A.83.83,0,0,1,141.46,278.56Z"/><path class="cls-2" d="M105.59,121.23a76.55,76.55,0,0,0-9.77-1C90,120,80.66,131.11,80.66,131.11l-5.1,61.22L34.88,242.84h0c-3,.08-8.18.31-9.41,1a2.2,2.2,0,0,0-1,2.71L34.73,274a1.13,1.13,0,0,0,.69.68,1.6,1.6,0,0,0,2-.59,1.15,1.15,0,0,0,0-1.16,28.43,28.43,0,0,1-2.5-15.42c3-2.68,23.51-19.35,38.17-33.29,4.77-4.56,13.19-12.69,18.1-17.43a17.32,17.32,0,0,0,4.92-9c2.45-12.11,4.78-24.24,6.53-34.51q.53-3,1-5.82A154.78,154.78,0,0,0,105.68,140C105.85,132.87,105.86,126.54,105.59,121.23Z"/><path class="cls-4" d="M75.3,192.66l-3.08,3.82s19,4.78,24.45-1.38A77.4,77.4,0,0,1,75.3,192.66Z"/><path class="cls-10" d="M36,277.51a1,1,0,0,1-1.3-.59L23.14,247.25a2.74,2.74,0,0,1,.54-2.86,3,3,0,0,1,.73-.58,2.93,2.93,0,0,1,.95-.29l10.27-1.88,3.28,15.22-2,.94s-3.55,2.43-.15,10.38c2,4.78,1,7.41-.08,8.74a3.75,3.75,0,0,1-.33.35A.9.9,0,0,1,36,277.51Z"/><path class="cls-4" d="M36,277.51,23.68,244.39a3,3,0,0,1,.73-.58l12.31,33.11a3.75,3.75,0,0,1-.33.35A.9.9,0,0,1,36,277.51Z"/><path class="cls-3" d="M148.12,177.19c-8.33,1.73-21.15,9.47-39.4,15.57-17.6,5.9-35.41-.32-41.76-3a3.63,3.63,0,0,1-2.21-3.66c0-.52.09-1,.14-1.54,0-.31.06-.63.08-.94,4-41.21,15.33-67.8,19.48-76.36l.42-.88c.71-1.4,1.11-2.12,1.11-2.12h30c.39.55.85,1.26,1.36,2.11.17.28.35.57.53.88,7.49,12.7,25.34,50,32.09,64.13.14.28.26.56.39.82l.15.32A3.33,3.33,0,0,1,148.12,177.19Z"/><path class="cls-4" d="M117.88,107.25H84.45l.42-.88h32.48C117.52,106.65,117.7,106.94,117.88,107.25Z"/><path class="cls-4" d="M150.36,172.2c-6.77,1.09-17.14,5.49-28,10.12-6,2.53-12.11,5.15-17.92,7.33a33.13,33.13,0,0,1-11.55,1.93c-11.46,0-22.88-4.66-28-7,0-.31.06-.63.08-.94,6.49,3.07,24.82,10.57,39.13,5.22,5.79-2.17,11.94-4.79,17.89-7.32,10.78-4.59,21.07-9,28-10.13C150.11,171.66,150.23,171.94,150.36,172.2Z"/><rect class="cls-4" x="99.67" y="164.53" width="14.9" height="0.88" transform="translate(-89.03 179.64) rotate(-61.28)"/><rect class="cls-4" x="100.17" y="167.34" width="21.14" height="0.88" transform="translate(-89.33 187.35) rotate(-62.16)"/><path class="cls-2" d="M397.06,14.22c-2.2-5.67-12.61-7.88-19.87-1.57-3.37,2.93-4.08,8.24-3.87,13.09a2.92,2.92,0,0,0-.44-.18,3,3,0,0,0-3.4,2.13A4,4,0,0,0,370,31a5,5,0,0,0,2.29,1.91,6.41,6.41,0,0,0,2,.2,14.65,14.65,0,0,0,4.83,8.22,13.23,13.23,0,0,0,11.27,2.85c3.14-.65,7.79-2.66,8.94-5.92a8.24,8.24,0,0,0,.34-2.66C399.72,28.75,399.59,20.71,397.06,14.22Z"/><path class="cls-4" d="M394.35,25.61c0,1.06.42,1.91.93,1.91s.94-.85.94-1.91-.42-1.9-.94-1.9S394.35,24.56,394.35,25.61Z"/><path class="cls-4" d="M388.15,25.61c0,1.06-.42,1.91-.93,1.91s-.93-.85-.93-1.91.41-1.9.93-1.9S388.15,24.56,388.15,25.61Z"/><path class="cls-4" d="M392.23,34.76a1.56,1.56,0,0,1-1,.34,1.64,1.64,0,0,1-1-.34,4.21,4.21,0,0,0,1,.11A3.69,3.69,0,0,0,392.23,34.76Z"/><path class="cls-8" d="M394.63,31.25a4.16,4.16,0,0,1-.41,1,3.07,3.07,0,0,1-.49.7,3.2,3.2,0,0,1-3.15,1.18A3.09,3.09,0,0,1,388.37,32a4,4,0,0,1-.27-.76,7.61,7.61,0,0,1-.22-1.08S390.28,31.9,394.63,31.25Z"/><path class="cls-9" d="M388.64,31.88l-.27.16a4,4,0,0,1-.27-.76A2.8,2.8,0,0,0,388.64,31.88Z"/><path class="cls-9" d="M394.22,32.21a3.07,3.07,0,0,1-.49.7,3.16,3.16,0,0,0-.24-.27A3.58,3.58,0,0,0,394.22,32.21Z"/><path class="cls-4" d="M388.92,19a2.2,2.2,0,0,0-1.44-.53,4.77,4.77,0,0,0-1.54.21,3.88,3.88,0,0,0-1.35.78,4,4,0,0,0-.92,1.18.44.44,0,0,0,.17.61.44.44,0,0,0,.52-.06l0,0a5.67,5.67,0,0,1,.92-.73,3.16,3.16,0,0,1,1-.41,4,4,0,0,1,1.1-.11,4.35,4.35,0,0,0,1.18-.07l.11,0a.46.46,0,0,0,.35-.56A.49.49,0,0,0,388.92,19Z"/><path class="cls-4" d="M393.58,19a2.21,2.21,0,0,1,1.44-.53,4.77,4.77,0,0,1,1.54.21,3.79,3.79,0,0,1,1.35.78,4,4,0,0,1,.93,1.18.45.45,0,0,1-.18.61.42.42,0,0,1-.51-.06l0,0a6.68,6.68,0,0,0-.92-.73,3.21,3.21,0,0,0-1-.41,4,4,0,0,0-1.1-.11,4.26,4.26,0,0,1-1.17-.07l-.12,0a.45.45,0,0,1-.34-.56A.42.42,0,0,1,393.58,19Z"/><path class="cls-4" d="M393.13,22.7c.17.72.29,1.43.42,2.14s.27,1.41.47,2.08a4.66,4.66,0,0,0,.16.49,2.06,2.06,0,0,1,.16.61,1.23,1.23,0,0,1-.67,1.13,1.5,1.5,0,0,1-1.22.07,2.94,2.94,0,0,1-1-.58c.67.25,1.45.45,1.92.09a.69.69,0,0,0,.33-.67,1.24,1.24,0,0,0-.14-.43c-.07-.18-.13-.36-.19-.54a10.3,10.3,0,0,1-.35-2.19A12.45,12.45,0,0,1,393.13,22.7Z"/><path class="cls-4" d="M371.05,27.15a7.3,7.3,0,0,1,2.08.83,5.9,5.9,0,0,1,1.67,1.38l.37-.46a6.88,6.88,0,0,0-1.78-.7,2.46,2.46,0,0,0-1,0,1.14,1.14,0,0,0-.89.71,1.74,1.74,0,0,0,.5,1.91,2.57,2.57,0,0,0,1.72.71,2.75,2.75,0,0,1-1.45-.95A1.36,1.36,0,0,1,372,29.1c.16-.42.71-.41,1.27-.28a7.58,7.58,0,0,1,1.62.61h0a.3.3,0,0,0,.36-.47,5.45,5.45,0,0,0-1.94-1.37A5.58,5.58,0,0,0,371.05,27.15Z"/><path class="cls-4" d="M379.24,17.63s-.9,9.24-3.17,9.72c0,0-3.07-3.1-5.58-1.15,0,0-2.23-11,3.27-12a8.84,8.84,0,0,1,6.38-6.9c5.75-1.75,18.38,3.8,20.69-.91,0,0,2.33,4.59-1.29,7.83,0,0,.86,3.91-.85,5.84,0,0-.91-3.88-1.23-4.77,0,0-3.11,1.21-9.85.26S379.24,17.63,379.24,17.63Z"/><path class="cls-2" d="M348.39,255.53a130.46,130.46,0,0,1,12.74-5.68,15.19,15.19,0,0,0-2.45-1.6l-.05-.45-6.7-64.51,29-54.16s-1.83-14.42-6.82-17.38a77.07,77.07,0,0,0-8.75-4.47c-3.1,4.32-6.54,9.63-10.28,15.74a153,153,0,0,0-7.77,15.78c-.77,1.72-1.55,3.53-2.36,5.41-4.11,9.57-8.74,21-13.26,32.52a17.33,17.33,0,0,0-.76,10.22c1.54,6.65,4.19,18.05,5.72,24.47C340.54,227.62,346,247,348.39,255.53Z"/><polygon class="cls-4" points="342.02 232.44 356.69 229.16 356.23 224.68 342.02 232.44"/><polygon class="cls-10" points="359.11 251.69 349.88 260.37 341.13 234.81 340.84 233.97 340.44 232.79 357.68 228.94 357.76 230.18 357.81 231.07 359.11 251.69"/><polygon class="cls-4" points="357.81 231.07 341.13 234.81 340.84 233.97 357.76 230.18 357.81 231.07"/><path class="cls-6" d="M363.44,105.59H400s3.3,12,0,18.53-46.15,59.33-46.15,59.33l1.86,24.62-21.42,2.85-6.47-26.4a16.27,16.27,0,0,1,1.28-11.22Z"/><polygon class="cls-4" points="377.48 153.99 376.24 127.12 370.04 163.34 377.48 153.99"/><path class="cls-4" d="M349.74,200.77l-.55-4.36.87-.11.56,4.36Zm-1.1-8.72-.56-4.36.87-.11.56,4.36Zm-1.11-8.72-.37-2.94,1-1.44.71.52-.85,1.16.33,2.59Zm4-7.41-.71-.52,2.6-3.55.7.52Zm5.19-7.1-.71-.52,2.59-3.54.71.51Zm5.18-7.1-.71-.51,2.6-3.55.71.52Zm5.19-7.09-.71-.52,2.59-3.55.71.52Z"/><path class="cls-3" d="M364.85,256.39,342.1,278.68a1,1,0,0,1-1.16.18.65.65,0,0,1-.27-.17,1,1,0,0,1-.26-.38l-.05-.12c0-.11-.07-.22-.1-.34-.48-1.68-.3-4.47,3.52-8,6.37-5.85,4.14-9.52,4.14-9.52l-1.4-1.67,12.59-11.26,5.25,4.69a2.48,2.48,0,0,1,.74.66l.18.26a3,3,0,0,1,.25.55,1.46,1.46,0,0,1,.09.36A2.71,2.71,0,0,1,364.85,256.39Z"/><path class="cls-4" d="M365.62,253.92l-24.68,24.94a.65.65,0,0,1-.27-.17,1,1,0,0,1-.26-.38l-.05-.12L365.28,253a3,3,0,0,1,.25.55A1.46,1.46,0,0,1,365.62,253.92Z"/><path class="cls-2" d="M433.13,250.46a32.21,32.21,0,0,1,11.49-9.61l-41.48-52.64-1.35-61.43s-8.68-11.66-14.48-11.78a77.81,77.81,0,0,0-9.81.4c-.59,5.28-1,11.6-1.23,18.76a153.3,153.3,0,0,0,1,17.56q.27,2.82.61,5.87c1.12,10.36,2.71,22.61,4.42,34.84a17.23,17.23,0,0,0,4.36,9.28c4.61,5,12.51,13.66,17,18.5C413.71,231,426.08,243.44,433.13,250.46Z"/><polygon class="cls-4" points="417.02 234.21 429.36 221.48 426.08 217.33 417.02 234.21"/><polygon class="cls-10" points="445.97 242.07 437.12 255.31 418.39 238.67 417.74 238.09 415.33 235.96 430.65 220.15 431.85 221.86 432.36 222.6 445.97 242.07"/><polygon class="cls-4" points="432.36 222.6 418.39 238.67 417.74 238.09 431.85 221.86 432.36 222.6"/><path class="cls-3" d="M452.49,247.89l-17.84,26.38a1,1,0,0,1-1.39.29l-.1-.08a.8.8,0,0,1-.23-.25,2.33,2.33,0,0,1-.24-.41c-.8-1.55-1.19-4.33,1.85-8.55,5.08-7,2.16-10.15,2.16-10.15L435,253.77l10.1-13.56,6.08,3.54a3.21,3.21,0,0,1,.86.51,1.25,1.25,0,0,1,.23.23,2.74,2.74,0,0,1,.35.49c.06.1.11.22.17.33A2.78,2.78,0,0,1,452.49,247.89Z"/><path class="cls-4" d="M452.77,245.31l-18.69,29.37a1,1,0,0,1-.82-.12l-.1-.08,19.09-30a2.74,2.74,0,0,1,.35.49C452.66,245.08,452.71,245.2,452.77,245.31Z"/><path class="cls-6" d="M400.91,110.05l4.57,76,11,15.16L396,216.64l-9.63-10.79a24.37,24.37,0,0,1-6.12-14.33l-6.18-79.77Z"/><polygon class="cls-4" points="410.08 201.22 396.41 182.89 390.35 116.17 391.23 116.09 397.27 182.56 410.78 200.7 410.08 201.22"/><path class="cls-2" d="M373.24,54.11A26.16,26.16,0,0,0,367,52.46c-5.57-.83-16.06-3-27.23-5.46,0-14.66.13-28.75.18-33.3l.17,0C342.61,7.59,335-.85,334.38.56s1.37,6.29,1.37,6.29A21,21,0,0,0,328.8.19a1.31,1.31,0,0,0-1.95,1.45A16,16,0,0,0,334,11.47a100.29,100.29,0,0,0-9.15,32.19c-.38,3.14-.64,6.23-.81,9.22a7.4,7.4,0,0,0,5.08,7.47c3.67,1.18,7.27,2.17,10.71,3a207,207,0,0,0,25.05,4.26,15.51,15.51,0,0,0,8.89-1.14A6.81,6.81,0,0,0,373.24,54.11Z"/><path class="cls-3" d="M344.6,47.29l-4.33,17L367.87,69a8.42,8.42,0,0,0,8.87-4.18,9.57,9.57,0,0,0,1-2.71c1-5-2.14-7.45-5.8-8.73S344.6,47.29,344.6,47.29Z"/><polygon class="cls-4" points="344.41 48.02 340.47 63.51 336.77 62.59 344.41 48.02"/><path class="cls-2" d="M399.8,58.85c-3.62-2.18-6.11-3-7.88-5.12-.19-.71-.65-2.44-1-4.4a20.33,20.33,0,0,1-.37-5.17h0a4.55,4.55,0,0,1,.51-1.86l-16.9-9.5,0,.16c.27,1.57,2.3,13.88.21,20.42a12.23,12.23,0,0,1-4.77,1.06A8.74,8.74,0,0,0,364,56.68c-2.12,2-4,5.75-2.75,12.75,2.4,14,4.57,26.72,3.65,35.26h34.64s.36-13.81,1.42-24C401.9,71.35,405.32,62.16,399.8,58.85Z"/><path class="cls-4" d="M390.93,49.33c-9.19,1.16-13.85-9.81-14-10.22a10.86,10.86,0,0,0,6.56,4.7,17.88,17.88,0,0,0,7,.36h.06A20.33,20.33,0,0,0,390.93,49.33Z"/><path class="cls-3" d="M364.32,105.59S357.52,65,360.85,59s13.56-5.63,13.56-5.63,9.08,10.18,17.51.36c0,0,9.51,3.65,10.95,7.9s-3.46,43.87-3.46,43.87Z"/><path class="cls-4" d="M383.79,60.55c-6,0-10.72-5.25-10.92-5.47l.65-.59c.05.06,4.87,5.38,10.63,5.17,3.11-.12,6-1.85,8.47-5.14l.7.53c-2.67,3.51-5.75,5.36-9.14,5.49Z"/><polygon class="cls-4" points="386.05 91.96 385.69 96.89 378.88 97.85 384.48 71.16 385.14 91.89 386.05 91.96"/><path class="cls-2" d="M402.55,69.1a15.44,15.44,0,0,0-2.38-8.64A6.81,6.81,0,0,0,388,62.71a26.33,26.33,0,0,0-.75,6.46c0,5.63-.71,16.32-1.57,27.73-14.51,2.07-33,4.34-33,4.34-6.44-1.65-13.72,7.07-12.23,7.48s6-2.24,6-2.24a20.86,20.86,0,0,0-5.61,7.82A1.31,1.31,0,0,0,342.6,116a16,16,0,0,0,8.73-8.44,100.11,100.11,0,0,0,33.15,4.52c3.16-.06,6.26-.23,9.24-.49a7.4,7.4,0,0,0,6.68-6.08c.65-3.8,1.13-7.5,1.47-11A204.52,204.52,0,0,0,402.55,69.1Z"/><path class="cls-3" d="M385.14,91.89l18.15,1.49.16-28a8.44,8.44,0,0,0-5.79-8.07,10.44,10.44,0,0,0-2.93-.52c-5.26-.14-7.29,3.33-8,7.15S385.14,91.89,385.14,91.89Z"/><path class="cls-2" d="M525.59,45.11a3,3,0,0,0-3.47-2,5.12,5.12,0,0,0-1.56,1c-.69-4.92-2.38-10.24-6.36-12.54-8.33-4.81-18.12-.66-19.21,5.33a45.39,45.39,0,0,0,.3,14.73c.33,2.11.72,4.17,1.13,6.15l.12.61a8.33,8.33,0,0,0,.85,2.55c1.74,3,6.69,4.07,9.9,4.11a13.22,13.22,0,0,0,10.52-4.94A14.68,14.68,0,0,0,521,50.73v0a6.28,6.28,0,0,0,2-.26,5,5,0,0,0,2.22-2A4,4,0,0,0,525.59,45.11Z"/><path class="cls-11" d="M496.42,57.75a3.35,3.35,0,0,0,.83-.06A3.22,3.22,0,0,0,496,51.36a3.47,3.47,0,0,0-.73.24C495.62,53.71,496,55.77,496.42,57.75Z"/><path class="cls-11" d="M515.56,50.86a3.22,3.22,0,1,1-3.78-2.55A3.23,3.23,0,0,1,515.56,50.86Z"/><path class="cls-4" d="M500.28,47.45c.2,1,0,1.95-.56,2s-1.07-.66-1.27-1.7,0-1.95.55-2S500.08,46.42,500.28,47.45Z"/><path class="cls-4" d="M497,45.53a2.76,2.76,0,0,0,.77.67,2.19,2.19,0,0,0,1,.31h0a.34.34,0,1,0,0-.68h-.09a2,2,0,0,1-1.61-.45h0a.1.1,0,0,0-.15,0A.12.12,0,0,0,497,45.53Z"/><path class="cls-4" d="M506.37,46.27c.2,1,.77,1.79,1.27,1.69s.76-1,.56-2.05-.78-1.79-1.28-1.69S506.17,45.23,506.37,46.27Z"/><path class="cls-4" d="M508.46,43.19a2,2,0,0,1-1.32,1,.34.34,0,0,0-.29.39.34.34,0,0,0,.39.29l.09,0h0a2.1,2.1,0,0,0,.87-.68,2.89,2.89,0,0,0,.46-.91.11.11,0,0,0-.08-.14.1.1,0,0,0-.12,0Z"/><path class="cls-4" d="M501,53.19a4.61,4.61,0,0,0,1.68,1.3,3.43,3.43,0,0,0,4.08-.82,6.6,6.6,0,0,0,.65-.85c.16-.32.32-.64.45-1-.24.26-.45.53-.67.79s-.47.5-.73.7a3.85,3.85,0,0,1-1.71.86,3.78,3.78,0,0,1-1.91-.13A8.2,8.2,0,0,1,501,53.19Z"/><path class="cls-4" d="M504.1,56a1.59,1.59,0,0,0,1,.14,1.62,1.62,0,0,0,.9-.52,5.2,5.2,0,0,1-.95.3A4.42,4.42,0,0,1,504.1,56Z"/><path class="cls-12" d="M504.35,39.92a2.25,2.25,0,0,1,1.31-.8,4.47,4.47,0,0,1,1.55-.07,3.66,3.66,0,0,1,1.48.5,3.72,3.72,0,0,1,1.13,1,.44.44,0,0,1-.57.66l-.05,0a5.49,5.49,0,0,0-1-.55,3.34,3.34,0,0,0-1.08-.21,3.76,3.76,0,0,0-1.1.1,3.92,3.92,0,0,1-1.16.16h-.12a.47.47,0,0,1-.45-.48A.52.52,0,0,1,504.35,39.92Z"/><path class="cls-12" d="M499.78,40.81a2.17,2.17,0,0,0-1.52-.25,4.59,4.59,0,0,0-1.47.51,3.72,3.72,0,0,0-1.18,1,3.91,3.91,0,0,0-.68,1.33.45.45,0,0,0,.78.41l0,0a5.69,5.69,0,0,1,.77-.9,3.42,3.42,0,0,1,.91-.6,3.91,3.91,0,0,1,1.06-.31,4.45,4.45,0,0,0,1.14-.29l.11,0a.48.48,0,0,0,0-.83Z"/><path class="cls-4" d="M502.55,44c0,.74,0,1.46,0,2.18s0,1.43-.06,2.13l-.06.51a1.79,1.79,0,0,0-.05.64,1.25,1.25,0,0,0,.87,1,1.52,1.52,0,0,0,1.21-.17,3,3,0,0,0,.84-.75c-.61.38-1.34.72-1.87.46a.74.74,0,0,1-.46-.61A1.72,1.72,0,0,1,503,49a3.78,3.78,0,0,0,.08-.56,9.64,9.64,0,0,0-.07-2.22A11.35,11.35,0,0,0,502.55,44Z"/><path class="cls-4" d="M524,45.12a7.61,7.61,0,0,0-2.08.83,6,6,0,0,0-1.66,1.38l-.38-.46a7,7,0,0,1,1.78-.69,2.66,2.66,0,0,1,1,0,1.14,1.14,0,0,1,.89.72,1.74,1.74,0,0,1-.5,1.91,2.55,2.55,0,0,1-1.72.7,2.79,2.79,0,0,0,1.45-.94,1.38,1.38,0,0,0,.26-1.45c-.16-.42-.71-.4-1.27-.28a8.15,8.15,0,0,0-1.62.61h0a.29.29,0,0,1-.4-.13.3.3,0,0,1,0-.34,5.58,5.58,0,0,1,1.94-1.37A5.75,5.75,0,0,1,524,45.12Z"/><path class="cls-12" d="M510.62,34.55s2.84,11.63,8.29,10.92c0,0,3.64-4.1,6-1.43,0,0,3.3,4.73-3.94,6.69,0,0-4.91,4.56-.63,10.76a8.31,8.31,0,0,1,.27,5.28c-.72,3.4,1.75,4.56,3.32,4.09s7.77-1.35,10.63-.69c0,0,2.52-7.09-2.89-11.57s-1.18-9.48-3.05-13.25-2.23-8.8-9.84-10.8c0,0,.62-8.39-8.88-8s-21.21,2.41-18.16,13.11c0,0,.45,7.54-.5,10.33s-5.24,7.21-3.18,9.89,2.27,4.71,1.34,7.46,10.86,7.69,18.42,2.58a43.07,43.07,0,0,0-.78-4.88,18.89,18.89,0,0,1-5.83-1.18,7.59,7.59,0,0,1-4.48-5.06A75.08,75.08,0,0,1,495,49.14s-.48-7.6-.36-9c0,0,8.19,3,16.27-5.59"/><path class="cls-2" d="M554.33,263.57c-.32-1.36-3.59-5.33-5.57-7.64h0l-29-58,10.56-76.77L521,110.61c-2.38-.2-7.26-3-9.6-3.2-3.64,4.52-6.79,16.4-10,33a150,150,0,0,0-1.7,17.51c-.52,9.24-.87,20.63-1.09,32.45A44.2,44.2,0,0,0,506,215.78c3.28,4.9,6.9,10.3,9.32,13.87,12.06,17.75,22.08,32.09,22.94,33.3l-.17.13s-6.22,9.29-13.44,11.11a1.15,1.15,0,0,0-.85.79,1.59,1.59,0,0,0,.9,1.88,1.12,1.12,0,0,0,1,.06L553,266.14A2.21,2.21,0,0,0,554.33,263.57Z"/><path class="cls-7" d="M554.73,263.28a4.11,4.11,0,0,1,0,.71,1.36,1.36,0,0,1-.06.29,3.63,3.63,0,0,1-.29.84,3.58,3.58,0,0,1-1.85,1.74l-27,11a2.72,2.72,0,0,1-2.17-.05,2.08,2.08,0,0,1-.51-.27,2.11,2.11,0,0,1-.36-.31,2.38,2.38,0,0,1-.32-.38,2.83,2.83,0,0,1-.42-1,1.53,1.53,0,0,1,0-.76c.25-.87,15.59-6,22.38-8.25a7.57,7.57,0,0,0,4.56-4.19l2.54-5.74c1.6.78,2.71,3.21,3.4,5.32A4.3,4.3,0,0,1,554.73,263.28Z"/><path class="cls-4" d="M554.73,263.28a4.11,4.11,0,0,1,0,.71,1.36,1.36,0,0,1-.06.29l-31.33,13.5a2.08,2.08,0,0,1-.51-.27,2.11,2.11,0,0,1-.36-.31Z"/><polygon class="cls-4" points="511.38 223.76 520.71 199.92 514.55 228.47 511.38 223.76"/><path class="cls-2" d="M532.16,120,520,123.69,478.51,269.6c-1.71,1-10.17,6-17,4.91a1.18,1.18,0,0,0-1.13.41,1.64,1.64,0,0,0,.1,2.15,1.11,1.11,0,0,0,.89.44l30.33.83a2.3,2.3,0,0,0,2.32-1.9,19.27,19.27,0,0,0-.28-7.11c1.39-3.62,36.69-95.75,45.75-115.51S532.16,120,532.16,120Z"/><path class="cls-7" d="M495.1,275.48a3.42,3.42,0,0,1-.25,1.07,3.2,3.2,0,0,1-.29.62,1.51,1.51,0,0,1-.18.26,3.84,3.84,0,0,1-.57.64,3.54,3.54,0,0,1-2.38.9l-29.17-.27a2.8,2.8,0,0,1-2.31-1.27l0-.05a2.77,2.77,0,0,1-.35-.83.2.2,0,0,0,0-.07,2.69,2.69,0,0,1,0-1.06,1.36,1.36,0,0,1,.27-.7c.56-.72,16.7.45,23.83,1a7.64,7.64,0,0,0,5.82-2.12l4.55-4.32C495.19,270.6,495.27,273.28,495.1,275.48Z"/><path class="cls-4" d="M494.85,276.55a3.2,3.2,0,0,1-.29.62,1.51,1.51,0,0,1-.18.26H460l0-.05a2.77,2.77,0,0,1-.35-.83Z"/><polygon class="cls-4" points="502.25 186.05 524.85 189.44 501.15 189.94 502.25 186.05"/><path class="cls-7" d="M501.89,124.61,537.45,123s14.41,12.36,4.79,33-15.78,33.4-15.78,33.4l-34.26-4.79S498.85,139.12,501.89,124.61Z"/><rect class="cls-4" x="504.53" y="160.38" width="12.55" height="0.88" transform="translate(6.5 341) rotate(-37.14)"/><rect class="cls-4" x="503.99" y="163.57" width="18.13" height="0.88" transform="translate(4.07 340.25) rotate(-36.83)"/><path class="cls-2" d="M535.33,73.88a8.75,8.75,0,0,0-5.74-2,12.21,12.21,0,0,1-5-1c-3.24-6.05-3.58-18.39-3.62-20v-.17L506.22,63.29a4.47,4.47,0,0,1,.85,1.72h0a20.18,20.18,0,0,1,.63,5.15c0,.4,0,.79,0,1.16-1.69,2.65-4.26,3.48-8.1,6-5.39,3.51-5.63,13-3.17,22.37s7.5,23.35,7.5,23.35l28.39-1.37c-1.22-8.5,4.3-21,6.21-35.12C539.48,79.49,537.52,75.81,535.33,73.88Z"/><path class="cls-4" d="M507.7,70.17c9.24-.61,11.72-12.27,11.81-12.71A10.85,10.85,0,0,1,514,63.33,17.8,17.8,0,0,1,507.13,65h-.06A20.18,20.18,0,0,1,507.7,70.17Z"/><path class="cls-6" d="M507.07,72.19s5.45,6.62,17.55-1.32c0,0,13.43-.7,14.15,8.28s-6.89,30.81-5.42,42.39c0,0-18.82,5.42-31.46,3.07,0,0-8.56-30-7.38-38.82S501.66,75.74,507.07,72.19Z"/><path class="cls-2" d="M509.34,81.86c-1.18-5.63-7.3-8-10.08-4a20.53,20.53,0,0,0-2.46,5.06c-2,5.73-6.94,17.26-11.85,28.45a326.1,326.1,0,0,1-30.88-14.13,15.33,15.33,0,0,1-1.63-5.91c0-3.64-2.71.37-3,3.08,0,0-9.91-5.42-10.59-4.76s5.45,4.8,6.28,5.41c0,0-2.08,2.12-2,4.18.08,1.63,2.59,2.91,5.67,3.27h0c9,9.38,20.87,16.79,30.51,21.6,1,.49,2,1,2.93,1.41,5.14,2.4,10.46.8,13.2-3.89,1-1.72,2-3.45,2.85-5.17a164.32,164.32,0,0,0,10.4-26.16A16.34,16.34,0,0,0,509.34,81.86Z"/><path class="cls-6" d="M497.71,78.33c-3.62,4.11-7.95,12-12.2,27,0,0-11.36-2.46-16.81-6.72,0,0-12,18-11.94,22,0,0,28.68,8.65,34.4,6.51s21-39.29,20.37-42.35c-.18-.85-.3-1.81-.48-2.82A7.66,7.66,0,0,0,497.71,78.33Z"/><path class="cls-4" d="M495.29,88.17s-.3,22.28,3.57,28.26l.57-1S495.62,96.86,495.29,88.17Z"/><polygon class="cls-4" points="460.21 112.44 465.84 103.07 462.01 101.23 460.21 112.44"/><path class="cls-2" d="M547.14,114.39c-.19-2-.43-4-.72-5.86a166.31,166.31,0,0,0-6.85-27.31A16.38,16.38,0,0,0,535.18,74c-4.25-3.88-10.61-2.23-10.53,2.64a20.5,20.5,0,0,0,1,5.54c1.71,5.83,4.46,18.06,7,30a326.4,326.4,0,0,1-33.31,6.59,15.32,15.32,0,0,1-4.78-3.84c-2.12-3-2,1.88-.65,4.26,0,0-11.21,1.4-11.37,2.34s7.23.71,8.26.72c0,0-.46,2.93.83,4.54,1,1.28,3.79.85,6.51-.66h0c12.78,2.35,26.74,1.41,37.38-.32,1.08-.18,2.15-.37,3.2-.57C544.28,124.2,547.65,119.8,547.14,114.39Z"/><path class="cls-6" d="M522.42,79.3c-.21,5.47,1.43,14.34,7.64,28.66,0,0-10.36,5.28-17.27,5.42,0,0,2,21.54,4.67,24.62,0,0,27.69-11.43,30.77-16.7s-8.57-43.72-11-45.69c-.68-.55-1.38-1.22-2.16-1.88A7.65,7.65,0,0,0,522.42,79.3Z"/><path class="cls-4" d="M513,116.52l-.71-3.44,17.15-5.38c-1.24-2.48-6.78-13.93-6.78-20.82h.88c0,7.38,6.85,20.75,6.92,20.88l.24.47-17.39,5.45.55,2.66Z"/></g></g></svg>