<svg xmlns="http://www.w3.org/2000/svg" viewBox="0 0 192.06 239.42"><defs><style>.cls-2{fill:#525fff}.cls-3{fill:#ea6394}.cls-4{fill:#fff}</style></defs><g id="Layer_2" data-name="Layer 2"><g id="OBJECTS"><path d="M42.72 42.85a87.48 87.48 0 10123.72 0 87.49 87.49 0 00-123.72 0zM145 145.14a57.18 57.18 0 110-80.86 57.17 57.17 0 010 80.86z" fill="#fcea6d"/><path class="cls-2" d="M91.44 199.28L48.4 142.9 26.73 206l64.71-6.72zM148.4 155.78l-43.04-56.37L83.7 162.5l64.7-6.72z"/><path class="cls-3" transform="rotate(-45 58.318 54.364)" d="M55.07 22.09h6.49v64.53h-6.49z"/><path class="cls-3" transform="rotate(-45 67.982 44.691)" d="M64.74 12.43h6.49v64.53h-6.49z"/><path class="cls-3" transform="rotate(-45 77.903 34.772)" d="M74.66 2.51h6.49v64.53h-6.49z"/><path class="cls-3" transform="rotate(-45 87.561 25.11)" d="M84.33-7.16h6.49v64.53h-6.49z"/><path class="cls-4" d="M73.73 163.5a.74.74 0 10.71-1.29.74.74 0 10-.71 1.29zM71.14 168.25a.74.74 0 001-.3.73.73 0 00-.29-1 .74.74 0 00-1 .29.75.75 0 00.29 1.01zM68.55 173a.74.74 0 001-.3.74.74 0 00-1.3-.71.75.75 0 00.3 1.01zM66 177.73a.74.74 0 10.71-1.3.74.74 0 00-.71 1.3zM64.36 182.18a.74.74 0 00-.29-1 .75.75 0 00-1 .3.74.74 0 00.3 1 .74.74 0 00.99-.3zM61.77 186.92a.74.74 0 00-.29-1 .75.75 0 00-1 .3.74.74 0 001.3.71zM58.88 190.65a.74.74 0 00-1 .3.73.73 0 00.29 1 .74.74 0 001-.29.75.75 0 00-.29-1.01zM56.29 195.4a.74.74 0 10-.71 1.29.74.74 0 10.71-1.29zM53.7 200.14a.74.74 0 00-1 .29.75.75 0 00.3 1 .74.74 0 001-.3.73.73 0 00-.3-.99zM51.1 204.88a.73.73 0 00-1 .29.74.74 0 00.29 1 .75.75 0 001-.3.74.74 0 00-.29-.99zM48.51 209.62a.74.74 0 10.29 1 .74.74 0 00-.29-1zM69 160.91a.74.74 0 001-.29.75.75 0 00-.3-1 .74.74 0 00-1 .3.73.73 0 00.3.99zM66.4 165.65a.73.73 0 001-.29.74.74 0 00-.29-1 .75.75 0 00-1 .3.74.74 0 00.29.99zM63.8 170.39a.74.74 0 001-.29.74.74 0 10-1 .29zM61.21 175.14a.75.75 0 001-.3.74.74 0 00-.3-1 .73.73 0 00-1 .29.74.74 0 00.3 1.01zM58.62 179.88a.74.74 0 001-.3.73.73 0 00-.29-1 .74.74 0 00-1 .29.75.75 0 00.29 1.01zM56 184.62a.75.75 0 001-.3.74.74 0 00-1.3-.71.75.75 0 00.3 1.01zM54.14 188.06a.74.74 0 00-.71 1.3.74.74 0 10.71-1.3zM51.55 192.8a.75.75 0 00-1 .3.74.74 0 00.3 1 .73.73 0 001-.29.74.74 0 00-.3-1.01zM49 197.54a.75.75 0 00-1 .3.74.74 0 001.3.71.75.75 0 00-.3-1.01zM46.36 202.29a.74.74 0 00-.71 1.29.74.74 0 10.71-1.29zM43.77 207a.74.74 0 00-1 .29.75.75 0 00.3 1 .74.74 0 001-.3.73.73 0 00-.3-.99zM64.25 158.32a.74.74 0 10-.3-1 .75.75 0 00.3 1zM61.66 163.06a.74.74 0 00.71-1.3.74.74 0 10-.71 1.3zM59.06 167.8a.74.74 0 001-.29.75.75 0 00-.3-1 .74.74 0 00-1 .3.73.73 0 00.3.99zM56.47 172.54a.73.73 0 001-.29.74.74 0 10-1.29-.71.73.73 0 00.29 1zM53.88 177.28a.73.73 0 001-.29.74.74 0 00-.29-1 .75.75 0 00-1 .3.74.74 0 00.29.99zM51.28 182a.75.75 0 001-.3.74.74 0 00-.3-1 .73.73 0 00-1 .29.74.74 0 00.3 1.01zM49.4 185.47a.73.73 0 00-1 .29.74.74 0 101.29.71.73.73 0 00-.29-1zM46.81 190.21a.74.74 0 00-1 .29.75.75 0 00.3 1 .74.74 0 001-.3.73.73 0 00-.3-.99zM44.21 195a.74.74 0 00-.71 1.3.74.74 0 10.71-1.3zM41.62 199.69a.74.74 0 00-.71 1.3.73.73 0 001-.29.74.74 0 00-.29-1.01zM39 204.43a.75.75 0 00-1 .3.74.74 0 00.3 1 .73.73 0 001-.29.74.74 0 00-.3-1.01zM59.51 155.73a.74.74 0 001-.3.73.73 0 00-.29-1 .74.74 0 00-1 .29.75.75 0 00.29 1.01zM56.91 160.47a.75.75 0 001-.3.74.74 0 00-1.3-.71.75.75 0 00.3 1.01zM54.32 165.21a.75.75 0 001-.3.74.74 0 00-.3-1 .73.73 0 00-1 .29.74.74 0 00.3 1.01zM51.73 170a.74.74 0 00.71-1.3.74.74 0 10-.71 1.3zM49.85 173.39a.75.75 0 00-1 .3.74.74 0 001.3.71.75.75 0 00-.3-1.01zM47.25 178.13a.74.74 0 00-1 .3.73.73 0 00.29 1 .74.74 0 001-.29.75.75 0 00-.29-1.01zM44.66 182.87a.75.75 0 00-1 .3.74.74 0 00.3 1 .73.73 0 001-.29.74.74 0 00-.3-1.01zM42.07 187.62a.74.74 0 10.29 1 .74.74 0 00-.29-1zM39.47 192.36a.73.73 0 00-1 .29.74.74 0 00.29 1 .75.75 0 001-.3.74.74 0 00-.29-.99zM36.88 197.1a.74.74 0 00-1 .29.75.75 0 00.3 1 .74.74 0 001-.3.73.73 0 00-.3-.99zM34.29 201.84a.74.74 0 10-.71 1.3.74.74 0 00.71-1.3zM54.77 153.13a.73.73 0 001-.29.74.74 0 00-.29-1 .75.75 0 00-1 .3.74.74 0 00.29.99zM52.17 157.87a.74.74 0 001-.29.75.75 0 00-.3-1 .74.74 0 00-1 .3.73.73 0 00.3.99zM49.58 162.61a.74.74 0 10-.29-1 .73.73 0 00.29 1zM47 167.36a.74.74 0 001-.3.73.73 0 00-.29-1 .74.74 0 00-1 .29.75.75 0 00.29 1.01zM45.1 170.8a.73.73 0 00-1 .29.74.74 0 00.29 1 .75.75 0 001-.3.74.74 0 00-.29-.99zM42.51 175.54a.74.74 0 10.29 1 .74.74 0 00-.29-1zM39.92 180.28a.74.74 0 10-.71 1.3.74.74 0 00.71-1.3zM37.32 185a.74.74 0 00-1 .3.73.73 0 00.29 1 .74.74 0 001-.29.75.75 0 00-.29-1.01zM34.73 189.76a.74.74 0 00-1 .3.73.73 0 00.29 1 .74.74 0 001-.29.75.75 0 00-.29-1.01zM32.14 194.51a.74.74 0 10-.71 1.29.74.74 0 10.71-1.29zM29.54 199.25a.73.73 0 00-1 .29.74.74 0 00.29 1 .75.75 0 001-.3.74.74 0 00-.29-.99zM50 150.54a.74.74 0 10-.3-1 .74.74 0 00.3 1zM47.43 155.28a.74.74 0 10.71-1.3.74.74 0 00-.71 1.3zM44.84 160a.73.73 0 001-.29.74.74 0 00-.29-1 .75.75 0 00-1 .3.74.74 0 00.29.99zM42.25 164.76a.73.73 0 001-.29.74.74 0 10-1.3-.71.73.73 0 00.3 1zM40.36 168.21a.74.74 0 00-.71 1.29.74.74 0 10.71-1.29zM37.77 173a.74.74 0 00-1 .29.75.75 0 00.3 1 .74.74 0 001-.3.73.73 0 00-.3-.99zM35.18 177.69a.74.74 0 10.29 1 .74.74 0 00-.29-1zM32.58 182.43a.73.73 0 00-1 .29.74.74 0 00.29 1 .75.75 0 001-.3.74.74 0 00-.29-.99zM30 187.17a.74.74 0 10-.71 1.3.74.74 0 00.71-1.3zM27.4 191.91a.75.75 0 00-1 .3.74.74 0 001.3.71.75.75 0 00-.3-1.01zM24.8 196.65a.74.74 0 00-1 .3.73.73 0 00.29 1 .74.74 0 001-.29.75.75 0 00-.29-1.01zM45.28 148a.75.75 0 001-.3.74.74 0 10-1 .3zM42.69 152.69a.75.75 0 001-.3.74.74 0 00-.3-1 .73.73 0 00-1 .29.74.74 0 00.3 1.01zM40.1 157.43a.74.74 0 10-.3-1 .75.75 0 00.3 1zM37.5 162.17a.74.74 0 10.71-1.3.74.74 0 00-1 .29.75.75 0 00.29 1.01zM35.62 165.61a.74.74 0 10.3 1 .75.75 0 00-.3-1zM33 170.35a.75.75 0 00-1 .3.74.74 0 00.3 1 .73.73 0 001-.29.74.74 0 00-.3-1.01zM30.43 175.09a.74.74 0 00-1 .3.74.74 0 001.3.71.74.74 0 00-.3-1.01zM27.84 179.84a.73.73 0 00-1 .29.74.74 0 00.29 1 .75.75 0 001-.3.74.74 0 00-.29-.99zM25.25 184.58a.74.74 0 00-1 .29.75.75 0 00.3 1 .74.74 0 001-.3.73.73 0 00-.3-.99zM22.65 189.32a.73.73 0 00-1 .29.74.74 0 101.3.71.73.73 0 00-.3-1zM20.06 194.06a.74.74 0 00-.71 1.3.74.74 0 10.71-1.3zM40.54 145.35a.74.74 0 001-.29.75.75 0 00-.3-1 .74.74 0 00-1 .3.73.73 0 00.3.99zM38 150.09a.73.73 0 001-.29.74.74 0 00-.29-1 .75.75 0 00-1 .3.74.74 0 00.29.99zM35.36 154.83a.74.74 0 10.71-1.29.74.74 0 10-.71 1.29zM32.76 159.58a.75.75 0 001-.3.74.74 0 00-.3-1 .73.73 0 00-1 .29.74.74 0 00.3 1.01zM30.88 163a.74.74 0 00-1 .29.75.75 0 00.3 1 .74.74 0 001-.3.73.73 0 00-.3-.99zM28.29 167.76a.74.74 0 10-.71 1.3.74.74 0 00.71-1.3zM25.69 172.5a.74.74 0 00-.71 1.3.74.74 0 10.71-1.3zM23.1 177.24a.75.75 0 00-1 .3.74.74 0 00.3 1 .73.73 0 001-.29.74.74 0 00-.3-1.01zM20.51 182a.75.75 0 00-1 .3.74.74 0 101-.3zM17.91 186.73a.74.74 0 00-.71 1.27.74.74 0 10.71-1.29zM15.32 191.47a.73.73 0 00-1 .29.74.74 0 101.29.71.73.73 0 00-.29-1zM35.8 142.76a.74.74 0 10.71-1.3.74.74 0 00-.71 1.3zM33.21 147.5a.74.74 0 00.71-1.3.74.74 0 10-.71 1.3zM30.61 152.24a.74.74 0 10-.29-1 .74.74 0 00.29 1zM28 157a.74.74 0 001-.29.75.75 0 00-.3-1 .74.74 0 00-1 .3.73.73 0 00.3.99zM26.14 160.43a.74.74 0 10-.71 1.29.74.74 0 10.71-1.29zM23.54 165.17a.73.73 0 00-1 .29.74.74 0 101.3.71.73.73 0 00-.3-1zM21 169.91a.73.73 0 00-1 .29.74.74 0 00.29 1 .75.75 0 001-.3.74.74 0 00-.29-.99zM18.36 174.65a.74.74 0 00-1 .29.75.75 0 00.3 1 .74.74 0 00.71-1.3zM15.77 179.39a.74.74 0 10.29 1 .74.74 0 00-.29-1zM13.17 184.13a.74.74 0 00-1 .3.73.73 0 00.29 1 .74.74 0 001-.29.75.75 0 00-.29-1.01zM10.58 188.87a.75.75 0 00-1 .3.74.74 0 00.3 1 .73.73 0 001-.29.74.74 0 00-.3-1.01zM31.06 140.17a.74.74 0 001-.3.74.74 0 00-1.29-.71.74.74 0 00.29 1.01zM28.47 144.91a.74.74 0 001-.3.73.73 0 00-.29-1 .74.74 0 00-1 .29.75.75 0 00.29 1.01zM25.87 149.65a.75.75 0 001-.3.74.74 0 00-.3-1 .73.73 0 00-1 .29.74.74 0 00.3 1.01zM23.28 154.39a.74.74 0 10-.29-1 .74.74 0 00.29 1zM21.4 157.83a.75.75 0 00-1 .3.74.74 0 00.3 1 .73.73 0 001-.29.74.74 0 00-.3-1.01zM18.8 162.57a.74.74 0 00-1 .3.73.73 0 00.29 1 .74.74 0 001-.29.75.75 0 00-.29-1.01zM16.21 167.31a.74.74 0 00-1 .3.74.74 0 101.29.71.74.74 0 00-.29-1.01zM13.62 172.06a.74.74 0 00-1 .29.75.75 0 00.3 1 .74.74 0 001-.3.73.73 0 00-.3-.99zM11 176.8a.73.73 0 00-1 .29.74.74 0 00.29 1 .75.75 0 001-.3.74.74 0 00-.29-.99zM8.43 181.54a.73.73 0 00-1 .29.74.74 0 101.29.71.73.73 0 00-.29-1zM5.84 186.28a.74.74 0 10-.71 1.3.74.74 0 00.71-1.3zM26.32 137.57a.73.73 0 001-.29.74.74 0 00-.29-1 .75.75 0 00-1 .3.74.74 0 00.29.99zM23.72 142.31a.74.74 0 001-.29.74.74 0 10-1.3-.71.74.74 0 00.3 1zM21.13 147.05a.74.74 0 10.71-1.29.74.74 0 00-.71 1.29zM18.54 151.8a.74.74 0 001-.3.73.73 0 00-.29-1 .74.74 0 00-1 .29.75.75 0 00.29 1.01zM16.66 155.24a.74.74 0 00-1 .29.74.74 0 101.3.71.74.74 0 00-.3-1zM14.06 160a.74.74 0 00-.71 1.3.74.74 0 10.71-1.3zM11.47 164.72a.75.75 0 00-1 .3.74.74 0 00.3 1 .73.73 0 001-.29.74.74 0 00-.3-1.01zM8.88 169.46a.75.75 0 00-1 .3.74.74 0 001.3.71.75.75 0 00-.3-1.01zM6.28 174.2a.74.74 0 00-1 .3.73.73 0 00.29 1 .74.74 0 001-.29.75.75 0 00-.29-1.01zM3.69 179a.74.74 0 10-.69 1.24.74.74 0 10.69-1.24zM1.1 183.69a.74.74 0 10.29 1 .74.74 0 00-.29-1zM126.15 190.62a.74.74 0 10.3 1 .74.74 0 00-.3-1zM123.56 195.36a.74.74 0 10.29 1 .74.74 0 00-.29-1zM121 200.1a.75.75 0 00-1 .3.74.74 0 00.3 1 .73.73 0 001-.29.74.74 0 00-.3-1.01zM118.37 204.84a.74.74 0 00-1 .3.73.73 0 00.29 1 .74.74 0 001-.29.75.75 0 00-.29-1.01zM115.78 209.59a.74.74 0 10.29 1 .73.73 0 00-.29-1zM113.19 214.33a.74.74 0 00-1 .29.75.75 0 00.3 1 .74.74 0 001-.3.73.73 0 00-.3-.99zM110.59 219.07a.73.73 0 00-1 .29.74.74 0 00.29 1 .75.75 0 001-.3.74.74 0 00-.29-.99zM108 223.81a.74.74 0 10.29 1 .74.74 0 00-.29-1zM105.41 228.55a.74.74 0 10-.71 1.3.74.74 0 00.71-1.3zM102.81 233.29a.74.74 0 00-1 .3.73.73 0 00.29 1 .74.74 0 001-.29.75.75 0 00-.29-1.01zM100.22 238a.74.74 0 00-1 .3.73.73 0 00.29 1 .74.74 0 001-.29.75.75 0 00-.29-1.01zM121.41 188a.73.73 0 00-1 .29.74.74 0 00.29 1 .75.75 0 001-.3.74.74 0 00-.29-.99zM118.82 192.77a.74.74 0 00-1 .29.75.75 0 00.3 1 .74.74 0 001-.3.73.73 0 00-.3-.99zM116.23 197.51a.74.74 0 10.29 1 .74.74 0 00-.29-1zM113.63 202.25a.74.74 0 00-.71 1.3.74.74 0 10.71-1.3zM111 207a.75.75 0 00-1 .3.74.74 0 00.3 1 .73.73 0 001-.29.74.74 0 00-.3-1.01zM108.45 211.73a.75.75 0 00-1 .3.74.74 0 001.3.71.75.75 0 00-.3-1.01zM105.85 216.47a.74.74 0 00-1 .3.73.73 0 00.29 1 .74.74 0 001-.29.75.75 0 00-.29-1.01zM103.26 221.22a.74.74 0 00-1 .29.75.75 0 00.3 1 .74.74 0 001-.3.73.73 0 00-.3-.99zM100.67 226a.74.74 0 10.29 1 .74.74 0 00-.29-1zM98.07 230.7a.73.73 0 00-1 .29.74.74 0 00.29 1 .75.75 0 001-.3.74.74 0 00-.29-.99zM95.48 235.44a.74.74 0 10-.71 1.3.74.74 0 00.71-1.3zM116.67 185.43a.74.74 0 00-1 .3.73.73 0 00.29 1 .74.74 0 001-.29.75.75 0 00-.29-1.01zM114.08 190.17a.75.75 0 00-1 .3.74.74 0 00.3 1 .73.73 0 001-.29.74.74 0 00-.3-1.01zM111.48 194.92a.73.73 0 00-1 .29.74.74 0 00.29 1 .75.75 0 001-.3.74.74 0 00-.29-.99zM108.89 199.66a.73.73 0 00-1 .29.74.74 0 00.29 1 .75.75 0 001-.3.74.74 0 00-.29-.99zM106.3 204.4a.74.74 0 00-1 .29.75.75 0 00.3 1 .74.74 0 001-.3.73.73 0 00-.3-.99zM103.7 209.14a.74.74 0 00-1 .29.74.74 0 101.3.71.74.74 0 00-.3-1zM101.11 213.88a.74.74 0 10.3 1 .75.75 0 00-.3-1zM98.52 218.62a.75.75 0 00-1 .3.74.74 0 00.3 1 .73.73 0 001-.29.74.74 0 00-.3-1.01zM95.92 223.36a.74.74 0 00-1 .3.74.74 0 001.3.71.74.74 0 00-.3-1.01zM93.33 228.11a.74.74 0 10-.71 1.29.74.74 0 10.71-1.29zM90.74 232.85a.74.74 0 00-1 .29.75.75 0 00.3 1 .74.74 0 001-.3.73.73 0 00-.3-.99zM111.93 182.84a.74.74 0 10-.71 1.3.74.74 0 00.71-1.3zM109.34 187.58a.75.75 0 00-1 .3.74.74 0 101-.3zM106.74 192.32a.74.74 0 00-1 .3.73.73 0 00.29 1 .74.74 0 001-.29.75.75 0 00-.29-1.01zM104.15 197.06a.75.75 0 00-1 .3.74.74 0 00.3 1 .73.73 0 001-.29.74.74 0 00-.3-1.01zM101.56 201.81a.74.74 0 10-.71 1.29.74.74 0 00.71-1.29zM99 206.55a.73.73 0 00-1 .29.74.74 0 00.29 1 .75.75 0 001-.3.74.74 0 00-.29-.99zM96.37 211.29a.73.73 0 00-1 .29.74.74 0 101.29.71.73.73 0 00-.29-1zM93.78 216a.74.74 0 10-.71 1.3.74.74 0 00.71-1.3zM91.18 220.77a.74.74 0 00-.71 1.3.74.74 0 10.71-1.3zM88.59 225.51a.74.74 0 00-1 .3.74.74 0 101.29.71.74.74 0 00-.29-1.01zM86 230.25a.75.75 0 00-1 .3.74.74 0 101-.3zM106.48 181.55a.74.74 0 001-.3.73.73 0 00-.29-1 .74.74 0 00-1 .29.75.75 0 00.29 1.01zM103.88 186.29a.75.75 0 001-.3.74.74 0 00-1.3-.71.75.75 0 00.3 1.01zM101.29 191a.75.75 0 001-.3.74.74 0 00-.3-1 .73.73 0 00-1 .29.74.74 0 00.3 1.01zM98.7 195.77a.74.74 0 00.71-1.3.74.74 0 10-.71 1.3zM96.81 199.21a.74.74 0 00-1 .3.74.74 0 001.3.71.74.74 0 00-.3-1.01zM94.22 204a.74.74 0 00-1 .3.73.73 0 00.29 1 .74.74 0 001-.29.75.75 0 00-.29-1.01zM91.63 208.7a.74.74 0 10-.71 1.29.74.74 0 00.71-1.29zM89 213.44a.74.74 0 00-1 .29.74.74 0 101.3.71.74.74 0 00-.3-1zM86.44 218.18a.73.73 0 00-1 .29.74.74 0 00.29 1 .75.75 0 001-.3.74.74 0 00-.29-.99zM83.85 222.92a.74.74 0 00-1 .29.75.75 0 00.3 1 .74.74 0 00.71-1.3zM81.26 227.66a.74.74 0 10.29 1 .74.74 0 00-.29-1zM101.74 179a.73.73 0 001-.29.74.74 0 00-.29-1 .75.75 0 00-1 .3.74.74 0 00.29.99zM99.14 183.69a.74.74 0 001-.29.75.75 0 00-.3-1 .74.74 0 00-1 .3.73.73 0 00.3.99zM96.55 188.44a.74.74 0 001-.3.74.74 0 00-1.29-.71.74.74 0 00.29 1.01zM94 193.18a.74.74 0 001-.3.73.73 0 00-.29-1 .74.74 0 00-1 .29.75.75 0 00.29 1.01zM92.07 196.62a.73.73 0 00-1 .29.74.74 0 00.29 1 .75.75 0 001-.3.74.74 0 00-.29-.99zM89.48 201.36a.74.74 0 10.29 1 .74.74 0 00-.29-1zM86.89 206.1a.75.75 0 00-1 .3.74.74 0 00.3 1 .73.73 0 001-.29.74.74 0 00-.3-1.01zM84.29 210.84a.74.74 0 00-1 .3.73.73 0 00.29 1 .74.74 0 001-.29.75.75 0 00-.29-1.01zM81.7 215.58a.74.74 0 00-1 .3.74.74 0 101.29.71.74.74 0 00-.29-1.01zM79.11 220.33a.74.74 0 00-1 .29.75.75 0 00.3 1 .74.74 0 001-.3.73.73 0 00-.3-.99zM76.51 225.07a.73.73 0 00-1 .29.74.74 0 00.29 1 .75.75 0 001-.3.74.74 0 00-.29-.99zM97 176.36a.74.74 0 10-.29-1 .74.74 0 00.29 1zM94.4 181.1a.74.74 0 10.71-1.3.74.74 0 00-.71 1.3zM91.81 185.84a.73.73 0 001-.29.74.74 0 00-.29-1 .75.75 0 00-1 .3.74.74 0 00.29.99zM89.21 190.58a.74.74 0 001-.29.74.74 0 10-1.3-.71.74.74 0 00.3 1zM87.33 194a.74.74 0 10-.71 1.29.74.74 0 10.71-1.29zM84.74 198.77a.74.74 0 00-1 .29.75.75 0 00.3 1 .74.74 0 001-.3.73.73 0 00-.3-.99zM82.15 203.51a.74.74 0 10.29 1 .74.74 0 00-.29-1zM79.55 208.25a.74.74 0 00-.71 1.3.74.74 0 10.71-1.3zM77 213a.75.75 0 00-1 .3.74.74 0 00.3 1 .74.74 0 00.7-1.3zM74.37 217.73a.75.75 0 00-1 .3.74.74 0 001.3.71.75.75 0 00-.3-1.01zM71.77 222.47a.74.74 0 00-1 .3.73.73 0 00.29 1 .74.74 0 001-.29.75.75 0 00-.29-1.01zM92.25 173.77a.75.75 0 001-.3.74.74 0 10-1 .3zM89.66 178.51a.74.74 0 001-.3.74.74 0 00-1.29-.71.74.74 0 00.29 1.01zM87.07 183.25a.74.74 0 00.71-1.3.74.74 0 10-.71 1.3zM84.47 188a.74.74 0 10.71-1.3.74.74 0 00-.71 1.3zM82.59 191.43a.74.74 0 00-1 .3.73.73 0 00.29 1 .74.74 0 001-.29.75.75 0 00-.29-1.01zM80 196.17a.75.75 0 00-1 .3.74.74 0 00.3 1 .73.73 0 001-.29.74.74 0 00-.3-1.01zM77.4 200.92a.74.74 0 00-.71 1.29.74.74 0 10.71-1.29zM74.81 205.66a.73.73 0 00-1 .29.74.74 0 00.29 1 .75.75 0 001-.3.74.74 0 00-.29-.99zM72.22 210.4a.74.74 0 00-1 .29.75.75 0 00.3 1 .74.74 0 001-.3.73.73 0 00-.3-.99zM69.62 215.14a.73.73 0 00-1 .29.74.74 0 101-.29zM67 219.88a.74.74 0 00-.71 1.3.74.74 0 10.71-1.3zM87.51 171.17a.74.74 0 001-.29.75.75 0 00-.3-1 .74.74 0 00-1 .3.73.73 0 00.3.99zM84.92 175.91a.73.73 0 001-.29.74.74 0 00-.29-1 .75.75 0 00-1 .3.74.74 0 00.29.99zM82.33 180.66a.74.74 0 001-.3.74.74 0 00-1.3-.71.74.74 0 00.3 1.01zM79.73 185.4a.75.75 0 001-.3.74.74 0 00-.3-1 .73.73 0 00-1 .29.74.74 0 00.3 1.01zM77.85 188.84a.74.74 0 00-1 .29.75.75 0 00.3 1 .74.74 0 00.71-1.3zM75.26 193.58a.74.74 0 10-.71 1.3.74.74 0 001-.29.75.75 0 00-.29-1.01zM72.66 198.32a.74.74 0 00-1 .3.73.73 0 00.29 1 .74.74 0 001-.29.75.75 0 00-.29-1.01zM70.07 203.06a.75.75 0 00-1 .3.74.74 0 00.3 1 .73.73 0 001-.29.74.74 0 00-.3-1.01zM67.48 207.8a.75.75 0 00-1 .3.74.74 0 101-.3zM64.88 212.55a.73.73 0 00-1 .29.74.74 0 00.29 1 .75.75 0 001-.3.74.74 0 00-.29-.99zM62.29 217.29a.74.74 0 00-1 .29.75.75 0 00.3 1 .74.74 0 001-.3.73.73 0 00-.3-.99zM82.77 168.58a.74.74 0 10.71-1.3.74.74 0 00-.71 1.3zM80.18 173.32a.73.73 0 001-.29.74.74 0 00-.29-1 .75.75 0 00-1 .3.74.74 0 00.29.99zM77.58 178.06a.74.74 0 001-.29.75.75 0 00-.3-1 .74.74 0 00-1 .3.74.74 0 00.3.99zM75 182.8a.74.74 0 001-.29.75.75 0 00-.3-1 .74.74 0 00-1 .3.73.73 0 00.3.99zM73.11 186.25a.74.74 0 10-.71 1.29.74.74 0 10.71-1.29zM70.51 191a.73.73 0 00-1 .29.74.74 0 101.3.71.73.73 0 00-.3-1zM67.92 195.73a.73.73 0 00-1 .29.74.74 0 00.29 1 .75.75 0 001-.3.74.74 0 00-.29-.99zM65.33 200.47a.74.74 0 10-.71 1.3.74.74 0 00.71-1.3zM62.73 205.21a.74.74 0 10.3 1 .74.74 0 00-.3-1zM60.14 210a.74.74 0 00-1 .3.73.73 0 00.29 1 .74.74 0 001-.29.75.75 0 00-.29-1.01zM57.55 214.69a.75.75 0 00-1 .3.74.74 0 00.3 1 .73.73 0 001-.29.74.74 0 00-.3-1.01zM78 166a.74.74 0 001-.3.73.73 0 00-.29-1 .74.74 0 00-1 .29A.75.75 0 0078 166zM75.44 170.73a.74.74 0 001-.3.73.73 0 00-.29-1 .74.74 0 00-1 .29.75.75 0 00.29 1.01zM72.84 175.47a.74.74 0 10.71-1.3.74.74 0 00-.71 1.3zM70.25 180.21a.74.74 0 00.71-1.3.75.75 0 00-1 .3.74.74 0 00.29 1zM68.37 183.65a.75.75 0 00-1 .3.74.74 0 101-.3zM65.77 188.39a.74.74 0 00-1 .3.73.73 0 00.29 1 .74.74 0 001-.29.75.75 0 00-.29-1.01zM63.18 193.14a.74.74 0 10.29 1 .73.73 0 00-.29-1zM60.59 197.88a.74.74 0 00-1 .29.75.75 0 00.3 1 .74.74 0 001-.3.73.73 0 00-.3-.99zM58 202.62a.73.73 0 00-1 .29.74.74 0 00.29 1 .75.75 0 001-.3.74.74 0 00-.29-.99zM55.4 207.36a.74.74 0 10.29 1 .74.74 0 00-.29-1zM52.81 212.1a.74.74 0 10.29 1 .74.74 0 00-.29-1z"/></g></g></svg>