<svg xmlns="http://www.w3.org/2000/svg" width="374" height="472"><path fill-rule="evenodd" fill="#FF92DF" d="M372.937 286.925a3.553 3.553 0 01-5.024 0 3.548 3.548 0 01.001-5.019 3.553 3.553 0 015.023-.001 3.548 3.548 0 010 5.02zm-23.355 18.323a3.55 3.55 0 010-5.021 3.554 3.554 0 015.023 0 3.55 3.55 0 010 5.021 3.554 3.554 0 01-5.023 0zm0-36.644a3.552 3.552 0 115.023 0 3.554 3.554 0 01-5.023 0zm-18.332 18.321a3.547 3.547 0 010-5.019 3.553 3.553 0 015.023-.001 3.552 3.552 0 01-5.023 5.02zm0-36.643a3.55 3.55 0 010-5.021 3.556 3.556 0 015.023 0 3.55 3.55 0 010 5.021 3.554 3.554 0 01-5.023 0zm-18.332 54.966a3.55 3.55 0 115.023-5.021 3.55 3.55 0 010 5.021 3.554 3.554 0 01-5.023 0zm0-36.644a3.548 3.548 0 010-5.02 3.553 3.553 0 015.023 0 3.548 3.548 0 010 5.02 3.554 3.554 0 01-5.023 0zm0-36.644a3.548 3.548 0 010-5.02 3.55 3.55 0 015.023 0 3.548 3.548 0 010 5.02 3.554 3.554 0 01-5.023 0zm-18.331 54.965a3.546 3.546 0 010-5.019 3.55 3.55 0 115.022 5.02 3.552 3.552 0 01-5.022-.001zm0-73.287a3.546 3.546 0 010-5.02 3.553 3.553 0 015.022 0 3.548 3.548 0 010 5.02 3.553 3.553 0 01-5.022 0zm-18.332 54.966a3.552 3.552 0 015.023-5.02 3.547 3.547 0 01-.001 5.02 3.553 3.553 0 01-5.022 0zm5.022-41.664a3.547 3.547 0 010 5.02 3.553 3.553 0 01-5.022 0 3.548 3.548 0 010-5.02 3.549 3.549 0 015.022 0zm-5.022-31.624a3.55 3.55 0 115.022-5.02 3.55 3.55 0 01-5.022 5.02zm-18.332 91.609a3.548 3.548 0 010-5.02 3.554 3.554 0 015.023 0 3.552 3.552 0 01-5.023 5.02zm0-36.643a3.55 3.55 0 010-5.021 3.556 3.556 0 015.023 0 3.55 3.55 0 010 5.021 3.554 3.554 0 01-5.023 0zm0-36.644a3.548 3.548 0 010-5.02 3.554 3.554 0 015.023 0 3.548 3.548 0 010 5.02 3.554 3.554 0 01-5.023 0zm0-36.643a3.55 3.55 0 115.023-5.022 3.55 3.55 0 11-5.023 5.022zm-18.332 91.609a3.552 3.552 0 115.023 0 3.554 3.554 0 01-5.023 0zm5.023-41.664a3.548 3.548 0 010 5.02 3.554 3.554 0 01-5.023 0 3.548 3.548 0 010-5.02 3.55 3.55 0 015.023 0zm-5.023-31.624a3.552 3.552 0 115.023 0 3.552 3.552 0 01-5.023 0zm0-36.643a3.55 3.55 0 010-5.021 3.556 3.556 0 015.023 0 3.55 3.55 0 010 5.021 3.554 3.554 0 01-5.023 0zm-18.331 91.609a3.548 3.548 0 010-5.021 3.554 3.554 0 015.022 0 3.548 3.548 0 010 5.021 3.553 3.553 0 01-5.022 0zm0-36.645a3.547 3.547 0 01-.001-5.019 3.554 3.554 0 015.023 0 3.55 3.55 0 11-5.022 5.019zm0-36.642a3.549 3.549 0 010-5.022 3.55 3.55 0 110 5.022zm0-36.644a3.55 3.55 0 115.022-5.02 3.55 3.55 0 01-5.022 5.02zm5.022 141.555a3.547 3.547 0 010 5.019 3.553 3.553 0 01-5.023.001 3.552 3.552 0 015.023-5.02zm-23.354-49.946a3.548 3.548 0 010-5.02 3.55 3.55 0 015.023 0 3.548 3.548 0 010 5.02 3.554 3.554 0 01-5.023 0zm0-109.932a3.552 3.552 0 115.023 0 3.554 3.554 0 01-5.023 0zm5.023 68.268a3.55 3.55 0 11-5.024 5.02 3.55 3.55 0 015.024-5.02zm-5.023-36.644a3.55 3.55 0 110 5.021 3.55 3.55 0 010-5.021zm5.022 109.932a3.547 3.547 0 01.001 5.02 3.555 3.555 0 01-5.024 0 3.55 3.55 0 015.023-5.02zm-23.354-13.302a3.55 3.55 0 010-5.021 3.556 3.556 0 015.023 0 3.55 3.55 0 010 5.021 3.554 3.554 0 01-5.023 0zm0-73.287a3.55 3.55 0 010-5.021 3.55 3.55 0 110 5.021zm5.023-41.664a3.55 3.55 0 010 5.02 3.553 3.553 0 01-5.023 0 3.552 3.552 0 015.023-5.02zm-5.023-31.624a3.55 3.55 0 010-5.021 3.556 3.556 0 015.023 0 3.55 3.55 0 010 5.021 3.554 3.554 0 01-5.023 0zm-18.332 54.966a3.55 3.55 0 010-5.021 3.555 3.555 0 015.023 0 3.55 3.55 0 010 5.021 3.554 3.554 0 01-5.023 0zm0-36.645a3.548 3.548 0 010-5.02 3.554 3.554 0 015.023 0 3.548 3.548 0 010 5.02 3.554 3.554 0 01-5.023 0zm-18.332 54.967a3.55 3.55 0 115.023-5.022 3.55 3.55 0 11-5.023 5.022zm0-36.646a3.546 3.546 0 010-5.018 3.55 3.55 0 110 5.018zm-18.331 18.324a3.548 3.548 0 010-5.021 3.55 3.55 0 110 5.021zm5.022 31.623a3.55 3.55 0 01.001 5.02 3.553 3.553 0 01-5.024 0 3.55 3.55 0 015.023-5.02zm0 146.575a3.548 3.548 0 010 5.02 3.553 3.553 0 01-5.023 0 3.548 3.548 0 010-5.02 3.554 3.554 0 015.023 0zm-23.354-123.233a3.548 3.548 0 010-5.02 3.554 3.554 0 015.023 0 3.548 3.548 0 010 5.02 3.554 3.554 0 01-5.023 0zm0-36.643a3.55 3.55 0 115.023-5.021 3.55 3.55 0 010 5.021 3.556 3.556 0 01-5.023 0zm-18.332 201.54a3.552 3.552 0 115.023 0 3.552 3.552 0 01-5.023 0zm5.023-41.664a3.552 3.552 0 11-5.023 0 3.554 3.554 0 015.023 0zm-5.023-31.623a3.55 3.55 0 010-5.021 3.554 3.554 0 015.023 0 3.55 3.55 0 010 5.021 3.554 3.554 0 01-5.023 0zm5.023-41.664a3.548 3.548 0 010 5.02 3.554 3.554 0 01-5.023 0 3.552 3.552 0 015.023-5.02zm-5.023-31.624a3.548 3.548 0 010-5.02 3.55 3.55 0 015.023 0 3.548 3.548 0 010 5.02 3.554 3.554 0 01-5.023 0zm0-36.644a3.552 3.552 0 115.023 0 3.552 3.552 0 01-5.023 0zM74.606 360.213a3.547 3.547 0 01-.001-5.02 3.554 3.554 0 015.023 0 3.55 3.55 0 11-5.022 5.02zm5.022-41.664a3.55 3.55 0 11-5.023 5.019 3.547 3.547 0 010-5.019 3.554 3.554 0 015.023 0zm-5.023-31.623a3.552 3.552 0 115.023 0 3.554 3.554 0 01-5.023 0zm.001-73.289a3.546 3.546 0 01-.001-5.019 3.554 3.554 0 015.023 0 3.55 3.55 0 11-5.022 5.019zm5.022 31.625a3.548 3.548 0 010 5.02 3.554 3.554 0 01-5.023 0 3.55 3.55 0 115.023-5.02zM56.273 231.96a3.548 3.548 0 010-5.02 3.55 3.55 0 015.023 0 3.547 3.547 0 010 5.02 3.554 3.554 0 01-5.023 0zm0 36.644a3.552 3.552 0 115.023 0 3.554 3.554 0 01-5.023 0zm5.023 31.623a3.55 3.55 0 010 5.021 3.554 3.554 0 01-5.023 0 3.55 3.55 0 010-5.021 3.554 3.554 0 015.023 0zm-23.354-13.302a3.548 3.548 0 01-.001-5.019 3.55 3.55 0 11.001 5.019zm-.001-36.643a3.551 3.551 0 115.024-5.021 3.551 3.551 0 01-5.024 5.021zM19.61 268.604a3.552 3.552 0 115.023 0 3.554 3.554 0 01-5.023 0zm5.023 31.623a3.55 3.55 0 010 5.021 3.554 3.554 0 01-5.023 0 3.55 3.55 0 010-5.021 3.554 3.554 0 015.023 0zM1.278 286.925a3.547 3.547 0 010-5.019 3.552 3.552 0 015.023 5.02 3.553 3.553 0 01-5.023-.001zm41.686 31.624a3.55 3.55 0 11-5.023 0 3.554 3.554 0 015.023 0zm18.332 18.322a3.548 3.548 0 010 5.02 3.553 3.553 0 01-5.023 0 3.55 3.55 0 010-5.02 3.554 3.554 0 015.023 0zm54.996-91.61a3.55 3.55 0 010 5.021 3.554 3.554 0 01-5.023 0 3.55 3.55 0 010-5.021 3.556 3.556 0 015.023 0zm-5.023 41.664a3.548 3.548 0 010-5.02 3.553 3.553 0 015.023.001 3.548 3.548 0 010 5.019 3.552 3.552 0 01-5.023 0zm5.023 31.624a3.547 3.547 0 010 5.019 3.552 3.552 0 01-5.023 0 3.547 3.547 0 010-5.019 3.554 3.554 0 015.023 0zm0 36.644a3.55 3.55 0 11-5.023 5.02 3.548 3.548 0 010-5.02 3.554 3.554 0 015.023 0zm0 36.644a3.548 3.548 0 010 5.02 3.554 3.554 0 01-5.023 0 3.548 3.548 0 010-5.02 3.554 3.554 0 015.023 0zm18.332-86.589a3.554 3.554 0 01-5.023 0 3.548 3.548 0 010-5.021 3.553 3.553 0 015.022 0 3.55 3.55 0 01.001 5.021zm-.001-41.664a3.548 3.548 0 010 5.02 3.553 3.553 0 01-5.022 0 3.548 3.548 0 01-.001-5.02 3.552 3.552 0 015.023 0zm-5.022-36.644a3.55 3.55 0 110 5.02 3.546 3.546 0 010-5.02zm5.023 146.575a3.55 3.55 0 11-5.024 5.02 3.55 3.55 0 015.024-5.02zm-.001 36.644a3.548 3.548 0 010 5.02 3.552 3.552 0 01-5.023-5.02 3.552 3.552 0 015.023 0zm18.332-54.966a3.55 3.55 0 010 5.021 3.556 3.556 0 01-5.023 0 3.55 3.55 0 010-5.021 3.554 3.554 0 015.023 0zm0-31.625a3.552 3.552 0 01-5.023 0 3.547 3.547 0 010-5.019 3.554 3.554 0 015.023 0 3.547 3.547 0 010 5.019zm0-41.662a3.548 3.548 0 010 5.02 3.553 3.553 0 01-5.023-.001 3.547 3.547 0 010-5.019 3.552 3.552 0 015.023 0zm-5.023-68.268a3.548 3.548 0 010-5.02 3.554 3.554 0 015.023 0 3.547 3.547 0 010 5.019 3.553 3.553 0 01-5.023.001zm5.023 36.644a3.554 3.554 0 01-5.023 0 3.55 3.55 0 010-5.021 3.556 3.556 0 015.023 0 3.55 3.55 0 010 5.021zm0 141.555a3.548 3.548 0 010 5.02 3.554 3.554 0 01-5.023 0 3.548 3.548 0 010-5.02 3.554 3.554 0 015.023 0zm0 36.644a3.55 3.55 0 11-5.023 5.02 3.55 3.55 0 015.023-5.02zm18.332-238.185a3.552 3.552 0 11-5.023 0 3.552 3.552 0 015.023 0zm-5.023 41.664a3.548 3.548 0 010-5.02 3.55 3.55 0 015.023 0 3.548 3.548 0 010 5.02 3.554 3.554 0 01-5.023 0zm5.023 31.624a3.548 3.548 0 010 5.02 3.554 3.554 0 01-5.023 0 3.552 3.552 0 015.023-5.02zm-5.023 41.664a3.55 3.55 0 010-5.021 3.554 3.554 0 015.023 0 3.55 3.55 0 010 5.021 3.554 3.554 0 01-5.023 0zm5.023 31.623a3.552 3.552 0 11-5.023 0 3.554 3.554 0 015.023 0zm0 36.644a3.552 3.552 0 11-5.023 0 3.552 3.552 0 015.023 0zm-5.023 41.664a3.552 3.552 0 115.023 0 3.554 3.554 0 01-5.023 0zm5.023 31.624a3.548 3.548 0 010 5.02 3.556 3.556 0 01-5.023 0 3.552 3.552 0 015.023-5.02zm18.332-238.185a3.548 3.548 0 010 5.02 3.554 3.554 0 01-5.023 0 3.548 3.548 0 010-5.02 3.554 3.554 0 015.023 0zm-5.023 78.307a3.548 3.548 0 010-5.02 3.554 3.554 0 015.023 0 3.552 3.552 0 01-5.023 5.02zm5.023 31.624a3.547 3.547 0 010 5.019 3.552 3.552 0 01-5.023 0 3.547 3.547 0 010-5.019 3.554 3.554 0 015.023 0zm-.001 36.644a3.548 3.548 0 01.001 5.02 3.554 3.554 0 01-5.023 0 3.552 3.552 0 015.022-5.02zm.001 36.644a3.548 3.548 0 010 5.02 3.554 3.554 0 01-5.023 0 3.548 3.548 0 010-5.02 3.556 3.556 0 015.023 0zm0 36.644a3.547 3.547 0 01-.001 5.019 3.549 3.549 0 01-5.022 0 3.547 3.547 0 010-5.019 3.554 3.554 0 015.023 0zm0 36.643a3.552 3.552 0 11-5.023 0 3.554 3.554 0 015.023 0zm18.332-18.322a3.55 3.55 0 01-.001 5.021 3.554 3.554 0 01-5.022 0 3.55 3.55 0 01-.001-5.02 3.554 3.554 0 015.024-.001zm-.001-31.623a3.55 3.55 0 11-5.022-5.02 3.55 3.55 0 015.022 5.02zm0-41.664a3.548 3.548 0 01.001 5.02 3.552 3.552 0 01-5.023-5.02 3.55 3.55 0 015.022 0zm-5.022-68.267a3.55 3.55 0 010-5.021 3.55 3.55 0 110 5.021zm5.022 36.643a3.552 3.552 0 01-5.023-5.02 3.554 3.554 0 015.023 0 3.546 3.546 0 010 5.02zm18.332-23.342a3.55 3.55 0 11-5.022 0 3.553 3.553 0 015.022 0zm-5.022 41.664a3.547 3.547 0 010-5.02 3.55 3.55 0 110 5.02zm5.022 31.624a3.547 3.547 0 010 5.02 3.553 3.553 0 01-5.022 0 3.546 3.546 0 010-5.02 3.553 3.553 0 015.022 0zm0 36.644a3.55 3.55 0 11-5.023 5.02 3.55 3.55 0 015.023-5.02zm18.332-128.254a3.55 3.55 0 010 5.021 3.554 3.554 0 01-5.023 0 3.55 3.55 0 010-5.021 3.554 3.554 0 015.023 0zm0 73.288a3.552 3.552 0 11-5.023 0 3.552 3.552 0 015.023 0zm-5.023-31.624a3.548 3.548 0 010-5.02 3.554 3.554 0 015.023 0 3.552 3.552 0 01-5.023 5.02zm5.023 68.268a3.548 3.548 0 010 5.02 3.554 3.554 0 01-5.023 0 3.552 3.552 0 015.023-5.02zm18.332-91.61a3.547 3.547 0 010 5.019 3.552 3.552 0 01-5.023 0 3.547 3.547 0 010-5.019 3.554 3.554 0 015.023 0zm-5.023 41.664a3.548 3.548 0 010-5.02 3.554 3.554 0 015.023 0 3.548 3.548 0 010 5.02 3.554 3.554 0 01-5.023 0zm5.023 31.624a3.548 3.548 0 010 5.02 3.554 3.554 0 01-5.023 0 3.548 3.548 0 010-5.02 3.556 3.556 0 015.023 0zm13.309-86.589a3.55 3.55 0 115.022-5.021 3.548 3.548 0 010 5.021 3.553 3.553 0 01-5.022 0zm5.022 31.623a3.547 3.547 0 01.001 5.02 3.553 3.553 0 01-5.023 0 3.548 3.548 0 010-5.02 3.553 3.553 0 015.022 0zm0 36.644a3.55 3.55 0 11-5.022 5.02 3.55 3.55 0 015.022-5.02zm18.332-128.254a3.55 3.55 0 11-5.022 5.021 3.548 3.548 0 010-5.021 3.554 3.554 0 015.022 0zm0 73.288a3.55 3.55 0 11-5.022 0 3.553 3.553 0 015.022 0zm0 36.644a3.55 3.55 0 01.001 5.02 3.55 3.55 0 11-5.023-5.02 3.553 3.553 0 015.022 0zm18.332-18.322a3.552 3.552 0 11-5.023 0 3.554 3.554 0 015.023 0zm18.332-18.322a3.547 3.547 0 010 5.019 3.552 3.552 0 01-5.023 0 3.547 3.547 0 010-5.019 3.554 3.554 0 015.023 0z"/><path fill-rule="evenodd" fill="#98FEC6" d="M151.815.259c66.896 0 121.127 54.201 121.127 121.063 0 66.859-54.231 121.061-121.127 121.061-66.896 0-121.127-54.202-121.127-121.061C30.688 54.46 84.919.259 151.815.259zm0 200.185c43.722 0 79.166-35.424 79.166-79.122 0-43.699-35.444-79.122-79.166-79.122-43.722 0-79.166 35.423-79.166 79.122 0 43.698 35.444 79.122 79.166 79.122z"/></svg>