<svg xmlns="http://www.w3.org/2000/svg" viewBox="0 0 220.67 222.2"><defs><style>.cls-3{fill:#fff}</style></defs><g id="Layer_2" data-name="Layer 2"><g id="OBJECTS"><path d="M156.89 222l-4.76-33a62.54 62.54 0 1128.76-117.21l19.28-27.14A95.68 95.68 0 10156.89 222z" fill="#ea6394"/><path fill="#fcea6d" d="M33.41 158.29L0 132.96l5.92-7.8 28.88 21.9 36-15.25 31.15 23.61 36.01-15.25 33.43 25.33-5.91 7.81-28.92-21.91-36.01 15.25-31.15-23.61-35.99 15.25z"/><path class="cls-3" d="M141 34.85a.74.74 0 10-1-.19.74.74 0 001 .19zM144.09 39.29a.74.74 0 00.18-1 .74.74 0 10-1.21.85.74.74 0 001.03.15zM147.16 43.73a.74.74 0 10-1-.18.74.74 0 001 .18zM150.24 48.18a.74.74 0 10-1-.19.74.74 0 001 .19zM153.51 51.59a.74.74 0 10-1.22.84.74.74 0 001 .19.75.75 0 00.22-1.03zM156.58 56a.74.74 0 00-1-.18.74.74 0 101 .18zM158.63 60.29a.74.74 0 00-.19 1 .75.75 0 001 .19.74.74 0 00-.84-1.22zM161.71 64.73a.74.74 0 101 .19.74.74 0 00-1-.19zM164.78 69.17a.74.74 0 101 .19.74.74 0 00-1-.19zM167.86 73.62a.74.74 0 101 .18.74.74 0 00-1-.18zM170.94 78.06a.74.74 0 101 .19.74.74 0 00-1-.19zM136.57 37.93a.74.74 0 10-1-.19.74.74 0 001 .19zM139.64 42.37a.74.74 0 10-1-.19.74.74 0 001 .19zM142.72 46.81a.74.74 0 00.19-1 .75.75 0 00-1-.19.74.74 0 10.84 1.22zM145.8 51.25a.75.75 0 00.19-1 .74.74 0 10-.19 1zM148.88 55.7a.74.74 0 10-1-.19.74.74 0 001 .19zM152 60.14a.74.74 0 10-1-.19.74.74 0 001 .19zM154.19 63.37a.74.74 0 101 .18.74.74 0 00-1-.18zM157.26 67.81a.74.74 0 00-.18 1 .75.75 0 001 .19.74.74 0 00-.85-1.22zM160.34 72.25a.74.74 0 101 .19.74.74 0 00-1-.19zM163.42 76.69a.74.74 0 101 .19.74.74 0 00-1-.19zM166.49 81.14a.74.74 0 101 .18.74.74 0 00-1-.18zM132.12 41a.74.74 0 10-.84-1.21.75.75 0 00-.19 1 .74.74 0 001.03.21zM135.2 45.45a.74.74 0 10-1-.19.74.74 0 001 .19zM138.28 49.89a.75.75 0 00.19-1 .74.74 0 10-.19 1zM141.36 54.33a.74.74 0 00.18-1 .75.75 0 00-1-.19.74.74 0 00.85 1.22zM144.43 58.77a.74.74 0 10-1-.18.74.74 0 001 .18zM147.51 63.22a.74.74 0 10-1-.19.74.74 0 001 .19zM149.74 66.44a.74.74 0 101 .19.74.74 0 00-1-.19zM152.82 70.89a.74.74 0 101 .18.74.74 0 00-1-.18zM155.9 75.33a.74.74 0 00-.19 1 .74.74 0 10.19-1zM159 79.77a.74.74 0 101 .19.74.74 0 00-1-.19zM162.05 84.21a.75.75 0 00-.19 1 .74.74 0 10.19-1zM127.68 44.08a.74.74 0 10-1-.19.74.74 0 001 .19zM130.76 48.52a.75.75 0 00.19-1 .74.74 0 10-.19 1zM133.84 53a.74.74 0 10-1-.19.74.74 0 001 .19zM136.91 57.41a.74.74 0 10-1-.19.74.74 0 001 .19zM139.15 60.63a.74.74 0 101 .19.75.75 0 00-1-.19zM142.22 65.08a.74.74 0 101 .18.74.74 0 00-1-.18zM145.3 69.52a.74.74 0 101 .19.74.74 0 00-1-.19zM148.38 74a.74.74 0 101 .19.74.74 0 00-1-.19zM151.45 78.41a.75.75 0 00-.18 1 .74.74 0 001 .18.74.74 0 10-.85-1.21zM154.53 82.85a.75.75 0 00-.19 1 .74.74 0 101.22-.85.75.75 0 00-1.03-.15zM157.61 87.29a.74.74 0 101 .19.74.74 0 00-1-.19zM123.24 47.16a.74.74 0 10-1-.19.74.74 0 001 .19zM126.32 51.6a.74.74 0 10-1-.19.74.74 0 001 .19zM129.39 56a.74.74 0 10-1-.18.74.74 0 001 .18zM132.47 60.49a.74.74 0 10-1-.19.74.74 0 001 .19zM134.7 63.71a.74.74 0 101 .19.74.74 0 00-1-.19zM137.78 68.15a.74.74 0 101 .19.74.74 0 00-1-.19zM140.86 72.6a.74.74 0 101 .18.74.74 0 00-1-.18zM143.94 77a.74.74 0 10.84 1.22.75.75 0 00.19-1 .74.74 0 00-1.03-.22zM147 81.48a.74.74 0 101 .19.74.74 0 00-1-.19zM150.09 85.92a.74.74 0 10.84 1.22.74.74 0 00.19-1 .75.75 0 00-1.03-.22zM153.17 90.37a.74.74 0 101 .18.74.74 0 00-1-.18zM118.8 50.23a.74.74 0 10-1-.18.74.74 0 001 .18zM121.87 54.68a.74.74 0 10-1-.19.74.74 0 001 .19zM125 59.12a.74.74 0 10-1-.19.74.74 0 001 .19zM128 63.56a.74.74 0 10-1-.18.74.74 0 001 .18zM130.26 66.79a.74.74 0 101 .19.74.74 0 00-1-.19zM133.34 71.23a.74.74 0 101 .19.74.74 0 00-1-.19zM136.42 75.67a.74.74 0 101 .19.74.74 0 00-1-.19zM139.49 80.12a.74.74 0 101 .18.74.74 0 00-1-.18zM142.57 84.56a.74.74 0 101 .19.74.74 0 00-1-.19zM145.65 89a.74.74 0 101 .19.74.74 0 00-1-.19zM148.72 93.44a.74.74 0 101 .19.75.75 0 00-1-.19zM114.35 53.31a.74.74 0 00.19-1 .74.74 0 10-.19 1zM117.43 57.75a.74.74 0 10-1-.18.74.74 0 001 .18zM120.51 62.2a.74.74 0 10-1-.19.74.74 0 001 .19zM123.58 66.64a.74.74 0 00-.84-1.22.75.75 0 00-.19 1 .74.74 0 001.03.22zM125.82 69.87a.74.74 0 101 .18.74.74 0 00-1-.18zM128.9 74.31a.74.74 0 00-.19 1 .74.74 0 10.19-1zM132 78.75a.74.74 0 101 .19.74.74 0 00-1-.19zM135.05 83.19a.74.74 0 101 .19.74.74 0 00-1-.19zM138.13 87.64a.74.74 0 101 .18.74.74 0 00-1-.18zM141.2 92.08a.74.74 0 101 .19.74.74 0 00-1-.19zM144.28 96.52a.74.74 0 101 .19.74.74 0 00-1-.19zM109.91 56.39a.74.74 0 10-1-.19.74.74 0 001 .19zM113 60.83a.74.74 0 00.18-1 .75.75 0 00-1-.19.74.74 0 00.85 1.22zM116.06 65.27a.74.74 0 10-.84-1.21.75.75 0 00-.19 1 .74.74 0 001.03.21zM119.14 69.72a.74.74 0 10-1-.19.74.74 0 001 .19zM121.38 72.94a.74.74 0 101 .19.74.74 0 00-1-.19zM124.45 77.39a.74.74 0 101 .18.74.74 0 00-1-.18zM127.53 81.83a.74.74 0 00-.19 1 .74.74 0 101.22-.85.74.74 0 00-1.03-.15zM130.61 86.27a.74.74 0 101 .19.74.74 0 00-1-.19zM133.68 90.71a.74.74 0 101 .19.74.74 0 00-1-.19zM136.76 95.16a.74.74 0 101 .18.74.74 0 00-1-.18zM139.84 99.6a.74.74 0 101 .19.74.74 0 00-1-.19zM105.47 59.47a.74.74 0 10-1-.19.75.75 0 001 .19zM108.55 63.91a.74.74 0 00-.85-1.22.74.74 0 10.85 1.22zM111.62 68.35a.74.74 0 10-1-.19.74.74 0 001 .19zM114.7 72.79a.74.74 0 10-1-.18.74.74 0 001 .18zM116.93 76a.74.74 0 101 .19.74.74 0 00-1-.19zM120 80.46a.74.74 0 101 .19.74.74 0 00-1-.19zM123.09 84.9a.74.74 0 10.84 1.22.74.74 0 00.19-1 .75.75 0 00-1.03-.22zM126.16 89.35a.74.74 0 101 .18.74.74 0 00-1-.18zM129.24 93.79a.74.74 0 101 .19.74.74 0 00-1-.19zM132.32 98.23a.74.74 0 101 .19.74.74 0 00-1-.19zM135.4 102.68a.74.74 0 10.84 1.21.75.75 0 00.19-1 .74.74 0 00-1.03-.21zM101 62.54a.74.74 0 10-1-.18.74.74 0 001 .18zM104.1 67a.74.74 0 10-1-.19.75.75 0 001 .19zM107.18 71.43a.74.74 0 10-1-.19.74.74 0 001 .19zM110.26 75.87a.74.74 0 10-1-.19.74.74 0 001 .19zM112.49 79.1a.74.74 0 101 .18.74.74 0 00-1-.18zM115.57 83.54a.74.74 0 101 .19.74.74 0 00-1-.19zM118.64 88a.74.74 0 101 .19.74.74 0 00-1-.19zM121.72 92.42a.75.75 0 00-.19 1 .74.74 0 10.19-1zM124.8 96.87a.74.74 0 101 .18.74.74 0 00-1-.18zM127.88 101.31a.74.74 0 10.84 1.22.75.75 0 00.19-1 .74.74 0 00-1.03-.22zM131 105.75a.74.74 0 101 .19.74.74 0 00-1-.19zM96.58 65.62a.74.74 0 10-1-.19.74.74 0 001 .19zM99.66 70.06a.74.74 0 10-1-.18.74.74 0 001 .18zM102.74 74.51a.74.74 0 10-1-.19.75.75 0 001 .19zM105.81 79a.74.74 0 10-1-.19.74.74 0 001 .19zM108.05 82.17a.74.74 0 101 .19.74.74 0 00-1-.19zM111.12 86.62a.74.74 0 101 .18.74.74 0 00-1-.18zM114.2 91.06a.74.74 0 101 .19.74.74 0 00-1-.19zM117.28 95.5a.74.74 0 101 .19.74.74 0 00-1-.19zM120.36 99.94a.74.74 0 101 .19.75.75 0 00-1-.19zM123.43 104.39a.74.74 0 101 .18.74.74 0 00-1-.18zM126.51 108.83a.74.74 0 101 .19.74.74 0 00-1-.19zM188.74.13a.74.74 0 101 .19.74.74 0 00-1-.19zM191.81 4.57a.74.74 0 101 .19.75.75 0 00-1-.19zM194.89 9a.75.75 0 00-.19 1 .74.74 0 10.19-1zM198 13.46a.74.74 0 101 .19.74.74 0 00-1-.19zM201.05 17.9a.74.74 0 101 .19.74.74 0 00-1-.19zM204.12 22.35a.74.74 0 101 .18.74.74 0 00-1-.18zM207.2 26.79a.74.74 0 00-.19 1 .75.75 0 001 .19.74.74 0 00-.84-1.22zM210.28 31.23a.74.74 0 101 .19.74.74 0 00-1-.19zM213.35 35.67a.74.74 0 101 .19.74.74 0 00-1-.19zM216.43 40.12a.74.74 0 101 .18.74.74 0 00-1-.18zM219.51 44.56a.74.74 0 101 .19.74.74 0 00-1-.19zM184.29 3.21a.74.74 0 101 .19.74.74 0 00-1-.19zM187.37 7.65a.75.75 0 00-.19 1 .74.74 0 10.19-1zM190.45 12.09a.74.74 0 101 .19.75.75 0 00-1-.19zM193.53 16.54a.74.74 0 101 .18.74.74 0 00-1-.18zM196.6 21a.74.74 0 101 .19.74.74 0 00-1-.19zM199.68 25.42a.74.74 0 101 .19.74.74 0 00-1-.19zM202.76 29.87a.74.74 0 101 .18.74.74 0 00-1-.18zM205.83 34.31a.74.74 0 00-.18 1 .75.75 0 001 .19.74.74 0 00-.85-1.22zM208.91 38.75a.74.74 0 101 .19.74.74 0 00-1-.19zM212 43.19a.74.74 0 101 .19.74.74 0 00-1-.19zM215.07 47.64a.74.74 0 10.84 1.21.75.75 0 00.19-1 .74.74 0 00-1.03-.21zM179.85 6.29a.74.74 0 10.85 1.21.74.74 0 10-.85-1.21zM182.93 10.73a.74.74 0 00-.19 1 .75.75 0 001 .19.74.74 0 10-.84-1.22zM186 15.17a.74.74 0 101 .19.74.74 0 00-1-.19zM189.08 19.61a.74.74 0 101 .19.75.75 0 00-1-.19zM192.16 24.06a.74.74 0 101 .18.74.74 0 00-1-.18zM195.24 28.5a.74.74 0 101 .19.74.74 0 00-1-.19zM198.31 32.94a.74.74 0 101 .19.74.74 0 00-1-.19zM201.39 37.38a.76.76 0 00-.19 1 .74.74 0 001.22-.85.75.75 0 00-1.03-.15zM204.47 41.83a.74.74 0 101 .18.74.74 0 00-1-.18zM207.55 46.27a.74.74 0 10.84 1.22.75.75 0 00.19-1 .74.74 0 00-1.03-.22zM210.62 50.71a.74.74 0 101 .19.74.74 0 00-1-.19zM175.41 9.36a.74.74 0 101 .19.74.74 0 00-1-.19zM178.49 13.81a.74.74 0 101 .18.74.74 0 00-1-.18zM181.56 18.25a.74.74 0 00-.18 1 .75.75 0 001 .19.74.74 0 00-.85-1.22zM184.64 22.69a.74.74 0 101 .19.74.74 0 00-1-.19zM187.72 27.13a.74.74 0 101 .19.74.74 0 00-1-.19zM190.79 31.58a.74.74 0 101 .18.74.74 0 00-1-.18zM193.87 36a.74.74 0 101 .19.74.74 0 00-1-.19zM197 40.46a.74.74 0 101 .19.74.74 0 00-1-.19zM200 44.9a.74.74 0 101 .19.75.75 0 00-1-.19zM203.1 49.35a.74.74 0 101 .18.74.74 0 00-1-.18zM206.18 53.79a.74.74 0 101 .19.74.74 0 00-1-.19zM171.81 13.66a.74.74 0 10-1-.19.74.74 0 001 .19zM174.89 18.1a.74.74 0 10-1-.19.74.74 0 001 .19zM178 22.54a.74.74 0 10-1-.18.74.74 0 001 .18zM181 27a.74.74 0 10-1-.19.74.74 0 001 .19zM183.27 30.21a.74.74 0 101 .19.74.74 0 00-1-.19zM186.35 34.65a.75.75 0 00-.19 1 .74.74 0 10.19-1zM189.43 39.1a.74.74 0 101 .18.74.74 0 00-1-.18zM192.51 43.54a.74.74 0 101 .19.74.74 0 00-1-.19zM195.58 48a.74.74 0 101 .19.74.74 0 00-1-.19zM198.66 52.42a.74.74 0 101 .19.74.74 0 00-1-.19zM201.74 56.87a.74.74 0 101 .18.74.74 0 00-1-.18zM167.37 16.73a.74.74 0 10-1-.18.74.74 0 001 .18zM170.44 21.18a.74.74 0 10-1-.19.74.74 0 001 .19zM173.52 25.62a.74.74 0 10-1-.19.74.74 0 001 .19zM176.6 30.06a.74.74 0 10-1-.18.74.74 0 001 .18zM178.83 33.29a.75.75 0 00-.19 1 .76.76 0 001 .19.74.74 0 00-.85-1.22zM181.91 37.73a.74.74 0 101 .19.74.74 0 00-1-.19zM185 42.17a.74.74 0 101 .19.74.74 0 00-1-.19zM188.06 46.62a.74.74 0 101 .18.74.74 0 00-1-.18zM191.14 51.06a.74.74 0 101 .19.74.74 0 00-1-.19zM194.22 55.5a.74.74 0 101 .19.74.74 0 00-1-.19zM197.29 59.94a.74.74 0 101 .19.75.75 0 00-1-.19zM162.92 19.81a.74.74 0 00-.84-1.22.75.75 0 00-.19 1 .74.74 0 001.03.22zM166 24.25a.74.74 0 10-1-.18.74.74 0 001 .18zM169.08 28.7a.75.75 0 00.19-1 .74.74 0 10-.19 1zM172.16 33.14a.74.74 0 10-1-.19.74.74 0 001 .19zM174.39 36.36a.75.75 0 00-.19 1 .74.74 0 001.22-.85.75.75 0 00-1.03-.15zM177.47 40.81a.74.74 0 101 .18.74.74 0 00-1-.18zM180.54 45.25a.74.74 0 101 .19.74.74 0 00-1-.19zM183.62 49.69a.74.74 0 101 .19.74.74 0 00-1-.19zM186.7 54.14a.74.74 0 101 .18.74.74 0 00-1-.18zM189.77 58.58a.74.74 0 00-.18 1 .75.75 0 001 .19.74.74 0 00-.85-1.22zM192.85 63a.75.75 0 00-.19 1 .74.74 0 10.19-1zM158.48 22.89a.74.74 0 10-1-.19.74.74 0 001 .19zM161.56 27.33a.74.74 0 10-1-.19.74.74 0 001 .19zM164.64 31.77a.74.74 0 10-1-.18.74.74 0 001 .18zM167.71 36.22a.74.74 0 10-1-.19.74.74 0 001 .19zM170 39.44a.74.74 0 101 .19.74.74 0 00-1-.19zM173 43.88a.74.74 0 101 .19.75.75 0 00-1-.19zM176.1 48.33a.74.74 0 101 .18.74.74 0 00-1-.18zM179.18 52.77a.74.74 0 101 .19.74.74 0 00-1-.19zM182.25 57.21a.74.74 0 101 .19.74.74 0 00-1-.19zM185.33 61.66a.75.75 0 00-.19 1 .74.74 0 10.19-1zM188.41 66.1a.74.74 0 00-.19 1 .75.75 0 001 .19.74.74 0 10-.84-1.22zM154 26a.75.75 0 00.19-1 .74.74 0 10-.19 1zM157.12 30.41a.74.74 0 10-1-.19.74.74 0 001 .19zM160.19 34.85a.74.74 0 10-1-.19.74.74 0 001 .19zM163.27 39.29a.74.74 0 10-1-.18.74.74 0 001 .18zM165.5 42.52a.74.74 0 101 .19.74.74 0 00-1-.19zM168.58 47a.74.74 0 101 .19.74.74 0 00-1-.19zM171.66 51.4a.74.74 0 101 .19.75.75 0 00-1-.19zM174.73 55.85a.75.75 0 00-.18 1 .74.74 0 001 .18.74.74 0 10-.85-1.21zM177.81 60.29a.74.74 0 101 .19.74.74 0 00-1-.19zM180.89 64.73a.74.74 0 101 .19.74.74 0 00-1-.19zM184 69.18a.74.74 0 101 .18.74.74 0 00-1-.18zM149.6 29a.74.74 0 10-1-.18.74.74 0 001 .18zM152.67 33.49a.74.74 0 10-1-.19.75.75 0 001 .19zM155.75 37.93a.74.74 0 10-1-.19.74.74 0 001 .19zM158.83 42.37a.74.74 0 10-1-.19.74.74 0 001 .19zM161.06 45.6a.75.75 0 00-.19 1 .74.74 0 10.19-1zM164.14 50a.74.74 0 101 .19.74.74 0 00-1-.19zM167.22 54.48a.74.74 0 10.84 1.22.75.75 0 00.19-1 .74.74 0 00-1.03-.22zM170.29 58.92a.74.74 0 101 .19.75.75 0 00-1-.19zM173.37 63.37a.74.74 0 101 .18.74.74 0 00-1-.18zM176.45 67.81a.74.74 0 101 .19.74.74 0 00-1-.19zM179.52 72.25a.74.74 0 101 .19.74.74 0 00-1-.19zM145.15 32.12a.74.74 0 10-1-.19.74.74 0 001 .19zM148.23 36.56a.74.74 0 00.19-1 .74.74 0 10-1.22.85.74.74 0 001.03.15zM151.31 41a.74.74 0 10-1-.18.74.74 0 001 .18zM154.38 45.45a.74.74 0 10-1-.19.74.74 0 001 .19zM156.62 48.67a.74.74 0 101 .19.74.74 0 00-1-.19zM159.7 53.12a.74.74 0 10.84 1.21.75.75 0 00.19-1 .74.74 0 00-1.03-.21zM162.77 57.56a.74.74 0 00-.18 1 .75.75 0 001 .19.74.74 0 00-.85-1.22zM165.85 62a.74.74 0 101 .19.74.74 0 00-1-.19zM168.93 66.44a.74.74 0 101 .19.74.74 0 00-1-.19zM172 70.89a.74.74 0 101 .18.74.74 0 00-1-.18zM175.08 75.33a.74.74 0 101 .19.74.74 0 00-1-.19z"/></g></g></svg>