<svg xmlns="http://www.w3.org/2000/svg" width="394" height="375"><path fill-rule="evenodd" fill="#DBE2E9" d="M392.936 189.925a3.552 3.552 0 01-5.023 0 3.548 3.548 0 01.001-5.019 3.553 3.553 0 015.022-.002 3.548 3.548 0 010 5.021zm-23.354 18.322a3.547 3.547 0 010-5.019 3.552 3.552 0 015.023 0 3.547 3.547 0 010 5.019 3.554 3.554 0 01-5.023 0zm0-36.644a3.548 3.548 0 010-5.02 3.554 3.554 0 015.023 0 3.552 3.552 0 01-5.023 5.02zm-18.332 18.322a3.547 3.547 0 010-5.019 3.55 3.55 0 115.023 5.019 3.552 3.552 0 01-5.023 0zm0-36.643a3.55 3.55 0 010-5.021 3.554 3.554 0 015.023 0 3.55 3.55 0 010 5.021 3.556 3.556 0 01-5.023 0zm-18.332 54.965a3.548 3.548 0 010-5.019 3.552 3.552 0 015.023 0 3.547 3.547 0 010 5.019 3.554 3.554 0 01-5.023 0zm0-36.644a3.548 3.548 0 010-5.02 3.554 3.554 0 015.023 0 3.552 3.552 0 01-5.023 5.02zm0-36.644a3.547 3.547 0 010-5.019 3.552 3.552 0 015.023 0 3.547 3.547 0 010 5.019 3.552 3.552 0 01-5.023 0zm-18.331 54.966a3.546 3.546 0 010-5.019 3.55 3.55 0 110 5.019zm0-73.287a3.55 3.55 0 115.022-5.02 3.55 3.55 0 01-5.022 5.02zm-18.332 54.965a3.547 3.547 0 010-5.02 3.554 3.554 0 015.023 0 3.55 3.55 0 01-5.023 5.02zm5.022-41.663a3.55 3.55 0 11-5.022 5.017 3.55 3.55 0 015.022-5.017zm-5.022-31.624a3.55 3.55 0 115.022-5.021 3.548 3.548 0 010 5.021 3.553 3.553 0 01-5.022 0zm-18.332 91.609a3.55 3.55 0 010-5.021 3.556 3.556 0 015.023 0 3.552 3.552 0 01-5.023 5.021zm0-36.643a3.55 3.55 0 010-5.021 3.554 3.554 0 015.023 0 3.55 3.55 0 010 5.021 3.556 3.556 0 01-5.023 0zm0-36.644a3.552 3.552 0 115.023 0 3.556 3.556 0 01-5.023 0zm0-36.644a3.55 3.55 0 010-5.021 3.556 3.556 0 015.023 0 3.55 3.55 0 010 5.021 3.554 3.554 0 01-5.023 0zm-18.332 91.609a3.548 3.548 0 010-5.02 3.554 3.554 0 015.023 0 3.552 3.552 0 01-5.023 5.02zm5.023-41.663a3.547 3.547 0 010 5.019 3.552 3.552 0 01-5.023 0 3.547 3.547 0 010-5.019 3.552 3.552 0 015.023 0zm-5.023-31.624a3.55 3.55 0 010-5.021 3.554 3.554 0 015.023 0 3.55 3.55 0 010 5.021 3.554 3.554 0 01-5.023 0zm0-36.644a3.548 3.548 0 010-5.02 3.554 3.554 0 015.023 0 3.552 3.552 0 01-5.023 5.02zm-18.331 91.61a3.548 3.548 0 010-5.021 3.55 3.55 0 110 5.021zm0-36.645a3.547 3.547 0 01-.001-5.019 3.55 3.55 0 11.001 5.019zm0-36.643a3.548 3.548 0 010-5.021 3.55 3.55 0 110 5.021zm0-36.644a3.545 3.545 0 010-5.019 3.549 3.549 0 015.022 0 3.547 3.547 0 010 5.019 3.553 3.553 0 01-5.022 0zm5.022 141.556a3.547 3.547 0 010 5.019 3.55 3.55 0 110-5.019zm-23.354-49.947a3.547 3.547 0 010-5.019 3.552 3.552 0 015.023 0 3.547 3.547 0 010 5.019 3.552 3.552 0 01-5.023 0zm0-109.931a3.548 3.548 0 010-5.02 3.554 3.554 0 015.023 0 3.548 3.548 0 010 5.02 3.554 3.554 0 01-5.023 0zm5.023 68.267a3.549 3.549 0 01-.001 5.021 3.553 3.553 0 01-5.022 0 3.55 3.55 0 01-.001-5.021 3.555 3.555 0 015.024 0zm-5.023-36.643a3.553 3.553 0 015.023 0 3.552 3.552 0 11-5.023 0zm5.022 109.931a3.547 3.547 0 01.001 5.02 3.553 3.553 0 01-5.024 0 3.55 3.55 0 01.001-5.02 3.553 3.553 0 015.022 0zm-23.354-13.301a3.55 3.55 0 010-5.021 3.554 3.554 0 015.023 0 3.55 3.55 0 010 5.021 3.556 3.556 0 01-5.023 0zm0-73.288a3.548 3.548 0 010-5.02 3.55 3.55 0 115.023 5.02 3.554 3.554 0 01-5.023 0zm5.023-41.663a3.548 3.548 0 010 5.019 3.553 3.553 0 01-5.023 0 3.55 3.55 0 115.023-5.019zm-5.023-31.624a3.552 3.552 0 115.023 0 3.554 3.554 0 01-5.023 0zm-18.332 54.965a3.548 3.548 0 010-5.02 3.553 3.553 0 015.023 0 3.552 3.552 0 01-5.023 5.02zm0-36.644a3.548 3.548 0 010-5.02 3.555 3.555 0 015.023 0 3.548 3.548 0 010 5.02 3.554 3.554 0 01-5.023 0zm-18.332 54.966a3.55 3.55 0 010-5.021 3.556 3.556 0 015.023 0 3.55 3.55 0 010 5.021 3.554 3.554 0 01-5.023 0zm0-36.644a3.552 3.552 0 015.023-5.021 3.55 3.55 0 010 5.021 3.553 3.553 0 01-5.023 0zM149.6 61.672a3.548 3.548 0 010-5.02 3.553 3.553 0 015.024 0 3.55 3.55 0 010 5.02 3.553 3.553 0 01-5.024 0zm5.023 31.623a3.55 3.55 0 11-5.023 5.021 3.55 3.55 0 010-5.021 3.554 3.554 0 015.023 0zm0 146.576a3.548 3.548 0 010 5.02 3.554 3.554 0 01-5.023 0 3.548 3.548 0 010-5.02 3.554 3.554 0 015.023 0zm-23.354-123.233a3.552 3.552 0 115.023 0 3.556 3.556 0 01-5.023 0zm0-36.644a3.55 3.55 0 115.022-5.02 3.547 3.547 0 01.001 5.02 3.554 3.554 0 01-5.023 0zm-18.332 201.541a3.548 3.548 0 010-5.02 3.554 3.554 0 015.023 0 3.552 3.552 0 01-5.023 5.02zm5.023-41.664a3.552 3.552 0 11-5.023 0 3.554 3.554 0 015.023 0zm-5.023-31.624a3.547 3.547 0 010-5.019 3.552 3.552 0 015.023 0 3.547 3.547 0 010 5.019 3.554 3.554 0 01-5.023 0zm5.023-41.664a3.552 3.552 0 11-5.023 0 3.554 3.554 0 015.023 0zm-5.023-31.624a3.547 3.547 0 010-5.019 3.552 3.552 0 015.023 0 3.547 3.547 0 010 5.019 3.552 3.552 0 01-5.023 0zm0-36.643a3.55 3.55 0 010-5.021 3.554 3.554 0 015.023 0 3.55 3.55 0 010 5.021 3.554 3.554 0 01-5.023 0zM94.605 263.213a3.548 3.548 0 010-5.02 3.554 3.554 0 015.023 0 3.548 3.548 0 010 5.02 3.554 3.554 0 01-5.023 0zm5.023-41.664a3.55 3.55 0 11-5.023 5.019 3.546 3.546 0 010-5.018 3.553 3.553 0 015.023-.001zm-5.023-31.623a3.552 3.552 0 115.023 0 3.554 3.554 0 01-5.023 0zm0-73.289a3.547 3.547 0 010-5.019 3.552 3.552 0 015.023 5.02 3.554 3.554 0 01-5.023-.001zm5.023 31.625a3.548 3.548 0 010 5.02 3.556 3.556 0 01-5.023 0 3.55 3.55 0 115.023-5.02zm-23.355-13.303a3.547 3.547 0 010-5.019 3.552 3.552 0 015.023 0 3.547 3.547 0 010 5.019 3.552 3.552 0 01-5.023 0zm0 36.644a3.55 3.55 0 010-5.02 3.554 3.554 0 015.023 0 3.552 3.552 0 01-5.023 5.02zm5.023 31.625a3.547 3.547 0 010 5.019 3.554 3.554 0 01-5.023 0 3.547 3.547 0 010-5.019 3.552 3.552 0 015.023 0zm-23.354-13.303a3.548 3.548 0 01-.001-5.019 3.555 3.555 0 015.024-.002 3.552 3.552 0 01-5.023 5.021zm-.001-36.643a3.551 3.551 0 115.024-5.021 3.551 3.551 0 01-5.024 5.021zM39.61 171.603a3.548 3.548 0 010-5.02 3.554 3.554 0 015.023 0 3.552 3.552 0 01-5.023 5.02zm5.023 31.625a3.547 3.547 0 010 5.019 3.554 3.554 0 01-5.023 0 3.547 3.547 0 010-5.019 3.552 3.552 0 015.023 0zm-23.355-13.303a3.547 3.547 0 010-5.019 3.552 3.552 0 015.023 5.02 3.553 3.553 0 01-5.023-.001zm41.686 31.624a3.547 3.547 0 010 5.019 3.549 3.549 0 01-5.022 0 3.548 3.548 0 01-.001-5.019 3.554 3.554 0 015.023 0zm18.332 18.322a3.548 3.548 0 010 5.02 3.554 3.554 0 01-5.023 0 3.55 3.55 0 010-5.02 3.554 3.554 0 015.023 0zm54.995-91.61a3.548 3.548 0 010 5.021 3.55 3.55 0 110-5.021zm-5.022 41.664a3.55 3.55 0 115.022-5.019 3.547 3.547 0 01.001 5.019 3.552 3.552 0 01-5.023 0zm5.022 31.624a3.545 3.545 0 010 5.019 3.549 3.549 0 01-5.022 0 3.547 3.547 0 010-5.019 3.553 3.553 0 015.022 0zm.001 36.644a3.547 3.547 0 01-.001 5.02 3.553 3.553 0 01-5.022 0 3.548 3.548 0 010-5.02 3.554 3.554 0 015.023 0zm-.001 36.644a3.55 3.55 0 11-5.022 5.017 3.55 3.55 0 015.022-5.017zm18.333-86.59a3.555 3.555 0 01-5.024 0 3.547 3.547 0 010-5.019 3.552 3.552 0 015.024 5.019zm-.001-41.664a3.548 3.548 0 010 5.02 3.554 3.554 0 01-5.023 0 3.55 3.55 0 010-5.02 3.554 3.554 0 015.023 0zM149.6 129.94a3.553 3.553 0 015.024 0 3.549 3.549 0 010 5.019 3.553 3.553 0 01-5.024 0 3.547 3.547 0 010-5.019zm5.024 146.575a3.552 3.552 0 11-5.024 0 3.555 3.555 0 015.024 0zm-.001 36.644a3.548 3.548 0 010 5.02 3.554 3.554 0 01-5.023-.001 3.548 3.548 0 010-5.019 3.552 3.552 0 015.023 0zm18.332-54.966a3.548 3.548 0 010 5.02 3.554 3.554 0 01-5.023 0 3.548 3.548 0 010-5.02 3.554 3.554 0 015.023 0zm0-31.625a3.55 3.55 0 11-5.023-5.018 3.55 3.55 0 015.023 5.018zm0-41.662a3.548 3.548 0 010 5.02 3.553 3.553 0 01-5.023-.001 3.547 3.547 0 010-5.019 3.552 3.552 0 015.023 0zm-5.023-68.268a3.55 3.55 0 115.023-5.02 3.547 3.547 0 010 5.019 3.555 3.555 0 01-5.023.001zm5.023 36.644a3.556 3.556 0 01-5.023 0 3.55 3.55 0 010-5.021 3.554 3.554 0 015.023 0 3.55 3.55 0 010 5.021zm0 141.555a3.547 3.547 0 010 5.019 3.552 3.552 0 01-5.023 0 3.547 3.547 0 010-5.019 3.552 3.552 0 015.023 0zm0 36.643a3.552 3.552 0 11-5.023 0 3.554 3.554 0 015.023 0zm18.332-238.185a3.55 3.55 0 010 5.021 3.554 3.554 0 01-5.023 0 3.55 3.55 0 010-5.021 3.554 3.554 0 015.023 0zm-5.023 41.664a3.547 3.547 0 010-5.019 3.552 3.552 0 015.023 0 3.547 3.547 0 010 5.019 3.552 3.552 0 01-5.023 0zm5.023 31.624a3.552 3.552 0 11-5.023 0 3.554 3.554 0 015.023 0zm-5.023 41.664a3.547 3.547 0 010-5.019 3.552 3.552 0 015.023 0 3.547 3.547 0 010 5.019 3.554 3.554 0 01-5.023 0zm5.023 31.624a3.552 3.552 0 11-5.023 0 3.554 3.554 0 015.023 0zm0 36.644a3.552 3.552 0 11-5.023 0 3.554 3.554 0 015.023 0zm-5.023 41.664a3.552 3.552 0 115.023 0 3.554 3.554 0 01-5.023 0zm5.023 31.623a3.55 3.55 0 010 5.021 3.554 3.554 0 01-5.023 0 3.55 3.55 0 010-5.021 3.554 3.554 0 015.023 0zm18.332-238.184a3.548 3.548 0 010 5.02 3.556 3.556 0 01-5.023 0 3.552 3.552 0 015.023-5.02zm-5.023 78.307a3.55 3.55 0 010-5.021 3.55 3.55 0 110 5.021zm5.023 31.624a3.55 3.55 0 11-5.023 5.02 3.55 3.55 0 015.023-5.02zm-.001 36.644a3.548 3.548 0 01.001 5.02 3.554 3.554 0 01-5.023 0 3.552 3.552 0 015.022-5.02zm.001 36.644a3.547 3.547 0 010 5.019 3.552 3.552 0 01-5.023 0 3.547 3.547 0 010-5.019 3.554 3.554 0 015.023 0zm0 36.643a3.55 3.55 0 11-5.024 5.02 3.55 3.55 0 015.024-5.02zm0 36.644a3.552 3.552 0 11-5.023 0 3.554 3.554 0 015.023 0zm18.332-18.322a3.55 3.55 0 01-.001 5.021 3.55 3.55 0 11.001-5.021zm-.001-31.623a3.55 3.55 0 11-5.022-5.02 3.55 3.55 0 015.022 5.02zm0-41.664a3.548 3.548 0 01.001 5.02 3.552 3.552 0 01-5.023-5.02 3.553 3.553 0 015.022 0zm-5.022-68.268a3.547 3.547 0 010-5.019 3.552 3.552 0 015.023 0 3.548 3.548 0 010 5.019 3.554 3.554 0 01-5.023 0zm5.022 36.644a3.553 3.553 0 01-5.022 0 3.548 3.548 0 01-.001-5.02 3.554 3.554 0 015.023 0 3.546 3.546 0 010 5.02zm18.332-23.342a3.547 3.547 0 010 5.019 3.549 3.549 0 01-5.022 0 3.545 3.545 0 010-5.019 3.553 3.553 0 015.022 0zm-5.022 41.664a3.547 3.547 0 010-5.02 3.553 3.553 0 015.022 0 3.548 3.548 0 010 5.02 3.553 3.553 0 01-5.022 0zm5.022 31.624a3.55 3.55 0 11-5.022 5.017 3.55 3.55 0 015.022-5.017zm0 36.643a3.552 3.552 0 01-5.023 5.02 3.548 3.548 0 01.001-5.02 3.553 3.553 0 015.022 0zm18.332-128.252a3.547 3.547 0 010 5.019 3.554 3.554 0 01-5.023 0 3.547 3.547 0 010-5.019 3.552 3.552 0 015.023 0zm0 73.287a3.552 3.552 0 11-5.023 0 3.554 3.554 0 015.023 0zm-5.023-31.624a3.548 3.548 0 010-5.02 3.554 3.554 0 015.023 0 3.552 3.552 0 01-5.023 5.02zm5.023 68.268a3.548 3.548 0 010 5.02 3.554 3.554 0 01-5.023 0 3.552 3.552 0 015.023-5.02zm18.332-91.61a3.55 3.55 0 11-5.023 5.02 3.55 3.55 0 015.023-5.02zm-5.023 41.664a3.548 3.548 0 010-5.02 3.554 3.554 0 015.023 0 3.548 3.548 0 010 5.02 3.554 3.554 0 01-5.023 0zm5.023 31.624a3.547 3.547 0 010 5.019 3.552 3.552 0 01-5.023 0 3.547 3.547 0 010-5.019 3.554 3.554 0 015.023 0zm13.309-86.59a3.55 3.55 0 115.022 0 3.553 3.553 0 01-5.022 0zm5.022 31.624a3.547 3.547 0 01.001 5.02 3.554 3.554 0 01-5.023 0 3.547 3.547 0 010-5.02 3.553 3.553 0 015.022 0zm0 36.644a3.55 3.55 0 11-5.022 5.02 3.55 3.55 0 015.022-5.02zm18.332-128.254a3.55 3.55 0 11-5.022 5.021 3.548 3.548 0 010-5.021 3.553 3.553 0 015.022 0zm0 73.288a3.547 3.547 0 010 5.019 3.549 3.549 0 01-5.022 0 3.545 3.545 0 010-5.019 3.553 3.553 0 015.022 0zm0 36.644a3.55 3.55 0 01.001 5.02 3.555 3.555 0 01-5.024 0 3.548 3.548 0 01.001-5.02 3.553 3.553 0 015.022 0zm18.332-18.322a3.552 3.552 0 11-5.023 0 3.554 3.554 0 015.023 0zm18.332-18.322a3.55 3.55 0 11-5.023 5.02 3.55 3.55 0 015.023-5.02z"/><path fill-rule="evenodd" fill="#FFF073" d="M.02 123.744l123.033 122.88 123.034-122.88L123.053.865.02 123.744z"/><path fill-rule="evenodd" fill="#9C54FF" d="M120.808 334.661l120.798-120.646L120.808 93.366.008 214.015l120.8 120.646zm105.296-120.646L120.808 319.18 15.51 214.015l105.298-105.163 105.296 105.163z"/></svg>