<svg xmlns="http://www.w3.org/2000/svg" viewBox="0 0 40.71 40.71"><defs><style>.cls-3{fill:#fff}</style></defs><g id="Layer_2" data-name="Layer 2"><g id="OBJECTS"><path d="M20.19 40.71L0 20.52 20.52 0l20.19 20.19zM8.92 20.45l11.34 11.33 11.52-11.52L20.45 8.92z" fill="#525fff"/><path fill="#7dd391" d="M21.07 11.21L6.46 6.78l4.15 13.74 10.46-9.31z"/><path class="cls-3" d="M14.7 26.91a.11.11 0 00.16-.16.11.11 0 10-.16.16zM14.12 27.49a.11.11 0 00.16-.16.11.11 0 10-.16.16zM13.54 28.07a.11.11 0 100-.16.1.1 0 000 .16zM13 28.65a.11.11 0 00.15 0 .1.1 0 000-.16.11.11 0 00-.15 0 .1.1 0 000 .16zM12.53 29.23a.1.1 0 000-.16.11.11 0 100 .16zM12 29.81a.1.1 0 000-.16.11.11 0 10-.16.16.1.1 0 00.16 0zM11.37 30.23a.11.11 0 00-.16.16.11.11 0 10.16-.16zM10.79 30.81a.11.11 0 00-.16.16.11.11 0 10.16-.16zM10.21 31.4a.1.1 0 00-.16 0 .11.11 0 000 .15.1.1 0 00.16 0 .09.09 0 000-.15zM9.63 32a.1.1 0 00-.16 0 .11.11 0 10.16 0zM9.05 32.56a.1.1 0 00-.16 0 .11.11 0 10.16 0zM14.12 26.33a.11.11 0 00.16-.16.11.11 0 00-.16.16zM13.54 26.91a.11.11 0 00.15 0 .1.1 0 000-.16.09.09 0 00-.15 0 .1.1 0 000 .16zM13 27.49a.11.11 0 00.15 0 .11.11 0 10-.16-.16.11.11 0 00.01.16zM12.37 28.07a.12.12 0 00.16 0 .1.1 0 000-.16.11.11 0 00-.16.16zM11.79 28.65a.12.12 0 00.16 0 .1.1 0 000-.16.11.11 0 00-.16.16zM11.21 29.23a.12.12 0 00.16 0 .1.1 0 000-.16.11.11 0 10-.16.16zM10.79 29.65a.11.11 0 10-.16.16.11.11 0 00.16-.16zM10.21 30.23a.11.11 0 00-.16.16.11.11 0 10.16-.16zM9.63 30.81a.11.11 0 00-.16.16.1.1 0 00.16 0 .12.12 0 000-.16zM9.05 31.4a.1.1 0 00-.16 0 .12.12 0 000 .16.11.11 0 00.16 0 .11.11 0 000-.16zM8.47 32a.1.1 0 00-.16 0 .11.11 0 10.16 0zM13.54 25.74a.11.11 0 100-.15.09.09 0 000 .15zM13 26.33a.12.12 0 00.16 0 .11.11 0 00-.16-.16.12.12 0 000 .16zM12.37 26.91a.12.12 0 00.16 0 .11.11 0 10-.16-.16.12.12 0 000 .16zM11.79 27.49a.12.12 0 00.16 0 .1.1 0 000-.16.11.11 0 10-.16.16zM11.21 28.07a.12.12 0 00.16 0 .1.1 0 000-.16.11.11 0 00-.16.16zM10.63 28.65a.12.12 0 00.16 0 .1.1 0 000-.16.11.11 0 00-.16.16zM10.21 29.07a.11.11 0 10-.16.16.1.1 0 00.16 0 .12.12 0 000-.16zM9.63 29.65a.11.11 0 10-.16.16.1.1 0 00.16 0 .12.12 0 000-.16zM9.05 30.23a.11.11 0 00-.16.16.1.1 0 00.16 0 .12.12 0 000-.16zM8.47 30.82a.1.1 0 00-.16 0 .11.11 0 000 .15.1.1 0 00.16 0 .11.11 0 000-.15zM7.89 31.4a.1.1 0 00-.16 0 .11.11 0 10.16 0zM13 25.16a.1.1 0 00.16 0 .09.09 0 000-.15A.1.1 0 0013 25a.11.11 0 000 .16zM12.37 25.75a.12.12 0 00.16 0 .11.11 0 00-.16-.16.12.12 0 000 .16zM11.79 26.33a.12.12 0 00.16 0 .11.11 0 00-.16-.16.12.12 0 000 .16zM11.21 26.91a.12.12 0 00.16 0 .11.11 0 10-.16-.16.12.12 0 000 .16zM10.79 27.33a.11.11 0 100 .16.12.12 0 000-.16zM10.21 27.91a.11.11 0 100 .16.12.12 0 000-.16zM9.63 28.49a.11.11 0 100 .16.12.12 0 000-.16zM9.05 29.07a.11.11 0 10-.16.16.1.1 0 00.16 0 .12.12 0 000-.16zM8.47 29.65a.11.11 0 10-.16.16.1.1 0 00.16 0 .12.12 0 000-.16zM7.89 30.23a.12.12 0 00-.16 0 .11.11 0 10.16.16.12.12 0 000-.16zM7.31 30.82a.1.1 0 00-.16 0 .09.09 0 000 .15.1.1 0 00.16 0 .11.11 0 000-.15zM12.37 24.58a.11.11 0 00.16-.16.11.11 0 00-.16.16zM11.79 25.16a.1.1 0 00.16 0A.09.09 0 0012 25a.1.1 0 00-.16 0 .11.11 0 00-.05.16zM11.21 25.75a.11.11 0 10.16-.16.1.1 0 00-.16 0 .12.12 0 000 .16zM10.63 26.33a.11.11 0 10.16-.16.1.1 0 00-.16 0 .12.12 0 000 .16zM10.21 26.75a.1.1 0 00-.16 0 .11.11 0 10.16 0zM9.63 27.33a.11.11 0 100 .16.12.12 0 000-.16zM9.05 27.91a.11.11 0 100 .16.12.12 0 000-.16zM8.47 28.49a.12.12 0 00-.16 0 .11.11 0 10.16.16.12.12 0 000-.16zM7.89 29.07a.12.12 0 00-.16 0 .11.11 0 00.16.16.12.12 0 000-.16zM7.31 29.65a.12.12 0 00-.16 0 .11.11 0 00.16.16.12.12 0 000-.16zM6.73 30.24a.1.1 0 00-.16 0 .09.09 0 000 .15.1.1 0 00.16 0 .11.11 0 000-.15zM11.79 24a.11.11 0 10.16-.16.11.11 0 00-.16.16zM11.21 24.58a.1.1 0 00.16 0 .11.11 0 000-.15.1.1 0 00-.16 0 .11.11 0 000 .15zM10.63 25.17a.11.11 0 10.16-.16.1.1 0 00-.16 0 .12.12 0 000 .16zM10.05 25.75a.11.11 0 10.16-.16.1.1 0 00-.16 0 .12.12 0 000 .16zM9.63 26.17a.1.1 0 00-.16 0 .11.11 0 10.16 0zM9.05 26.75a.12.12 0 00-.16 0 .11.11 0 000 .16.11.11 0 00.16-.16zM8.47 27.33a.12.12 0 00-.16 0 .1.1 0 000 .16.11.11 0 00.16-.16zM7.89 27.91a.12.12 0 00-.16 0 .1.1 0 000 .16.11.11 0 10.16-.16zM7.31 28.49a.12.12 0 00-.16 0 .11.11 0 10.16.16.12.12 0 000-.16zM6.73 29.07a.12.12 0 00-.16 0 .11.11 0 00.16.16.12.12 0 000-.16zM6.15 29.65a.12.12 0 00-.16 0 .11.11 0 00.16.16.12.12 0 000-.16zM11.21 23.42a.1.1 0 00.16 0 .11.11 0 10-.16 0zM10.63 24a.1.1 0 00.16 0 .11.11 0 10-.16 0zM10.05 24.58a.1.1 0 00.16 0 .11.11 0 000-.15.1.1 0 00-.16 0 .11.11 0 000 .15zM9.47 25.17a.11.11 0 10.16-.17.1.1 0 00-.16 0 .12.12 0 000 .17zM9.05 25.59a.11.11 0 00-.16.16.11.11 0 10.16-.16zM8.47 26.17a.11.11 0 00-.16.16.11.11 0 00.16-.16zM7.89 26.75a.12.12 0 00-.16 0 .1.1 0 000 .16.11.11 0 00.16-.16zM7.31 27.33a.12.12 0 00-.16 0 .1.1 0 000 .16.11.11 0 00.16-.16zM6.73 27.91a.12.12 0 00-.16 0 .1.1 0 000 .16.11.11 0 10.16-.16zM6.14 28.49a.11.11 0 00-.15 0 .1.1 0 000 .16.09.09 0 00.15 0 .1.1 0 000-.16zM5.56 29.07a.11.11 0 10-.16.16.11.11 0 00.16-.16zM10.63 22.84a.1.1 0 00.16 0 .11.11 0 10-.16 0zM10.05 23.42a.1.1 0 00.16 0 .11.11 0 10-.16 0zM9.47 24a.1.1 0 00.16 0 .11.11 0 00-.16-.16.1.1 0 000 .16zM8.89 24.59a.11.11 0 00.16-.16.11.11 0 10-.16.16zM8.47 25a.11.11 0 00-.16.16.11.11 0 10.16-.16zM7.89 25.59a.11.11 0 00-.16.16.11.11 0 10.16-.16zM7.31 26.17a.12.12 0 00-.16 0 .1.1 0 000 .16.11.11 0 10.16-.16zM6.72 26.75a.11.11 0 00-.15 0 .1.1 0 000 .16.11.11 0 00.15 0 .1.1 0 000-.16zM6.14 27.33a.11.11 0 00-.15 0 .1.1 0 000 .16.11.11 0 00.15 0 .1.1 0 000-.16zM5.56 27.91a.11.11 0 00-.16.16.11.11 0 10.16-.16zM5 28.49a.11.11 0 00-.16.16.11.11 0 10.16-.16zM10.05 22.26a.1.1 0 00.16 0 .11.11 0 10-.16-.16.1.1 0 000 .16zM9.47 22.84a.1.1 0 00.16 0 .11.11 0 10-.16-.16.1.1 0 000 .16zM8.89 23.42a.1.1 0 00.16 0 .11.11 0 00-.16-.16.1.1 0 000 .16zM8.31 24a.1.1 0 00.16 0 .11.11 0 000-.15.1.1 0 00-.16 0 .09.09 0 000 .15zM7.89 24.43a.11.11 0 10-.16.16.11.11 0 00.16-.16zM7.3 25a.09.09 0 00-.15 0 .1.1 0 000 .16.11.11 0 00.15 0 .1.1 0 000-.16zM6.72 25.59a.09.09 0 00-.15 0 .1.1 0 000 .16.11.11 0 00.15 0 .1.1 0 000-.16zM6.14 26.17a.11.11 0 100 .16.1.1 0 000-.16zM5.56 26.75a.11.11 0 100 .16.1.1 0 000-.16zM5 27.33a.11.11 0 100 .16.1.1 0 000-.16zM4.4 27.91a.11.11 0 00-.16.16.11.11 0 10.16-.16zM9.47 21.68a.11.11 0 100-.16.1.1 0 000 .16zM8.89 22.26a.1.1 0 00.16 0 .11.11 0 10-.16-.16.1.1 0 000 .16zM8.31 22.84a.1.1 0 00.16 0 .11.11 0 10-.16-.16.1.1 0 000 .16zM7.73 23.42a.1.1 0 00.16 0 .11.11 0 00-.16-.16.1.1 0 000 .16zM7.3 23.85a.11.11 0 100 .15.09.09 0 000-.15zM6.72 24.43a.1.1 0 00-.16 0 .11.11 0 00.16.16.1.1 0 000-.16zM6.14 25A.1.1 0 006 25a.11.11 0 10.16.16.1.1 0 00-.02-.16zM5.56 25.59a.11.11 0 100 .16.1.1 0 000-.16zM5 26.17a.11.11 0 100 .16.1.1 0 000-.16zM4.4 26.75a.11.11 0 100 .16.1.1 0 000-.16zM3.82 27.33a.11.11 0 10-.16.16.1.1 0 00.16 0 .12.12 0 000-.16zM8.89 21.1a.11.11 0 100-.16.1.1 0 000 .16zM8.31 21.68a.1.1 0 00.16 0 .11.11 0 00-.16-.16.1.1 0 000 .16zM7.73 22.26a.09.09 0 00.15 0 .1.1 0 000-.16.11.11 0 00-.15 0 .1.1 0 000 .16zM7.14 22.84a.11.11 0 00.16-.16.11.11 0 10-.16.16zM6.72 23.27a.1.1 0 00-.16 0 .11.11 0 000 .15.1.1 0 00.16 0 .09.09 0 000-.15zM6.14 23.85a.1.1 0 00-.16 0 .11.11 0 00.16.16.1.1 0 000-.16zM5.56 24.43a.1.1 0 00-.16 0 .11.11 0 00.16.16.1.1 0 000-.16zM5 25a.1.1 0 00-.16 0 .11.11 0 10.16.16.1.1 0 000-.16zM4.4 25.59a.11.11 0 100 .16.12.12 0 000-.16zM3.82 26.17a.11.11 0 100 .16.12.12 0 000-.16zM3.24 26.75a.11.11 0 100 .16.12.12 0 000-.16zM21.19 33.1a.11.11 0 10-.16.16.11.11 0 00.16-.16zM20.61 33.68a.12.12 0 00-.16 0 .1.1 0 000 .16.11.11 0 10.16-.16zM20 34.26a.12.12 0 00-.16 0 .1.1 0 000 .16.11.11 0 10.16-.16zM19.45 34.84a.12.12 0 00-.16 0 .1.1 0 000 .16.11.11 0 00.16-.16zM18.87 35.42a.12.12 0 00-.16 0 .11.11 0 10.16.16.12.12 0 000-.16zM18.28 36a.11.11 0 00-.15 0 .1.1 0 000 .16.09.09 0 00.15 0 .1.1 0 000-.16zM17.7 36.58a.11.11 0 00-.15 0 .1.1 0 000 .16.09.09 0 00.15 0 .1.1 0 000-.16zM17.12 37.17a.1.1 0 00-.16 0 .11.11 0 000 .15.1.1 0 00.16 0 .09.09 0 000-.15zM16.54 37.75a.1.1 0 00-.16 0 .11.11 0 00.16.16.1.1 0 000-.16zM16 38.33a.1.1 0 00-.16 0 .11.11 0 00.16.16.1.1 0 000-.16zM15.38 38.91a.1.1 0 00-.16 0 .11.11 0 00.16.16.1.1 0 000-.16zM20.61 32.52a.11.11 0 00-.16.16.11.11 0 10.16-.16zM20 33.1a.11.11 0 00-.16.16.11.11 0 10.16-.16zM19.45 33.68a.12.12 0 00-.16 0 .1.1 0 000 .16.11.11 0 10.16-.16zM18.87 34.26a.12.12 0 00-.16 0 .1.1 0 000 .16.11.11 0 10.16-.16zM18.28 34.84a.11.11 0 00-.15 0 .1.1 0 000 .16.1.1 0 00.15 0 .1.1 0 000-.16zM17.7 35.42a.11.11 0 10-.16.16.11.11 0 00.16-.16zM17.12 36a.11.11 0 10-.16.16.11.11 0 00.16-.16zM16.54 36.59a.1.1 0 00-.16 0 .11.11 0 000 .15.1.1 0 00.16 0 .09.09 0 000-.15zM16 37.17a.1.1 0 00-.16 0 .11.11 0 00.16.16.1.1 0 000-.16zM15.38 37.75a.1.1 0 00-.16 0 .11.11 0 00.16.16.1.1 0 000-.16zM14.8 38.33a.1.1 0 00-.16 0 .11.11 0 10.16 0zM20 31.94a.11.11 0 00-.16.16.11.11 0 10.16-.16zM19.45 32.52a.11.11 0 10-.16.16.11.11 0 00.16-.16zM18.86 33.1a.11.11 0 00-.15 0 .1.1 0 000 .16.11.11 0 00.15 0 .1.1 0 000-.16zM18.28 33.68a.11.11 0 100 .16.1.1 0 000-.16zM17.7 34.26a.11.11 0 100 .16.1.1 0 000-.16zM17.12 34.84A.11.11 0 1017 35a.11.11 0 00.16-.16zM16.54 35.42a.11.11 0 00-.16.16.11.11 0 10.16-.16zM16 36a.11.11 0 00-.16.16A.11.11 0 0016 36zM15.38 36.59a.1.1 0 00-.16 0 .11.11 0 000 .15.1.1 0 00.16 0 .11.11 0 000-.15zM14.8 37.17a.1.1 0 00-.16 0 .11.11 0 10.16 0zM14.22 37.75a.1.1 0 00-.16 0 .11.11 0 10.16 0zM19.44 31.36a.09.09 0 00-.15 0 .1.1 0 000 .16.11.11 0 00.15 0 .1.1 0 000-.16zM18.86 31.94a.1.1 0 00-.16 0 .11.11 0 000 .16.11.11 0 00.15 0 .1.1 0 00.01-.16zM18.28 32.52a.1.1 0 00-.16 0 .11.11 0 00.16.16.1.1 0 000-.16zM17.7 33.1a.11.11 0 100 .16.1.1 0 000-.16zM17.12 33.68a.11.11 0 100 .16.1.1 0 000-.16zM16.54 34.26a.11.11 0 100 .16.1.1 0 000-.16zM16 34.84a.11.11 0 00-.16.16.11.11 0 00.16-.16zM15.38 35.42a.11.11 0 00-.16.16.1.1 0 00.16 0 .12.12 0 000-.16zM14.8 36a.11.11 0 00-.16.16.1.1 0 00.16 0 .12.12 0 000-.16zM14.22 36.59a.1.1 0 00-.16 0 .11.11 0 10.16 0zM13.64 37.17a.1.1 0 00-.16 0 .11.11 0 10.16 0zM18.7 30.94a.11.11 0 00.16 0 .09.09 0 000-.15.1.1 0 00-.16 0 .12.12 0 000 .15zM18.12 31.52a.12.12 0 00.16 0 .11.11 0 10-.16-.16.12.12 0 000 .16zM17.54 32.1a.12.12 0 00.16 0 .11.11 0 00-.16-.16.12.12 0 000 .16zM17 32.68a.12.12 0 00.16 0 .1.1 0 000-.16.11.11 0 10-.16.16zM16.54 33.1a.11.11 0 100 .16.1.1 0 000-.16zM16 33.68a.11.11 0 100 .16.12.12 0 000-.16zM15.38 34.26a.11.11 0 00-.16.16.1.1 0 00.16 0 .12.12 0 000-.16zM14.8 34.84a.11.11 0 00-.16.16.1.1 0 00.16 0 .12.12 0 000-.16zM14.22 35.42a.11.11 0 00-.16.16.1.1 0 00.16 0 .12.12 0 000-.16zM13.64 36a.1.1 0 00-.16 0 .11.11 0 000 .15.1.1 0 00.16 0 .11.11 0 000-.15zM13.06 36.59a.11.11 0 00-.16.16.11.11 0 00.16-.16zM18.12 30.35a.1.1 0 00.16 0 .09.09 0 000-.15.1.1 0 00-.16 0 .11.11 0 000 .15zM17.54 30.94a.12.12 0 00.16 0 .11.11 0 00-.16-.16.12.12 0 000 .16zM17 31.52a.12.12 0 00.16 0 .11.11 0 00-.16-.16.12.12 0 000 .16zM16.38 32.1a.11.11 0 10.16-.16.1.1 0 00-.16 0 .12.12 0 000 .16zM16 32.52a.11.11 0 100 .16.12.12 0 000-.16zM15.38 33.1a.11.11 0 100 .16.12.12 0 000-.16zM14.8 33.68a.11.11 0 100 .16.12.12 0 000-.16zM14.22 34.26a.11.11 0 00-.16.16.1.1 0 00.16 0 .12.12 0 000-.16zM13.64 34.84a.12.12 0 00-.16 0 .11.11 0 00.16.16.12.12 0 000-.16zM13.06 35.42a.12.12 0 00-.16 0 .11.11 0 00.16.16.12.12 0 000-.16zM12.48 36a.11.11 0 00-.16.16.11.11 0 00.16 0 .11.11 0 000-.16zM17.54 29.77a.11.11 0 00.16-.16.11.11 0 10-.16.16zM17 30.35a.1.1 0 00.16 0 .11.11 0 000-.15.1.1 0 00-.16 0 .11.11 0 000 .15zM16.38 30.94a.11.11 0 00.16-.16.1.1 0 00-.16 0 .12.12 0 000 .16zM15.8 31.52a.11.11 0 00.16-.16.1.1 0 00-.16 0 .12.12 0 000 .16zM15.38 31.94a.1.1 0 00-.16 0 .11.11 0 10.16 0zM14.8 32.52a.11.11 0 100 .16.12.12 0 000-.16zM14.22 33.1a.12.12 0 00-.16 0 .1.1 0 000 .16.11.11 0 00.16-.16zM13.64 33.68a.12.12 0 00-.16 0 .11.11 0 10.16.16.12.12 0 000-.16zM13.06 34.26a.12.12 0 00-.16 0 .11.11 0 10.16.16.12.12 0 000-.16zM12.48 34.84a.12.12 0 00-.16 0 .11.11 0 00.16.16.12.12 0 000-.16zM11.9 35.43a.1.1 0 00-.16 0 .09.09 0 000 .15.1.1 0 00.16 0 .11.11 0 000-.15zM17 29.19a.1.1 0 00.16 0 .11.11 0 10-.16 0zM16.38 29.77a.1.1 0 00.16 0 .11.11 0 000-.15.1.1 0 00-.16 0 .11.11 0 000 .15zM15.8 30.36a.11.11 0 10.2-.16.1.1 0 00-.16 0 .12.12 0 00-.04.16zM15.22 30.94a.11.11 0 00.16-.16.1.1 0 00-.16 0 .12.12 0 000 .16zM14.8 31.36a.1.1 0 00-.16 0 .11.11 0 10.16 0zM14.22 31.94a.12.12 0 00-.16 0 .1.1 0 000 .16.11.11 0 10.16-.16zM13.64 32.52a.12.12 0 00-.16 0 .1.1 0 000 .16.11.11 0 00.16-.16zM13.06 33.1a.12.12 0 00-.16 0 .1.1 0 000 .16.11.11 0 00.16-.16zM12.48 33.68a.12.12 0 00-.16 0 .11.11 0 10.16.16.12.12 0 000-.16zM11.9 34.26a.12.12 0 00-.16 0 .11.11 0 10.16.16.12.12 0 000-.16zM11.31 34.84a.11.11 0 00-.15 0 .1.1 0 000 .16.09.09 0 00.15 0 .1.1 0 000-.16zM16.38 28.61a.1.1 0 00.16 0 .11.11 0 10-.16 0zM15.8 29.19a.1.1 0 00.16 0 .11.11 0 10-.16 0zM15.22 29.77a.1.1 0 00.16 0 .11.11 0 000-.15.1.1 0 00-.16 0 .11.11 0 000 .15zM14.64 30.36a.11.11 0 10.16-.16.11.11 0 00-.16.16zM14.22 30.78a.11.11 0 10-.16.16.11.11 0 00.16-.16zM13.64 31.36a.11.11 0 10-.16.16.11.11 0 00.16-.16zM13.06 31.94a.12.12 0 00-.16 0 .1.1 0 000 .16.11.11 0 10.16-.16zM12.48 32.52a.12.12 0 00-.16 0 .1.1 0 000 .16.11.11 0 00.16-.16zM11.89 33.1a.11.11 0 00-.15 0 .1.1 0 000 .16.09.09 0 00.15 0 .1.1 0 000-.16zM11.31 33.68a.11.11 0 00-.16.16.11.11 0 10.16-.16zM10.73 34.26a.11.11 0 00-.16.16.11.11 0 10.16-.16zM15.8 28a.1.1 0 00.2 0 .11.11 0 10-.16 0zM15.22 28.61a.1.1 0 00.16 0 .11.11 0 00-.16-.16.1.1 0 000 .16zM14.64 29.19a.1.1 0 00.16 0 .12.12 0 000-.16.11.11 0 00-.16 0 .09.09 0 000 .16zM14.06 29.78a.11.11 0 10.16-.16.11.11 0 00-.16.16zM13.64 30.2a.11.11 0 00-.16.16.11.11 0 10.16-.16zM13.06 30.78a.11.11 0 10-.16.16.11.11 0 00.16-.16zM12.47 31.36a.11.11 0 00-.15 0 .1.1 0 000 .16.11.11 0 00.15 0 .1.1 0 000-.16zM11.89 31.94a.11.11 0 00-.15 0 .1.1 0 000 .16.11.11 0 00.15 0 .1.1 0 000-.16zM11.31 32.52a.11.11 0 100 .16.1.1 0 000-.16zM10.73 33.1a.11.11 0 00-.16.16.11.11 0 00.16-.16zM10.15 33.68a.11.11 0 00-.16.16.11.11 0 10.16-.16zM15.22 27.45a.1.1 0 00.16 0 .11.11 0 10-.16-.16.1.1 0 000 .16zM14.64 28a.1.1 0 00.16 0 .11.11 0 00-.16-.16.1.1 0 000 .16zM14.06 28.61a.1.1 0 00.16 0 .11.11 0 00-.16-.16.1.1 0 000 .16zM13.48 29.19a.1.1 0 00.16 0 .11.11 0 000-.15.1.1 0 00-.16 0 .09.09 0 000 .15zM13.05 29.62a.09.09 0 00-.15 0 .1.1 0 000 .16.12.12 0 00.16 0 .11.11 0 00-.01-.16zM12.47 30.2a.09.09 0 00-.15 0 .1.1 0 000 .16.11.11 0 00.15 0 .1.1 0 000-.16zM11.89 30.78a.1.1 0 00-.16 0 .11.11 0 00.16.16.1.1 0 000-.16zM11.31 31.36a.11.11 0 100 .16.1.1 0 000-.16zM10.73 31.94a.11.11 0 100 .16.1.1 0 000-.16zM10.15 32.52a.11.11 0 100 .16.1.1 0 000-.16zM9.57 33.1a.11.11 0 00-.16.16.11.11 0 00.16-.16z"/></g></g></svg>