<svg xmlns="http://www.w3.org/2000/svg" width="503" height="505"><defs><filter filterUnits="userSpaceOnUse" id="a" x="219" y="221" width="280" height="280"><feOffset in="SourceAlpha" dy="26"/><feGaussianBlur result="blurOut" stdDeviation="8.888"/><feFlood flood-color="#EE5565" result="floodOut"/><feComposite operator="atop" in="floodOut" in2="blurOut"/><feComponentTransfer><feFuncA type="linear" slope=".38"/></feComponentTransfer><feMerge><feMergeNode/><feMergeNode in="SourceGraphic"/></feMerge></filter><filter filterUnits="userSpaceOnUse" id="c" x="62" y="91" width="176" height="384"><feOffset in="SourceAlpha" dy="50"/><feGaussianBlur result="blurOut" stdDeviation="7.071"/><feFlood flood-color="#16195D" result="floodOut"/><feComposite operator="atop" in="floodOut" in2="blurOut"/><feComponentTransfer><feFuncA type="linear" slope=".07"/></feComponentTransfer><feMerge><feMergeNode/><feMergeNode in="SourceGraphic"/></feMerge></filter><filter filterUnits="userSpaceOnUse" id="d" x="171" y="0" width="176" height="384"><feOffset in="SourceAlpha" dy="50"/><feGaussianBlur result="blurOut" stdDeviation="7.071"/><feFlood flood-color="#16195D" result="floodOut"/><feComposite operator="atop" in="floodOut" in2="blurOut"/><feComponentTransfer><feFuncA type="linear" slope=".07"/></feComponentTransfer><feMerge><feMergeNode/><feMergeNode in="SourceGraphic"/></feMerge></filter><linearGradient id="b" x1="0%" x2="100%" y1="0%" y2="0%"><stop offset="0%" stop-color="#FF6457"/><stop offset="100%" stop-color="#FD5089"/></linearGradient></defs><path fill-rule="evenodd" fill="#FCE9D9" d="M23.712 196.639c11.399-38.546 43.505-67.219 71.173-95.4 27.777-28.174 51.174-55.907 84.615-71.338 33.333-15.439 76.718-18.685 115.255-3.546 38.486 15.08 72.183 48.496 89.15 89.382 17.075 40.894 17.311 89.251 2.328 132.316-14.975 42.957-45.328 80.556-81.584 87.472-36.263 7.024-78.588-16.701-125.247-22.384-46.652-5.79-97.687 6.402-127.809-11.653s-39.33-66.36-27.881-104.849z"/><g filter="url(#a)"><path fill-rule="evenodd" fill="#FFF" d="M358.672 273.438c33.87 0 61.328 27.436 61.328 61.281C420 368.563 392.542 396 358.672 396c-33.871 0-61.328-27.437-61.328-61.281 0-33.845 27.457-61.281 61.328-61.281z"/></g><path fill="url(#b)" d="M358.672 273.438c33.87 0 61.328 27.436 61.328 61.281C420 368.563 392.542 396 358.672 396c-33.871 0-61.328-27.437-61.328-61.281 0-33.845 27.457-61.281 61.328-61.281z"/><path fill-rule="evenodd" fill="#FFF" d="M385.2 360.151c-.537.611-1.227.915-1.916.915a2.349 2.349 0 01-1.534-.534c-.996-.839-1.149-2.365-.306-3.434.613-.687 1.15-1.45 1.686-2.213l-3.986-2.901c-.69-.458-.843-1.45-.306-2.136l.536-.764c.46-.687 1.457-.839 2.146-.305l3.603 2.595c1.686-3.435 2.76-7.251 2.99-11.143h-4.523a1.534 1.534 0 01-1.533-1.526v-.916c0-.84.69-1.526 1.533-1.526h4.523c-.614-9.159-5.519-17.172-12.725-22.133l-2.299 3.816c-.46.763-1.38.992-2.147.534l-.766-.458c-.767-.458-.997-1.374-.537-2.137l2.3-3.816a31.268 31.268 0 00-11.268-3.053v4.427c0 .839-.69 1.527-1.533 1.527h-.92a1.535 1.535 0 01-1.533-1.527v-4.427a31.097 31.097 0 00-10.885 2.9l2.07 4.274c.383.764.077 1.68-.69 2.061l-.996.305a1.539 1.539 0 01-2.07-.686l-1.916-4.046a30.262 30.262 0 00-7.895 7.709l3.909 2.747c.69.458.843 1.45.383 2.137l-.536.764c-.46.686-1.457.839-2.147.381l-3.679-2.595c-1.763 3.511-2.913 7.327-3.143 11.448h4.6c.843 0 1.533.688 1.533 1.526v.916c0 .84-.69 1.527-1.533 1.527h-4.523a28.188 28.188 0 002.913 10.914l4.139-2.443c.767-.458 1.686-.229 2.146.534l.46.764c.46.763.23 1.679-.536 2.137l-4.14 2.442c.154.153.23.305.307.458.767 1.145.537 2.671-.613 3.434-1.15.764-2.683.534-3.449-.61-4.063-5.724-6.209-12.517-6.209-19.615 0-18.927 15.483-34.344 34.493-34.344s34.494 15.417 34.494 34.344c0 7.938-2.76 15.722-7.972 21.752zm-26.522-16.867c-2.836 0-5.059-2.213-5.059-5.037s2.3-5.037 5.059-5.037c.767 0 1.533.152 2.146.458.077 0 .154.076.23.076l19.547-8.624s1.073-.153.613.61l-17.553 13.203c-.384 2.443-2.453 4.275-4.983 4.351zm-11.728 14.425h23.763c.766 0 1.379.61 1.379 1.373v5.648a1.37 1.37 0 01-1.379 1.373H346.95a1.37 1.37 0 01-1.379-1.373v-5.648a1.37 1.37 0 011.379-1.373z"/><g filter="url(#c)"><path fill-rule="evenodd" fill="#FFF" d="M121 91.094h56.062c5.523 0 10 4.477 10 10V365c0 5.523-4.477 10-10 10H121c-5.523 0-10-4.477-10-10V101.094c0-5.523 4.477-10 10-10z"/></g><g filter="url(#d)"><path fill-rule="evenodd" fill="#FFF" d="M230.937 0H287c5.523 0 10 4.477 10 10v263.906c0 5.523-4.477 10-10 10h-56.063c-5.522 0-10-4.477-10-10V10c0-5.523 4.478-10 10-10z"/></g><path stroke="#000" stroke-width="8" opacity=".071" fill="none" d="M4 289s10.825-74.149 79-81c59.549-5.984 79.101 57.906 132 40 34.311-11.613 45.663-98.507 97-92 64.495 8.174 81-50.951 88-104"/><path stroke="#27CDCB" stroke-width="8" fill="none" d="M4 289s8.825-101.149 77-108c59.549-5.984 75.101 64.905 128 47 34.311-11.614 50.663-88.507 102-82 64.495 8.174 82-40.951 89-94"/></svg>