<svg xmlns="http://www.w3.org/2000/svg" width="608" height="497"><defs><filter filterUnits="userSpaceOnUse" id="a" x="0" y="194" width="437" height="211"><feOffset in="SourceAlpha" dy="50"/><feGaussianBlur result="blurOut" stdDeviation="7.071"/><feFlood flood-color="#16195D" result="floodOut"/><feComposite operator="atop" in="floodOut" in2="blurOut"/><feComponentTransfer><feFuncA type="linear" slope=".07"/></feComponentTransfer><feMerge><feMergeNode/><feMergeNode in="SourceGraphic"/></feMerge></filter><filter filterUnits="userSpaceOnUse" id="b" x="123" y="64" width="437" height="211"><feOffset in="SourceAlpha" dy="50"/><feGaussianBlur result="blurOut" stdDeviation="7.071"/><feFlood flood-color="#16195D" result="floodOut"/><feComposite operator="atop" in="floodOut" in2="blurOut"/><feComponentTransfer><feFuncA type="linear" slope=".07"/></feComponentTransfer><feMerge><feMergeNode/><feMergeNode in="SourceGraphic"/></feMerge></filter><filter filterUnits="userSpaceOnUse" id="c" x="322" y="212" width="286" height="285"><feOffset in="SourceAlpha" dy="26"/><feGaussianBlur result="blurOut" stdDeviation="8.888"/><feFlood flood-color="#8754FF" result="floodOut"/><feComposite operator="atop" in="floodOut" in2="blurOut"/><feComponentTransfer><feFuncA type="linear" slope=".38"/></feComponentTransfer><feMerge><feMergeNode/><feMergeNode in="SourceGraphic"/></feMerge></filter><linearGradient id="d" x1="0%" x2="100%" y1="0%" y2="0%"><stop offset="0%" stop-color="#8882FF"/><stop offset="100%" stop-color="#8746FF"/></linearGradient></defs><path fill-rule="evenodd" fill="#EDE5FF" d="M450.829 52.176c22.564 35.184 23.281 79.919 26.63 120.833 3.269 40.994 9.169 78.246-1.435 115.022-10.525 36.695-37.473 72.993-75.584 92.972-38.031 19.98-87.224 23.721-130.916 9.234-43.772-14.408-81.962-47.123-105.642-88.197-23.6-40.993-32.529-90.425-13.315-123.618 19.135-33.273 66.575-50.387 102.772-83.182 36.277-32.716 61.392-81.112 96.074-92.495 34.682-11.382 78.932 14.248 101.416 49.431z"/><g filter="url(#a)"><path fill-rule="evenodd" fill="#FFF" d="M103.953 194.469h227.313c30.349 0 54.953 24.603 54.953 54.953s-24.604 54.953-54.953 54.953H103.953c-30.35 0-54.953-24.603-54.953-54.953s24.603-54.953 54.953-54.953z"/></g><path fill-rule="evenodd" fill="#8882FF" d="M90.063 217.563h43.718c5.523 0 10 4.477 10 10v43.718c0 5.523-4.477 10.001-10 10.001H90.063c-5.523 0-10.001-4.478-10.001-10.001v-43.718c0-5.523 4.478-10 10.001-10z"/><path fill-rule="evenodd" fill="#FFF" d="M117.196 262.471a2.546 2.546 0 01-1.413-2.283v-2.621c.191-.217.403-.49.636-.813a15.434 15.434 0 002.085-4.188c.859-.266 1.494-1.057 1.494-1.997v-2.804c0-.613-.274-1.164-.7-1.549v-4.049s.832-6.301-7.729-6.301-7.73 6.301-7.73 6.301v4.049c-.425.385-.7.936-.7 1.549v2.804c0 .736.387 1.384.972 1.758.7 3.046 2.538 5.24 2.538 5.24v2.556c0 .937-.51 1.793-1.331 2.24l-6.271 3.405a5.45 5.45 0 00-.744.508c3.607 2.896 8.166 4.631 13.129 4.631 4.983 0 9.56-1.749 13.174-4.667a5.147 5.147 0 00-.695-.426l-6.715-3.343z"/><path fill-rule="evenodd" fill="#D7F9FF" d="M167.672 228.719h162.812a9.547 9.547 0 019.547 9.547c0 5.272-4.274 9.547-9.547 9.547H167.672c-5.273 0-9.547-4.275-9.547-9.547a9.547 9.547 0 019.547-9.547z"/><path fill-rule="evenodd" fill="#E8EFF0" d="M163.7 258.969h83.131a5.575 5.575 0 015.575 5.575v.006a5.575 5.575 0 01-5.575 5.575H163.7a5.575 5.575 0 01-5.575-5.575v-.006a5.575 5.575 0 015.575-5.575z"/><g filter="url(#b)"><path fill-rule="evenodd" fill="#FFF" d="M227.734 64.719h227.313c30.35 0 54.953 24.603 54.953 54.953 0 30.349-24.603 54.953-54.953 54.953H227.734c-30.349 0-54.953-24.604-54.953-54.953 0-30.35 24.604-54.953 54.953-54.953z"/></g><path fill-rule="evenodd" fill="#FE7A7E" d="M213.844 87.813h43.718c5.523 0 10 4.476 10 10v43.718c0 5.523-4.477 10-10 10h-43.718c-5.523 0-10-4.477-10-10V97.813c0-5.524 4.477-10 10-10z"/><path fill-rule="evenodd" fill="#FFF" d="M240.971 132.738a2.55 2.55 0 01-1.413-2.284v-2.621c.191-.216.403-.49.635-.813a15.4 15.4 0 002.086-4.189c.859-.265 1.494-1.056 1.494-1.996v-2.803c0-.613-.274-1.166-.7-1.55v-4.049s.832-6.3-7.73-6.3c-8.56 0-7.729 6.3-7.729 6.3v4.049c-.425.384-.7.937-.7 1.55v2.803c0 .736.387 1.384.972 1.758.7 3.046 2.538 5.24 2.538 5.24v2.556c0 .937-.51 1.793-1.331 2.24l-6.271 3.405c-.268.148-.51.324-.744.508 3.607 2.896 8.166 4.631 13.128 4.631a20.89 20.89 0 0013.174-4.667 4.978 4.978 0 00-.694-.426l-6.715-3.342z"/><path fill-rule="evenodd" fill="#F7D7FF" d="M291.464 98.968h162.791c5.278 0 9.558 4.28 9.558 9.558v.01c0 5.279-4.28 9.558-9.558 9.558H291.464a9.558 9.558 0 01-9.558-9.558v-.01c0-5.278 4.279-9.558 9.558-9.558z"/><path fill-rule="evenodd" fill="#E8EFF0" d="M287.469 129.25h83.156a5.563 5.563 0 110 11.125h-83.156a5.563 5.563 0 110-11.125z"/><g filter="url(#c)"><path fill-rule="evenodd" fill="#FFF" d="M464.328 264.563c35.2 0 63.734 28.52 63.734 63.703 0 35.182-28.534 63.703-63.734 63.703-35.199 0-63.734-28.521-63.734-63.703 0-35.183 28.535-63.703 63.734-63.703z"/></g><path fill="url(#d)" d="M464.328 264.563c35.2 0 63.734 28.52 63.734 63.703 0 35.182-28.534 63.703-63.734 63.703-35.199 0-63.734-28.521-63.734-63.703 0-35.183 28.535-63.703 63.734-63.703z"/><path fill-rule="evenodd" fill="#FFF" d="M480.908 317.748l-8.585 2.861-5.875-8.811c-1.008-1.511-3.236-1.516-4.246 0l-5.876 8.811-8.585-2.861c-1.853-.619-3.693.999-3.309 2.92 3.792 18.201 3.207 17.721 4.176 18.691 8.666 8.664 22.766 8.664 31.432 0 .97-.969.392-.527 4.176-18.691.383-1.91-1.443-3.542-3.308-2.92zm-5.016 18.52c-6.527 5.985-16.608 5.985-23.135 0l-2.458-12.29 6.263 2.087a2.553 2.553 0 002.93-1.005l4.833-7.248 4.832 7.248a2.552 2.552 0 002.93 1.005l6.263-2.087-2.458 12.29zm-11.567-40.658c-18.051 0-32.66 14.605-32.66 32.654 0 18.049 14.607 32.656 32.66 32.656 18.05 0 32.66-14.606 32.66-32.656 0-18.047-14.608-32.654-32.66-32.654zm0 60.208c-15.231 0-27.557-12.324-27.557-27.554 0-15.227 12.324-27.552 27.557-27.552 15.23 0 27.556 12.323 27.556 27.552s-12.324 27.554-27.556 27.554z"/></svg>