<svg xmlns="http://www.w3.org/2000/svg" width="517" height="492"><defs><filter filterUnits="userSpaceOnUse" id="a" x="0" y="26" width="367" height="398"><feOffset in="SourceAlpha" dy="50"/><feGaussianBlur result="blurOut" stdDeviation="7.071"/><feFlood flood-color="#16195D" result="floodOut"/><feComposite operator="atop" in="floodOut" in2="blurOut"/><feComponentTransfer><feFuncA type="linear" slope=".07"/></feComponentTransfer><feMerge><feMergeNode/><feMergeNode in="SourceGraphic"/></feMerge></filter><filter filterUnits="userSpaceOnUse" id="b" x="231" y="207" width="286" height="285"><feOffset in="SourceAlpha" dy="26"/><feGaussianBlur result="blurOut" stdDeviation="8.888"/><feFlood flood-color="#37C8E1" result="floodOut"/><feComposite operator="atop" in="floodOut" in2="blurOut"/><feComponentTransfer><feFuncA type="linear" slope=".38"/></feComponentTransfer><feMerge><feMergeNode/><feMergeNode in="SourceGraphic"/></feMerge></filter><linearGradient id="c" x1="0%" x2="100%" y1="0%" y2="0%"><stop offset="0%" stop-color="#27CDCB"/><stop offset="100%" stop-color="#4CC2FF"/></linearGradient></defs><path fill-rule="evenodd" fill="#D1F5FE" d="M131.366.415c41.729-2.379 81.052 18.964 118.338 36.138 37.316 17.282 72.665 30.436 99.493 57.732 26.799 27.188 45.185 68.488 43.876 111.498-1.271 42.941-22.169 87.632-56.244 118.579-34.045 31.055-81.298 48.259-128.707 48.718-47.3.428-94.746-16.067-114.226-49.106-19.588-33.007-11.201-82.737-21.995-130.373-10.685-47.667-40.512-93.311-33.397-129.114C45.619 28.685 89.677 2.725 131.366.415z"/><g filter="url(#a)"><path fill-rule="evenodd" fill="#FFF" d="M103.956 26h158.088C292.396 26 317 50.604 317 80.955v188.089C317 299.396 292.396 324 262.044 324H103.956C73.604 324 49 299.396 49 269.044V80.955C49 50.604 73.604 26 103.956 26z"/></g><g filter="url(#b)"><path fill-rule="evenodd" fill="#FFF" d="M373.328 259.563c35.2 0 63.734 28.52 63.734 63.703 0 35.182-28.534 63.703-63.734 63.703-35.199 0-63.734-28.521-63.734-63.703 0-35.183 28.535-63.703 63.734-63.703z"/></g><path fill="url(#c)" d="M373.328 259.563c35.2 0 63.734 28.52 63.734 63.703 0 35.182-28.534 63.703-63.734 63.703-35.199 0-63.734-28.521-63.734-63.703 0-35.183 28.535-63.703 63.734-63.703z"/><path fill-rule="evenodd" fill="#FFF" d="M401.875 346h-57.75c-2.273 0-4.125-1.837-4.125-4.091v-36.818c0-2.254 1.852-4.091 4.125-4.091h57.75c2.273 0 4.125 1.837 4.125 4.091v36.818c0 2.254-1.852 4.091-4.125 4.091zm.125-41.003h-58v8.001h58v-8.001zM344 317l.125 24.939h57.75L402 317h-58zm45.667 21.006c-1.521 0-2.93-.421-4.159-1.11a8.444 8.444 0 01-4.175 1.11c-4.596 0-8.333-3.593-8.333-8.01 0-4.418 3.737-8.009 8.333-8.009 1.488 0 2.921.396 4.175 1.108a8.48 8.48 0 014.159-1.108c4.595 0 8.333 3.591 8.333 8.009 0 4.417-3.738 8.01-8.333 8.01zm-7.279-11.827c-.346-.088-.688-.188-1.055-.188-2.295 0-4.166 1.798-4.166 4.005s1.871 4.005 4.166 4.005c.367 0 .709-.1 1.055-.189-.65-1.141-1.055-2.426-1.055-3.816 0-1.39.405-2.676 1.055-3.817zm7.279-.188c-2.296 0-4.167 1.798-4.167 4.005s1.871 4.005 4.167 4.005 4.166-1.798 4.166-4.005-1.87-4.005-4.166-4.005zm-26.792 8.017h-12.75c-1.173 0-2.125-.895-2.125-1.998 0-1.104.952-1.999 2.125-1.999h12.75c1.173 0 2.125.895 2.125 1.999 0 1.103-.952 1.998-2.125 1.998z"/></svg>