<svg xmlns="http://www.w3.org/2000/svg" width="2394" height="1245">
  <path fill-rule="evenodd" opacity=".349" fill="#FFF" d="M715 977a9 9 0 0 1 9 9 8.999 8.999 0 0 1-9 8.999c-4.971 0-9-4.028-9-8.999a9 9 0 0 1 9-9zM2339 71.999a9 9 0 1 1-.001 18 9 9 0 0 1 .001-18zM1617 885a9 9 0 1 1 0 18 9 9 0 0 1 0-18zM395 779c8.284 0 15 6.716 15 15 0 8.285-6.716 15-15 15-8.284 0-15-6.715-15-15 0-8.284 6.716-15 15-15zM15 0c8.284 0 15 6.716 15 15 0 8.285-6.716 15-15 15-8.284 0-15-6.715-15-15C0 6.716 6.716 0 15 0zM408 1157a8.001 8.001 0 0 1 0 16 8 8 0 0 1 0-16zM2381 825c7.18 0 13 5.82 13 13s-5.82 13-13 13-13-5.82-13-13 5.82-13 13-13zM517 547a9 9 0 0 1 9 9 9 9 0 0 1-9 9 9 9 0 0 1-9-9 9 9 0 0 1 9-9zM1213 824c7.18 0 13 5.821 13 13 0 7.18-5.82 13-13 13s-13-5.82-13-13c0-7.179 5.82-13 13-13zM2247 1225c5.523 0 10 4.477 10 10s-4.477 10-10 10-10-4.477-10-10 4.477-10 10-10z"/>
</svg>
