<svg xmlns="http://www.w3.org/2000/svg" xmlns:xlink="http://www.w3.org/1999/xlink" viewBox="0 0 463.35 265.62"><defs><style>.cls-1{fill:none;}.cls-2,.cls-3{fill:#fff;}.cls-3,.cls-6{opacity:0.6;}.cls-4{fill:url(#Nueva_muestra_de_motivo_1);}.cls-5{fill:url(#Nueva_muestra_de_motivo_1-3);}.cls-7{fill:url(#Nueva_muestra_de_motivo_1-5);}</style><pattern id="Nueva_muestra_de_motivo_1" data-name="Nueva muestra de motivo 1" width="5" height="5" patternTransform="translate(1.95 6.67) rotate(90)" patternUnits="userSpaceOnUse" viewBox="0 0 5 5"><rect class="cls-1" width="5" height="5"/><circle class="cls-2" cx="2.5" cy="2.5" r="0.68"/></pattern><pattern id="Nueva_muestra_de_motivo_1-3" data-name="Nueva muestra de motivo 1" width="5" height="5" patternTransform="translate(2.81 6.73) rotate(90) scale(0.64)" patternUnits="userSpaceOnUse" viewBox="0 0 5 5"><rect class="cls-1" width="5" height="5"/><circle class="cls-2" cx="2.5" cy="2.5" r="0.68"/></pattern><pattern id="Nueva_muestra_de_motivo_1-5" data-name="Nueva muestra de motivo 1" width="5" height="5" patternTransform="translate(-6.4 5.28) rotate(90)" patternUnits="userSpaceOnUse" viewBox="0 0 5 5"><rect class="cls-1" width="5" height="5"/><circle class="cls-2" cx="2.5" cy="2.5" r="0.68"/></pattern></defs><title>Asset 1</title><g id="Layer_2" data-name="Layer 2"><g id="OBJECTS"><path class="cls-2" d="M75.48,85.9a43,43,0,1,1,43-42.95A43,43,0,0,1,75.48,85.9Zm0-84.9a42,42,0,1,0,42,42A42,42,0,0,0,75.48,1Zm0,70.19A28.24,28.24,0,1,1,103.72,43,28.28,28.28,0,0,1,75.48,71.19Zm0-55.48A27.24,27.24,0,1,0,102.72,43,27.27,27.27,0,0,0,75.48,15.71Z"/><rect class="cls-2" x="43.33" y="207.93" width="11.38" height="11.38" transform="translate(165.41 27.91) rotate(45)"/><rect class="cls-2" x="43.33" y="229.92" width="11.38" height="11.38" transform="translate(180.96 34.35) rotate(45)"/><rect class="cls-2" x="43.33" y="251.88" width="11.38" height="11.38" transform="translate(196.49 40.78) rotate(45)"/><circle class="cls-3" cx="14.26" cy="135.93" r="14.26" transform="translate(-121.33 118.78) rotate(-76.8)"/><path class="cls-2" d="M25.13,134.24a8.12,8.12,0,1,1,8.11-8.12A8.13,8.13,0,0,1,25.13,134.24Zm0-15.23a7.12,7.12,0,1,0,7.11,7.11A7.12,7.12,0,0,0,25.13,119Z"/><path class="cls-3" d="M284.05,58.85a30.32,30.32,0,1,0-30.32,30.32A30.31,30.31,0,0,0,284.05,58.85Zm-50.13,0a19.82,19.82,0,1,1,19.81,19.82A19.81,19.81,0,0,1,233.92,58.85Z"/><path class="cls-2" d="M247.68,89.17a16.95,16.95,0,1,0-17,17A16.95,16.95,0,0,0,247.68,89.17Zm-28,0a11.08,11.08,0,1,1,11.07,11.08A11.08,11.08,0,0,1,219.66,89.17Z"/><polygon class="cls-2" points="267.09 138.47 267.09 129.73 260.25 134.29 267.09 138.47"/><polygon class="cls-2" points="411.85 221.88 411.85 230.62 418.69 226.06 411.85 221.88"/><polygon class="cls-3" points="225.64 175.74 225.64 184.49 232.48 179.92 225.64 175.74"/><polygon class="cls-2" points="182.19 231.47 182.19 222.73 175.35 227.29 182.19 231.47"/><polygon class="cls-2" points="92.87 160.14 92.87 151.39 86.02 155.96 92.87 160.14"/><polygon class="cls-4" points="297.54 247.38 297.54 168.99 317.88 168.99 317.88 247.38 297.54 247.38"/><polygon class="cls-5" points="140.19 181.01 140.19 130.52 153.3 130.52 153.3 181.01 140.19 181.01"/><rect class="cls-2" x="416.89" y="29.61" width="1" height="112.31" transform="matrix(0.78, -0.62, 0.62, 0.78, 37.56, 278.89)"/><rect class="cls-2" x="414.19" y="31.68" width="1" height="112.31" transform="translate(35.68 277.66) rotate(-38.56)"/><rect class="cls-2" x="411.63" y="34.73" width="1" height="112.31" transform="translate(33.22 276.73) rotate(-38.56)"/><rect class="cls-2" x="408.93" y="36.8" width="1" height="112.31" transform="translate(31.34 275.5) rotate(-38.56)"/><rect class="cls-2" x="427.45" y="20.69" width="1" height="112.31" transform="translate(45.43 283.53) rotate(-38.56)"/><rect class="cls-2" x="424.76" y="22.76" width="1" height="112.31" transform="matrix(0.78, -0.62, 0.62, 0.78, 43.55, 282.3)"/><rect class="cls-2" x="422.19" y="25.81" width="1" height="112.31" transform="translate(41.09 281.37) rotate(-38.56)"/><rect class="cls-2" x="419.5" y="27.88" width="1" height="112.31" transform="translate(39.21 280.14) rotate(-38.56)"/><polygon class="cls-2" points="432.59 198.11 430 196.6 435.56 186.99 429.56 176.62 435.56 166.25 429.56 155.89 436 144.77 438.59 146.28 433.03 155.89 439.03 166.25 433.03 176.62 439.03 186.99 432.59 198.11"/><polygon class="cls-2" points="432.59 258.41 430 256.91 435.56 247.29 429.56 236.92 435.56 226.56 429.56 216.19 436 205.08 438.59 206.58 433.03 216.19 439.03 226.56 433.03 236.92 439.03 247.29 432.59 258.41"/><g class="cls-6"><polygon class="cls-2" points="424.23 218.98 421.63 217.47 427.19 207.86 421.19 197.49 427.19 187.13 421.19 176.76 427.63 165.64 430.23 167.15 424.66 176.76 430.66 187.13 424.66 197.49 430.66 207.86 424.23 218.98"/></g><circle class="cls-7" cx="253.55" cy="58.85" r="14.21"/><rect class="cls-2" x="238.78" y="223.81" width="1" height="23.57"/><rect class="cls-2" x="233.82" y="223.81" width="1" height="23.57"/><rect class="cls-2" x="228.56" y="223.81" width="1" height="23.57"/><rect class="cls-2" x="223.6" y="223.81" width="1" height="23.57"/><rect class="cls-2" x="218.75" y="223.81" width="1" height="23.57"/><rect class="cls-2" x="213.79" y="223.81" width="1" height="23.57"/></g></g></svg>