<svg xmlns="http://www.w3.org/2000/svg" xmlns:xlink="http://www.w3.org/1999/xlink" viewBox="0 0 175.83 561.05"><defs><style>.cls-1{fill:none;}.cls-2,.cls-3{fill:#fff;}.cls-3,.cls-6{opacity:0.6;}.cls-4{fill:url(#Nueva_muestra_de_motivo_1);}.cls-5{fill:url(#Nueva_muestra_de_motivo_1-3);}.cls-7{fill:url(#Nueva_muestra_de_motivo_1-5);}</style><pattern id="Nueva_muestra_de_motivo_1" data-name="Nueva muestra de motivo 1" width="5" height="5" patternTransform="translate(-3.98 14.22) rotate(90)" patternUnits="userSpaceOnUse" viewBox="0 0 5 5"><rect class="cls-1" width="5" height="5"/><circle class="cls-2" cx="2.5" cy="2.5" r="0.68"/></pattern><pattern id="Nueva_muestra_de_motivo_1-3" data-name="Nueva muestra de motivo 1" width="5" height="5" patternTransform="translate(5.87 13.25) rotate(90) scale(1.08)" patternUnits="userSpaceOnUse" viewBox="0 0 5 5"><rect class="cls-1" width="5" height="5"/><circle class="cls-2" cx="2.5" cy="2.5" r="0.68"/></pattern><pattern id="Nueva_muestra_de_motivo_1-5" data-name="Nueva muestra de motivo 1" width="5" height="5" patternTransform="translate(-5.57 2.93) rotate(90)" patternUnits="userSpaceOnUse" viewBox="0 0 5 5"><rect class="cls-1" width="5" height="5"/><circle class="cls-2" cx="2.5" cy="2.5" r="0.68"/></pattern></defs><title>mobile</title><g id="Layer_2" data-name="Layer 2"><g id="OBJECTS"><path class="cls-2" d="M35,70.08a35,35,0,1,1,35-35A35.08,35.08,0,0,1,35,70.08ZM35,.82A34.22,34.22,0,1,0,69.26,35,34.26,34.26,0,0,0,35,.82Zm0,57.26a23,23,0,1,1,23-23A23.07,23.07,0,0,1,35,58.08Zm0-45.27A22.23,22.23,0,1,0,57.27,35,22.25,22.25,0,0,0,35,12.81Z"/><rect class="cls-2" x="10.34" y="300.29" width="11.38" height="11.38" transform="translate(221.06 78.28) rotate(45)"/><rect class="cls-2" x="10.34" y="322.29" width="11.38" height="11.38" transform="translate(236.61 84.73) rotate(45)"/><rect class="cls-2" x="10.34" y="344.24" width="11.38" height="11.38" transform="translate(252.14 91.16) rotate(45)"/><circle class="cls-3" cx="40.49" cy="432.22" r="24.46" transform="translate(-389.56 372.94) rotate(-76.8)"/><path class="cls-2" d="M59.12,429.32A13.92,13.92,0,1,1,73,415.41,13.93,13.93,0,0,1,59.12,429.32Zm0-26.11a12.2,12.2,0,1,0,12.19,12.2A12.21,12.21,0,0,0,59.12,403.21Z"/><path class="cls-3" d="M173.42,77.63a30.32,30.32,0,1,0-30.32,30.31A30.32,30.32,0,0,0,173.42,77.63Zm-50.13,0A19.81,19.81,0,1,1,143.1,97.44,19.81,19.81,0,0,1,123.29,77.63Z"/><path class="cls-2" d="M137.05,107.94a17,17,0,1,0-17,17A16.94,16.94,0,0,0,137.05,107.94Zm-28,0A11.08,11.08,0,1,1,120.1,119,11.08,11.08,0,0,1,109,107.94Z"/><polygon class="cls-2" points="13.25 534.1 13.25 525.35 6.4 529.91 13.25 534.1"/><polygon class="cls-2" points="146.52 485.32 146.52 494.07 153.36 489.5 146.52 485.32"/><polygon class="cls-3" points="144.18 151.86 144.18 160.6 151.02 156.04 144.18 151.86"/><polygon class="cls-2" points="100.73 207.59 100.73 198.84 93.89 203.41 100.73 207.59"/><polygon class="cls-2" points="11.41 136.26 11.41 127.51 4.56 132.07 11.41 136.26"/><polygon class="cls-4" points="70.14 561.05 70.14 482.66 90.49 482.66 90.49 561.05 70.14 561.05"/><polygon class="cls-5" points="6.69 250.76 6.69 165.72 28.77 165.72 28.77 250.76 6.69 250.76"/><rect class="cls-2" x="129.37" y="263.05" width="1" height="112.31" transform="matrix(0.78, -0.62, 0.62, 0.78, -170.66, 150.57)"/><rect class="cls-2" x="126.68" y="265.12" width="1" height="112.31" transform="translate(-172.54 149.34) rotate(-38.56)"/><rect class="cls-2" x="124.11" y="268.18" width="1" height="112.31" transform="translate(-175 148.41) rotate(-38.56)"/><rect class="cls-2" x="121.42" y="270.25" width="1" height="112.31" transform="translate(-176.88 147.18) rotate(-38.56)"/><rect class="cls-2" x="139.94" y="254.13" width="1" height="112.31" transform="translate(-162.79 155.21) rotate(-38.56)"/><rect class="cls-2" x="137.24" y="256.2" width="1" height="112.31" transform="matrix(0.78, -0.62, 0.62, 0.78, -164.67, 153.98)"/><rect class="cls-2" x="134.68" y="259.25" width="1" height="112.31" transform="translate(-167.14 153.05) rotate(-38.56)"/><rect class="cls-2" x="131.99" y="261.32" width="1" height="112.31" transform="translate(-169.01 151.82) rotate(-38.56)"/><polygon class="cls-2" points="167.26 461.55 164.66 460.05 170.23 450.43 164.23 440.06 170.23 429.7 164.23 419.33 170.66 408.22 173.26 409.72 167.7 419.33 173.7 429.7 167.7 440.06 173.7 450.43 167.26 461.55"/><polygon class="cls-2" points="167.26 521.86 164.66 520.35 170.23 510.74 164.23 500.36 170.23 490 164.23 479.64 170.66 468.52 173.26 470.03 167.7 479.64 173.7 490 167.7 500.36 173.7 510.74 167.26 521.86"/><g class="cls-6"><polygon class="cls-2" points="158.9 482.42 156.3 480.92 161.86 471.3 155.86 460.93 161.86 450.57 155.86 440.2 162.3 429.09 164.9 430.59 159.33 440.2 165.33 450.57 159.33 460.93 165.33 471.3 158.9 482.42"/></g><circle class="cls-7" cx="142.91" cy="77.63" r="14.21"/><rect class="cls-2" x="157.32" y="199.93" width="1" height="23.57"/><rect class="cls-2" x="152.36" y="199.93" width="1" height="23.57"/><rect class="cls-2" x="147.1" y="199.93" width="1" height="23.57"/><rect class="cls-2" x="142.14" y="199.93" width="1" height="23.57"/><rect class="cls-2" x="137.28" y="199.93" width="1" height="23.57"/><rect class="cls-2" x="132.32" y="199.93" width="1" height="23.57"/></g></g></svg>